<svg width="377" height="432" viewBox="0 0 377 432" fill="none" xmlns="http://www.w3.org/2000/svg">
<g clip-path="url(#clip0_0_461)">
<rect x="0.299194" y="0.703857" width="376.151" height="430.491" rx="20.0228" fill="#F9F8FE"/>
<rect x="20.322" y="98.8157" width="353.403" height="351.401" rx="10.0114" fill="#E9EFFC"/>
<rect x="38.3425" y="116.836" width="326.372" height="314.358" fill="#F5FAFA"/>
<g filter="url(#filter0_d_0_461)">
<g clip-path="url(#clip1_0_461)">
<rect x="58.3654" y="64.7771" width="267.305" height="174.199" rx="10.0114" fill="#54BD95"/>
<path d="M325.17 65.2776L54.8614 239.977H325.17V65.2776Z" fill="#5FC09B"/>
<rect x="78.3882" y="84.7998" width="42.0479" height="42.0479" rx="10.0114" fill="#FEE900"/>
<rect x="89.4007" y="95.8123" width="20.0228" height="20.0228" rx="4.00457" fill="#54BD95"/>
<path d="M104.418 112.498V104.155" stroke="#F9F8FE" stroke-width="1.66857" stroke-linecap="round" stroke-linejoin="round"/>
<path d="M99.4122 112.498V99.1497" stroke="#F9F8FE" stroke-width="1.66857" stroke-linecap="round" stroke-linejoin="round"/>
<path d="M94.4064 112.498V107.492" stroke="#F9F8FE" stroke-width="1.66857" stroke-linecap="round" stroke-linejoin="round"/>
<path d="M87.8592 185.882H80.7879V164.039H88.0832C90.2234 164.039 92.0614 164.476 93.5973 165.351C95.1331 166.218 96.3099 167.466 97.1276 169.094C97.9524 170.716 98.3648 172.66 98.3648 174.929C98.3648 177.204 97.9488 179.159 97.1169 180.795C96.2921 182.43 95.0976 183.689 93.5333 184.57C91.969 185.445 90.0776 185.882 87.8592 185.882ZM84.0836 183.002H87.6779C89.3417 183.002 90.7247 182.69 91.8268 182.064C92.9289 181.431 93.7537 180.517 94.3012 179.323C94.8487 178.121 95.1225 176.656 95.1225 174.929C95.1225 173.215 94.8487 171.761 94.3012 170.566C93.7608 169.372 92.9538 168.465 91.8801 167.847C90.8065 167.228 89.4733 166.919 87.8805 166.919H84.0836V183.002ZM109.108 186.213C107.572 186.213 106.232 185.861 105.087 185.157C103.942 184.453 103.053 183.468 102.42 182.202C101.788 180.937 101.471 179.458 101.471 177.766C101.471 176.066 101.788 174.58 102.42 173.307C103.053 172.035 103.942 171.046 105.087 170.342C106.232 169.638 107.572 169.286 109.108 169.286C110.644 169.286 111.984 169.638 113.129 170.342C114.273 171.046 115.162 172.035 115.795 173.307C116.428 174.58 116.744 176.066 116.744 177.766C116.744 179.458 116.428 180.937 115.795 182.202C115.162 183.468 114.273 184.453 113.129 185.157C111.984 185.861 110.644 186.213 109.108 186.213ZM109.118 183.536C110.114 183.536 110.939 183.273 111.593 182.746C112.247 182.22 112.73 181.52 113.043 180.645C113.363 179.771 113.523 178.807 113.523 177.755C113.523 176.71 113.363 175.75 113.043 174.875C112.73 173.994 112.247 173.286 111.593 172.753C110.939 172.219 110.114 171.953 109.118 171.953C108.116 171.953 107.284 172.219 106.623 172.753C105.968 173.286 105.481 173.994 105.161 174.875C104.849 175.75 104.692 176.71 104.692 177.755C104.692 178.807 104.849 179.771 105.161 180.645C105.481 181.52 105.968 182.22 106.623 182.746C107.284 183.273 108.116 183.536 109.118 183.536ZM127.204 186.213C125.619 186.213 124.254 185.854 123.109 185.135C121.971 184.41 121.097 183.411 120.485 182.138C119.874 180.866 119.568 179.408 119.568 177.766C119.568 176.102 119.881 174.633 120.507 173.361C121.132 172.081 122.014 171.082 123.152 170.364C124.289 169.646 125.63 169.286 127.173 169.286C128.417 169.286 129.526 169.518 130.5 169.98C131.474 170.435 132.26 171.075 132.857 171.9C133.462 172.724 133.821 173.688 133.934 174.79H130.831C130.66 174.022 130.269 173.361 129.658 172.806C129.053 172.251 128.243 171.974 127.226 171.974C126.337 171.974 125.558 172.209 124.89 172.678C124.229 173.14 123.713 173.802 123.344 174.662C122.974 175.515 122.789 176.525 122.789 177.691C122.789 178.885 122.97 179.916 123.333 180.784C123.696 181.651 124.207 182.323 124.869 182.8C125.537 183.276 126.323 183.514 127.226 183.514C127.83 183.514 128.378 183.404 128.868 183.184C129.366 182.956 129.782 182.633 130.116 182.213C130.457 181.794 130.696 181.289 130.831 180.699H133.934C133.821 181.758 133.476 182.704 132.9 183.536C132.324 184.368 131.552 185.022 130.585 185.498C129.626 185.975 128.499 186.213 127.204 186.213ZM147.722 179.088V169.5H150.922V185.882H147.786V183.045H147.616C147.239 183.92 146.635 184.648 145.803 185.231C144.978 185.807 143.95 186.095 142.72 186.095C141.668 186.095 140.736 185.864 139.926 185.402C139.122 184.933 138.49 184.24 138.027 183.322C137.572 182.405 137.345 181.271 137.345 179.92V169.5H140.534V179.536C140.534 180.652 140.843 181.541 141.462 182.202C142.08 182.864 142.884 183.194 143.872 183.194C144.469 183.194 145.063 183.045 145.653 182.746C146.251 182.448 146.745 181.996 147.136 181.392C147.534 180.787 147.73 180.02 147.722 179.088ZM155.207 185.882V169.5H158.268V172.166H158.471C158.812 171.263 159.37 170.559 160.145 170.054C160.92 169.542 161.848 169.286 162.929 169.286C164.024 169.286 164.941 169.542 165.681 170.054C166.427 170.566 166.978 171.27 167.334 172.166H167.504C167.895 171.292 168.518 170.595 169.371 170.076C170.224 169.55 171.241 169.286 172.421 169.286C173.907 169.286 175.12 169.752 176.058 170.684C177.004 171.615 177.477 173.019 177.477 174.897V185.882H174.288V175.195C174.288 174.086 173.985 173.282 173.381 172.785C172.777 172.287 172.055 172.038 171.216 172.038C170.178 172.038 169.371 172.358 168.795 172.998C168.219 173.631 167.931 174.445 167.931 175.44V185.882H164.753V174.993C164.753 174.104 164.475 173.389 163.921 172.849C163.366 172.308 162.644 172.038 161.756 172.038C161.151 172.038 160.593 172.198 160.081 172.518C159.576 172.831 159.167 173.268 158.855 173.83C158.549 174.392 158.396 175.042 158.396 175.782V185.882H155.207ZM188.812 186.213C187.197 186.213 185.807 185.868 184.641 185.178C183.482 184.481 182.586 183.504 181.954 182.245C181.328 180.979 181.015 179.497 181.015 177.798C181.015 176.12 181.328 174.641 181.954 173.361C182.586 172.081 183.468 171.082 184.599 170.364C185.736 169.646 187.066 169.286 188.588 169.286C189.512 169.286 190.408 169.439 191.275 169.745C192.143 170.051 192.921 170.531 193.611 171.185C194.301 171.839 194.845 172.689 195.243 173.734C195.641 174.772 195.84 176.034 195.84 177.52V178.651H182.817V176.262H192.715C192.715 175.423 192.544 174.68 192.203 174.033C191.862 173.378 191.382 172.863 190.763 172.486C190.152 172.109 189.434 171.921 188.609 171.921C187.713 171.921 186.931 172.141 186.262 172.582C185.601 173.016 185.089 173.585 184.727 174.289C184.371 174.985 184.193 175.743 184.193 176.56V178.427C184.193 179.522 184.385 180.453 184.769 181.221C185.16 181.989 185.704 182.576 186.401 182.981C187.098 183.379 187.912 183.578 188.844 183.578C189.448 183.578 189.999 183.493 190.497 183.322C190.994 183.145 191.425 182.881 191.787 182.533C192.15 182.185 192.427 181.755 192.619 181.243L195.637 181.787C195.396 182.675 194.962 183.454 194.336 184.122C193.718 184.784 192.939 185.299 192.001 185.669C191.069 186.031 190.006 186.213 188.812 186.213ZM202.567 176.155V185.882H199.378V169.5H202.439V172.166H202.642C203.019 171.299 203.609 170.602 204.413 170.076C205.223 169.55 206.243 169.286 207.474 169.286C208.59 169.286 209.568 169.521 210.407 169.99C211.246 170.453 211.896 171.142 212.358 172.06C212.821 172.977 213.052 174.111 213.052 175.462V185.882H209.863V175.846C209.863 174.658 209.553 173.73 208.935 173.062C208.316 172.387 207.466 172.049 206.386 172.049C205.646 172.049 204.989 172.209 204.413 172.529C203.844 172.849 203.392 173.318 203.058 173.937C202.731 174.548 202.567 175.288 202.567 176.155ZM224.976 169.5V172.06H216.027V169.5H224.976ZM218.427 165.575H221.616V181.072C221.616 181.691 221.709 182.156 221.893 182.469C222.078 182.775 222.316 182.985 222.608 183.098C222.907 183.205 223.23 183.258 223.579 183.258C223.835 183.258 224.059 183.241 224.251 183.205C224.442 183.169 224.592 183.141 224.698 183.12L225.274 185.754C225.09 185.825 224.826 185.896 224.485 185.967C224.144 186.046 223.717 186.088 223.205 186.095C222.366 186.11 221.584 185.96 220.859 185.647C220.134 185.335 219.547 184.851 219.099 184.197C218.651 183.543 218.427 182.722 218.427 181.733V165.575ZM236.708 185.882V164.039H250.253V166.876H240.004V173.531H249.283V176.358H240.004V185.882H236.708ZM254.05 185.882V169.5H257.239V185.882H254.05ZM255.661 166.972C255.106 166.972 254.63 166.787 254.231 166.417C253.84 166.041 253.645 165.593 253.645 165.074C253.645 164.547 253.84 164.099 254.231 163.73C254.63 163.353 255.106 163.164 255.661 163.164C256.215 163.164 256.688 163.353 257.079 163.73C257.477 164.099 257.676 164.547 257.676 165.074C257.676 165.593 257.477 166.041 257.079 166.417C256.688 166.787 256.215 166.972 255.661 166.972ZM264.718 164.039V185.882H261.529V164.039H264.718ZM276.069 186.213C274.455 186.213 273.065 185.868 271.899 185.178C270.74 184.481 269.844 183.504 269.211 182.245C268.586 180.979 268.273 179.497 268.273 177.798C268.273 176.12 268.586 174.641 269.211 173.361C269.844 172.081 270.726 171.082 271.856 170.364C272.994 169.646 274.324 169.286 275.845 169.286C276.77 169.286 277.665 169.439 278.533 169.745C279.4 170.051 280.179 170.531 280.869 171.185C281.558 171.839 282.102 172.689 282.501 173.734C282.899 174.772 283.098 176.034 283.098 177.52V178.651H270.075V176.262H279.973C279.973 175.423 279.802 174.68 279.461 174.033C279.12 173.378 278.64 172.863 278.021 172.486C277.41 172.109 276.691 171.921 275.867 171.921C274.971 171.921 274.188 172.141 273.52 172.582C272.859 173.016 272.347 173.585 271.984 174.289C271.629 174.985 271.451 175.743 271.451 176.56V178.427C271.451 179.522 271.643 180.453 272.027 181.221C272.418 181.989 272.962 182.576 273.659 182.981C274.356 183.379 275.17 183.578 276.101 183.578C276.706 183.578 277.257 183.493 277.754 183.322C278.252 183.145 278.682 182.881 279.045 182.533C279.408 182.185 279.685 181.755 279.877 181.243L282.895 181.787C282.653 182.675 282.22 183.454 281.594 184.122C280.975 184.784 280.197 185.299 279.258 185.669C278.327 186.031 277.264 186.213 276.069 186.213Z" fill="white"/>
<path d="M79.3737 213.369V211.769L85.0371 202.823H86.2978V205.178H85.4979L81.4471 211.59V211.693H89.2095V213.369H79.3737ZM85.5874 215.929V212.883L85.6002 212.153V202.823H87.4752V215.929H85.5874ZM95.7656 216.108C94.9635 216.108 94.2426 215.955 93.6026 215.647C92.967 215.336 92.4593 214.909 92.0796 214.368C91.6999 213.826 91.4972 213.207 91.4716 212.512H93.3914C93.4384 213.075 93.6879 213.538 94.1402 213.9C94.5924 214.263 95.1342 214.444 95.7656 214.444C96.269 214.444 96.7148 214.329 97.1031 214.099C97.4956 213.864 97.8027 213.542 98.0246 213.132C98.2507 212.723 98.3637 212.256 98.3637 211.731C98.3637 211.198 98.2485 210.722 98.0182 210.304C97.7878 209.886 97.47 209.557 97.0647 209.318C96.6636 209.08 96.2029 208.958 95.6824 208.954C95.2856 208.954 94.8868 209.022 94.4857 209.158C94.0847 209.295 93.7605 209.474 93.513 209.696L91.702 209.427L92.4379 202.823H99.6436V204.519H94.0826L93.6666 208.186H93.7434C93.9994 207.938 94.3385 207.731 94.7609 207.565C95.1875 207.399 95.644 207.315 96.1304 207.315C96.9281 207.315 97.6385 207.505 98.2613 207.885C98.8885 208.265 99.3812 208.783 99.7396 209.44C100.102 210.093 100.281 210.844 100.277 211.693C100.281 212.542 100.089 213.299 99.7012 213.964C99.3172 214.63 98.784 215.155 98.1014 215.539C97.423 215.918 96.6444 216.108 95.7656 216.108ZM107.19 216.108C106.606 216.1 106.03 215.993 105.462 215.788C104.899 215.583 104.387 215.242 103.926 214.764C103.466 214.286 103.097 213.644 102.819 212.838C102.546 212.032 102.41 211.025 102.41 209.818C102.41 208.674 102.523 207.659 102.749 206.771C102.979 205.884 103.31 205.135 103.741 204.525C104.172 203.911 104.692 203.444 105.302 203.124C105.912 202.804 106.597 202.644 107.356 202.644C108.137 202.644 108.83 202.798 109.436 203.105C110.042 203.412 110.533 203.836 110.908 204.378C111.288 204.92 111.529 205.536 111.631 206.228H109.679C109.547 205.681 109.285 205.236 108.892 204.89C108.5 204.545 107.988 204.372 107.356 204.372C106.397 204.372 105.648 204.79 105.11 205.626C104.577 206.462 104.308 207.625 104.304 209.114H104.4C104.626 208.742 104.903 208.427 105.232 208.167C105.565 207.902 105.936 207.699 106.345 207.559C106.759 207.414 107.194 207.341 107.651 207.341C108.41 207.341 109.097 207.527 109.711 207.898C110.33 208.265 110.823 208.772 111.19 209.421C111.557 210.069 111.74 210.812 111.74 211.648C111.74 212.484 111.55 213.241 111.17 213.92C110.795 214.598 110.266 215.135 109.583 215.532C108.901 215.925 108.103 216.117 107.19 216.108ZM107.184 214.444C107.687 214.444 108.137 214.321 108.534 214.073C108.931 213.826 109.244 213.493 109.475 213.075C109.705 212.657 109.82 212.19 109.82 211.673C109.82 211.17 109.707 210.711 109.481 210.298C109.259 209.884 108.952 209.555 108.559 209.312C108.171 209.069 107.728 208.947 107.228 208.947C106.849 208.947 106.497 209.02 106.173 209.165C105.853 209.31 105.571 209.51 105.328 209.766C105.085 210.022 104.893 210.317 104.752 210.649C104.615 210.978 104.547 211.326 104.547 211.693C104.547 212.183 104.66 212.638 104.886 213.056C105.117 213.474 105.43 213.811 105.827 214.067C106.228 214.318 106.68 214.444 107.184 214.444ZM127.889 206.963C127.765 206.575 127.599 206.228 127.39 205.92C127.185 205.609 126.939 205.344 126.654 205.127C126.368 204.905 126.041 204.737 125.675 204.621C125.312 204.506 124.913 204.449 124.478 204.449C123.74 204.449 123.074 204.638 122.481 205.018C121.888 205.398 121.419 205.955 121.073 206.688C120.732 207.418 120.561 208.312 120.561 209.37C120.561 210.432 120.734 211.33 121.08 212.064C121.425 212.798 121.899 213.354 122.5 213.734C123.102 214.114 123.787 214.304 124.555 214.304C125.267 214.304 125.888 214.158 126.417 213.868C126.95 213.578 127.362 213.169 127.652 212.64C127.946 212.106 128.093 211.479 128.093 210.758L128.605 210.854H124.855V209.222H130.007V210.713C130.007 211.814 129.772 212.77 129.303 213.58C128.838 214.387 128.194 215.01 127.37 215.449C126.551 215.888 125.613 216.108 124.555 216.108C123.369 216.108 122.328 215.835 121.432 215.289C120.54 214.743 119.845 213.969 119.346 212.966C118.846 211.959 118.597 210.765 118.597 209.382C118.597 208.337 118.742 207.399 119.032 206.567C119.322 205.735 119.73 205.029 120.254 204.449C120.783 203.864 121.404 203.418 122.116 203.111C122.833 202.8 123.616 202.644 124.465 202.644C125.173 202.644 125.832 202.748 126.442 202.957C127.057 203.167 127.603 203.463 128.081 203.847C128.563 204.231 128.962 204.687 129.277 205.216C129.593 205.741 129.806 206.324 129.917 206.963H127.889ZM132.517 215.929V202.823H137.317C138.247 202.823 139.017 202.977 139.627 203.284C140.237 203.587 140.693 203.998 140.996 204.519C141.299 205.035 141.451 205.617 141.451 206.266C141.451 206.812 141.35 207.273 141.15 207.648C140.949 208.019 140.68 208.318 140.343 208.544C140.011 208.766 139.644 208.928 139.243 209.03V209.158C139.678 209.18 140.102 209.321 140.516 209.581C140.934 209.837 141.28 210.202 141.553 210.675C141.826 211.149 141.962 211.725 141.962 212.403C141.962 213.073 141.805 213.674 141.489 214.208C141.177 214.737 140.695 215.157 140.043 215.468C139.39 215.775 138.556 215.929 137.541 215.929H132.517ZM134.494 214.233H137.349C138.296 214.233 138.974 214.05 139.384 213.683C139.793 213.316 139.998 212.857 139.998 212.307C139.998 211.893 139.893 211.513 139.684 211.168C139.475 210.822 139.177 210.547 138.788 210.342C138.404 210.138 137.948 210.035 137.419 210.035H134.494V214.233ZM134.494 208.493H137.144C137.587 208.493 137.986 208.408 138.34 208.237C138.699 208.066 138.982 207.827 139.192 207.52C139.405 207.209 139.512 206.842 139.512 206.42C139.512 205.878 139.322 205.423 138.942 205.056C138.562 204.69 137.98 204.506 137.195 204.506H134.494V208.493ZM151.054 202.823V215.929H149.077V202.823H151.054ZM163.496 202.823V215.929H161.512V204.807H161.436L158.3 206.855V204.96L161.57 202.823H163.496ZM171.604 216.147C170.593 216.142 169.729 215.876 169.012 215.347C168.296 214.818 167.748 214.048 167.368 213.036C166.988 212.025 166.798 210.807 166.798 209.382C166.798 207.962 166.988 206.748 167.368 205.741C167.752 204.734 168.302 203.966 169.019 203.437C169.74 202.908 170.602 202.644 171.604 202.644C172.607 202.644 173.466 202.911 174.183 203.444C174.9 203.973 175.448 204.741 175.828 205.748C176.212 206.75 176.404 207.962 176.404 209.382C176.404 210.812 176.214 212.032 175.834 213.043C175.454 214.05 174.906 214.82 174.19 215.353C173.473 215.882 172.611 216.147 171.604 216.147ZM171.604 214.438C172.492 214.438 173.185 214.005 173.684 213.139C174.187 212.273 174.439 211.021 174.439 209.382C174.439 208.295 174.324 207.375 174.094 206.624C173.867 205.869 173.541 205.298 173.114 204.909C172.692 204.517 172.189 204.321 171.604 204.321C170.721 204.321 170.028 204.756 169.524 205.626C169.021 206.496 168.767 207.748 168.763 209.382C168.763 210.475 168.876 211.398 169.102 212.153C169.332 212.904 169.659 213.474 170.081 213.862C170.504 214.246 171.011 214.438 171.604 214.438ZM183 216.108C182.198 216.108 181.477 215.955 180.837 215.647C180.201 215.336 179.694 214.909 179.314 214.368C178.934 213.826 178.731 213.207 178.706 212.512H180.626C180.673 213.075 180.922 213.538 181.374 213.9C181.827 214.263 182.368 214.444 183 214.444C183.503 214.444 183.949 214.329 184.337 214.099C184.73 213.864 185.037 213.542 185.259 213.132C185.485 212.723 185.598 212.256 185.598 211.731C185.598 211.198 185.483 210.722 185.252 210.304C185.022 209.886 184.704 209.557 184.299 209.318C183.898 209.08 183.437 208.958 182.917 208.954C182.52 208.954 182.121 209.022 181.72 209.158C181.319 209.295 180.995 209.474 180.747 209.696L178.936 209.427L179.672 202.823H186.878V204.519H181.317L180.901 208.186H180.978C181.234 207.938 181.573 207.731 181.995 207.565C182.422 207.399 182.878 207.315 183.365 207.315C184.162 207.315 184.873 207.505 185.496 207.885C186.123 208.265 186.615 208.783 186.974 209.44C187.336 210.093 187.516 210.844 187.511 211.693C187.516 212.542 187.324 213.299 186.935 213.964C186.551 214.63 186.018 215.155 185.336 215.539C184.657 215.918 183.879 216.108 183 216.108ZM194.424 216.108C193.84 216.1 193.264 215.993 192.696 215.788C192.133 215.583 191.621 215.242 191.161 214.764C190.7 214.286 190.331 213.644 190.054 212.838C189.78 212.032 189.644 211.025 189.644 209.818C189.644 208.674 189.757 207.659 189.983 206.771C190.213 205.884 190.544 205.135 190.975 204.525C191.406 203.911 191.926 203.444 192.536 203.124C193.147 202.804 193.831 202.644 194.591 202.644C195.371 202.644 196.065 202.798 196.67 203.105C197.276 203.412 197.767 203.836 198.142 204.378C198.522 204.92 198.763 205.536 198.865 206.228H196.914C196.781 205.681 196.519 205.236 196.126 204.89C195.734 204.545 195.222 204.372 194.591 204.372C193.631 204.372 192.882 204.79 192.344 205.626C191.811 206.462 191.542 207.625 191.538 209.114H191.634C191.86 208.742 192.138 208.427 192.466 208.167C192.799 207.902 193.17 207.699 193.58 207.559C193.993 207.414 194.429 207.341 194.885 207.341C195.644 207.341 196.331 207.527 196.946 207.898C197.564 208.265 198.057 208.772 198.424 209.421C198.791 210.069 198.974 210.812 198.974 211.648C198.974 212.484 198.784 213.241 198.405 213.92C198.029 214.598 197.5 215.135 196.818 215.532C196.135 215.925 195.337 216.117 194.424 216.108ZM194.418 214.444C194.921 214.444 195.371 214.321 195.768 214.073C196.165 213.826 196.478 213.493 196.709 213.075C196.939 212.657 197.054 212.19 197.054 211.673C197.054 211.17 196.941 210.711 196.715 210.298C196.493 209.884 196.186 209.555 195.794 209.312C195.405 209.069 194.962 208.947 194.463 208.947C194.083 208.947 193.731 209.02 193.407 209.165C193.087 209.31 192.805 209.51 192.562 209.766C192.319 210.022 192.127 210.317 191.986 210.649C191.85 210.978 191.781 211.326 191.781 211.693C191.781 212.183 191.894 212.638 192.12 213.056C192.351 213.474 192.664 213.811 193.061 214.067C193.462 214.318 193.914 214.444 194.418 214.444ZM208.231 202.823V215.929H206.253V202.823H208.231ZM215.545 206.1V207.635H210.176V206.1H215.545ZM211.616 203.745H213.529V213.043C213.529 213.414 213.585 213.693 213.696 213.881C213.807 214.065 213.95 214.19 214.125 214.259C214.304 214.323 214.498 214.355 214.707 214.355C214.861 214.355 214.995 214.344 215.11 214.323C215.225 214.301 215.315 214.284 215.379 214.272L215.724 215.852C215.614 215.895 215.456 215.937 215.251 215.98C215.046 216.027 214.79 216.053 214.483 216.057C213.98 216.065 213.51 215.976 213.075 215.788C212.64 215.6 212.288 215.31 212.019 214.918C211.75 214.525 211.616 214.033 211.616 213.44V203.745ZM221.793 216.127C220.824 216.127 219.99 215.92 219.29 215.507C218.595 215.089 218.058 214.502 217.678 213.747C217.302 212.987 217.115 212.098 217.115 211.078C217.115 210.071 217.302 209.184 217.678 208.416C218.058 207.648 218.587 207.049 219.265 206.618C219.947 206.187 220.745 205.972 221.658 205.972C222.213 205.972 222.75 206.063 223.271 206.247C223.791 206.43 224.259 206.718 224.672 207.111C225.086 207.503 225.413 208.013 225.651 208.64C225.89 209.263 226.01 210.02 226.01 210.912V211.59H218.196V210.157H224.135C224.135 209.653 224.032 209.208 223.828 208.819C223.623 208.427 223.335 208.117 222.964 207.891C222.597 207.665 222.166 207.552 221.671 207.552C221.134 207.552 220.664 207.684 220.263 207.949C219.866 208.209 219.559 208.551 219.342 208.973C219.128 209.391 219.022 209.845 219.022 210.336V211.456C219.022 212.113 219.137 212.672 219.367 213.132C219.602 213.593 219.928 213.945 220.346 214.188C220.764 214.427 221.253 214.547 221.812 214.547C222.174 214.547 222.505 214.496 222.804 214.393C223.102 214.286 223.36 214.129 223.578 213.92C223.796 213.711 223.962 213.452 224.077 213.145L225.888 213.472C225.743 214.005 225.483 214.472 225.107 214.873C224.736 215.27 224.269 215.579 223.706 215.801C223.147 216.019 222.509 216.127 221.793 216.127ZM228.133 215.929V206.1H229.969V207.699H230.091C230.296 207.158 230.631 206.735 231.096 206.432C231.561 206.125 232.117 205.972 232.766 205.972C233.423 205.972 233.973 206.125 234.417 206.432C234.865 206.739 235.196 207.162 235.409 207.699H235.511C235.746 207.175 236.119 206.757 236.631 206.445C237.143 206.129 237.753 205.972 238.461 205.972C239.353 205.972 240.08 206.251 240.644 206.81C241.211 207.369 241.495 208.211 241.495 209.338V215.929H239.581V209.517C239.581 208.851 239.4 208.369 239.037 208.071C238.675 207.772 238.242 207.623 237.738 207.623C237.115 207.623 236.631 207.815 236.286 208.199C235.94 208.578 235.767 209.067 235.767 209.664V215.929H233.86V209.395C233.86 208.862 233.694 208.433 233.361 208.109C233.028 207.785 232.595 207.623 232.062 207.623C231.699 207.623 231.364 207.719 231.057 207.911C230.754 208.098 230.509 208.361 230.321 208.698C230.138 209.035 230.046 209.425 230.046 209.869V215.929H228.133ZM251.425 208.499L249.691 208.806C249.618 208.585 249.503 208.373 249.345 208.173C249.191 207.972 248.982 207.808 248.718 207.68C248.453 207.552 248.123 207.488 247.726 207.488C247.184 207.488 246.732 207.61 246.369 207.853C246.007 208.092 245.825 208.401 245.825 208.781C245.825 209.109 245.947 209.374 246.19 209.574C246.433 209.775 246.826 209.939 247.368 210.067L248.929 210.426C249.833 210.635 250.508 210.957 250.951 211.392C251.395 211.827 251.617 212.392 251.617 213.088C251.617 213.676 251.446 214.201 251.105 214.662C250.768 215.118 250.296 215.477 249.691 215.737C249.089 215.997 248.392 216.127 247.598 216.127C246.497 216.127 245.599 215.893 244.904 215.423C244.208 214.95 243.782 214.278 243.624 213.408L245.473 213.126C245.589 213.608 245.825 213.973 246.184 214.22C246.542 214.464 247.009 214.585 247.585 214.585C248.212 214.585 248.714 214.455 249.089 214.195C249.464 213.93 249.652 213.608 249.652 213.228C249.652 212.921 249.537 212.663 249.307 212.454C249.081 212.245 248.733 212.087 248.264 211.981L246.6 211.616C245.682 211.407 245.004 211.074 244.565 210.618C244.13 210.161 243.912 209.583 243.912 208.883C243.912 208.303 244.074 207.795 244.398 207.36C244.723 206.925 245.171 206.586 245.742 206.343C246.314 206.095 246.969 205.972 247.707 205.972C248.769 205.972 249.605 206.202 250.215 206.663C250.825 207.119 251.229 207.731 251.425 208.499Z" fill="white"/>
</g>
</g>
<g filter="url(#filter1_d_0_461)">
<rect x="276.614" y="33.7415" width="66.0753" height="66.0753" rx="10.0114" fill="white"/>
</g>
<path fill-rule="evenodd" clip-rule="evenodd" d="M320.25 66.7799C320.52 65.8932 320.664 64.9576 320.664 63.9906C320.664 58.343 315.734 53.7646 309.652 53.7646C303.57 53.7646 298.639 58.343 298.639 63.9906C298.639 64.9576 298.784 65.8932 299.054 66.7799C295.5 66.8259 292.633 69.7215 292.633 73.2867C292.633 76.8807 295.546 79.7942 299.14 79.7942H320.164C323.758 79.7942 326.671 76.8807 326.671 73.2867C326.671 69.7215 323.804 66.8259 320.25 66.7799Z" fill="#54BD95"/>
<rect x="345.693" y="115.835" width="28.032" height="144.164" rx="14.016" fill="#0F8CE9"/>
<path d="M139.458 294.539H350.198" stroke="#E7ECF3" stroke-width="2.00228" stroke-dasharray="12.01 12.01"/>
<path d="M139.458 333.083H350.198" stroke="#E7ECF3" stroke-width="2.00228" stroke-dasharray="12.01 12.01"/>
<path d="M139.458 371.627H350.198" stroke="#E7ECF3" stroke-width="2.00228" stroke-dasharray="12.01 12.01"/>
<rect x="94.9071" y="269.511" width="265.302" height="133.152" rx="8.5097" stroke="#E7ECF3" stroke-width="1.00114"/>
<rect x="146.466" y="322.071" width="18.0205" height="64.0731" rx="9.01027" fill="#54BD95"/>
<rect x="191.517" y="290.034" width="18.0205" height="64.0731" rx="9.01027" fill="#54BD95"/>
<rect x="236.569" y="304.05" width="18.0205" height="64.0731" rx="9.01027" fill="#54BD95"/>
<rect x="281.62" y="322.071" width="18.0205" height="64.0731" rx="9.01027" fill="#54BD95"/>
<rect x="326.671" y="295.04" width="18.0205" height="64.0731" rx="9.01027" fill="#54BD95"/>
</g>
<defs>
<filter id="filter0_d_0_461" x="14.3151" y="34.7429" width="355.405" height="262.299" filterUnits="userSpaceOnUse" color-interpolation-filters="sRGB">
<feFlood flood-opacity="0" result="BackgroundImageFix"/>
<feColorMatrix in="SourceAlpha" type="matrix" values="0 0 0 0 0 0 0 0 0 0 0 0 0 0 0 0 0 0 127 0" result="hardAlpha"/>
<feOffset dy="14.016"/>
<feGaussianBlur stdDeviation="22.0251"/>
<feComposite in2="hardAlpha" operator="out"/>
<feColorMatrix type="matrix" values="0 0 0 0 0 0 0 0 0 0 0 0 0 0 0 0 0 0 0.15 0"/>
<feBlend mode="normal" in2="BackgroundImageFix" result="effect1_dropShadow_0_461"/>
<feBlend mode="normal" in="SourceGraphic" in2="effect1_dropShadow_0_461" result="shape"/>
</filter>
<filter id="filter1_d_0_461" x="267.604" y="28.7357" width="84.0959" height="84.096" filterUnits="userSpaceOnUse" color-interpolation-filters="sRGB">
<feFlood flood-opacity="0" result="BackgroundImageFix"/>
<feColorMatrix in="SourceAlpha" type="matrix" values="0 0 0 0 0 0 0 0 0 0 0 0 0 0 0 0 0 0 127 0" result="hardAlpha"/>
<feOffset dy="4.00457"/>
<feGaussianBlur stdDeviation="4.50514"/>
<feComposite in2="hardAlpha" operator="out"/>
<feColorMatrix type="matrix" values="0 0 0 0 0 0 0 0 0 0 0 0 0 0 0 0 0 0 0.05 0"/>
<feBlend mode="normal" in2="BackgroundImageFix" result="effect1_dropShadow_0_461"/>
<feBlend mode="normal" in="SourceGraphic" in2="effect1_dropShadow_0_461" result="shape"/>
</filter>
<clipPath id="clip0_0_461">
<rect x="0.299194" y="0.703857" width="376.151" height="430.491" rx="20.0228" fill="white"/>
</clipPath>
<clipPath id="clip1_0_461">
<rect x="58.3654" y="64.7771" width="267.305" height="174.199" rx="10.0114" fill="white"/>
</clipPath>
</defs>
</svg>
