<svg width="1182" height="43" viewBox="0 0 1182 43" fill="none" xmlns="http://www.w3.org/2000/svg">
<path d="M63.1977 10.5739H67.5375V26.2255C67.5375 27.9412 67.132 29.4502 66.321 30.7525C65.5177 32.0549 64.3869 33.0726 62.9286 33.8056C61.4703 34.5309 59.7663 34.8935 57.8167 34.8935C55.8593 34.8935 54.1514 34.5309 52.6931 33.8056C51.2348 33.0726 50.104 32.0549 49.3007 30.7525C48.4975 29.4502 48.0959 27.9412 48.0959 26.2255V10.5739H52.4357V25.8629C52.4357 26.8611 52.6541 27.7501 53.0908 28.5299C53.5353 29.3098 54.1592 29.922 54.9624 30.3665C55.7657 30.8032 56.7171 31.0216 57.8167 31.0216C58.9163 31.0216 59.8677 30.8032 60.6709 30.3665C61.482 29.922 62.1059 29.3098 62.5426 28.5299C62.9793 27.7501 63.1977 26.8611 63.1977 25.8629V10.5739ZM76.302 24.0029V34.5309H72.0675V16.5632H76.1149V19.6163H76.3254C76.7388 18.6103 77.3977 17.8109 78.3024 17.2182C79.2148 16.6255 80.3417 16.3292 81.683 16.3292C82.923 16.3292 84.0031 16.5944 84.9233 17.1246C85.8513 17.6549 86.5688 18.4231 87.0757 19.4291C87.5904 20.4351 87.8438 21.6556 87.836 23.0905V34.5309H83.6014V23.7456C83.6014 22.5446 83.2895 21.6049 82.6656 20.9264C82.0495 20.2479 81.1956 19.9087 80.1038 19.9087C79.363 19.9087 78.704 20.0725 78.1269 20.4C77.5576 20.7198 77.1092 21.1838 76.7817 21.792C76.4619 22.4003 76.302 23.1373 76.302 24.0029ZM106.342 21.3124L102.482 21.7336C102.372 21.3436 102.181 20.9771 101.908 20.634C101.643 20.2908 101.285 20.014 100.832 19.8034C100.38 19.5929 99.8262 19.4876 99.1711 19.4876C98.2899 19.4876 97.549 19.6787 96.9486 20.0608C96.3559 20.4429 96.0634 20.9381 96.0712 21.5464C96.0634 22.0689 96.2545 22.4939 96.6444 22.8214C97.0421 23.149 97.6972 23.418 98.6096 23.6286L101.674 24.2837C103.375 24.6502 104.638 25.2312 105.465 26.0266C106.299 26.8221 106.72 27.8632 106.728 29.1499C106.72 30.2807 106.389 31.2789 105.734 32.1445C105.086 33.0024 104.186 33.673 103.031 34.1566C101.877 34.6401 100.551 34.8818 99.0541 34.8818C96.855 34.8818 95.0847 34.4217 93.7434 33.5015C92.402 32.5735 91.6027 31.2828 91.3453 29.6295L95.4746 29.2318C95.6618 30.0429 96.0595 30.655 96.6678 31.0684C97.2761 31.4817 98.0676 31.6883 99.0424 31.6883C100.048 31.6883 100.856 31.4817 101.464 31.0684C102.08 30.655 102.388 30.1442 102.388 29.5359C102.388 29.0212 102.189 28.5962 101.791 28.2609C101.401 27.9256 100.793 27.6682 99.9666 27.4888L96.9018 26.8455C95.1783 26.4867 93.9032 25.8824 93.0766 25.0323C92.25 24.1745 91.8405 23.0905 91.8483 21.7803C91.8405 20.673 92.1408 19.7137 92.7491 18.9027C93.3651 18.0839 94.2191 17.4522 95.3109 17.0077C96.4105 16.5554 97.6777 16.3292 99.1126 16.3292C101.218 16.3292 102.875 16.7776 104.084 17.6744C105.301 18.5713 106.053 19.7839 106.342 21.3124ZM110.22 41.2688V16.5632H114.384V19.5344H114.63C114.848 19.0977 115.156 18.6337 115.554 18.1424C115.952 17.6432 116.49 17.2182 117.168 16.8673C117.847 16.5086 118.712 16.3292 119.765 16.3292C121.153 16.3292 122.405 16.684 123.52 17.3937C124.643 18.0956 125.532 19.1367 126.187 20.517C126.85 21.8895 127.181 23.574 127.181 25.5704C127.181 27.5434 126.858 29.2201 126.21 30.6004C125.563 31.9808 124.682 33.0336 123.567 33.7588C122.452 34.4841 121.188 34.8467 119.777 34.8467C118.747 34.8467 117.893 34.6752 117.215 34.332C116.536 33.9889 115.991 33.5756 115.577 33.0921C115.172 32.6008 114.856 32.1367 114.63 31.7H114.454V41.2688H110.22ZM114.372 25.547C114.372 26.709 114.536 27.7267 114.864 28.6001C115.199 29.4736 115.679 30.1559 116.302 30.6472C116.934 31.1307 117.698 31.3725 118.595 31.3725C119.531 31.3725 120.315 31.1229 120.946 30.6238C121.578 30.1169 122.054 29.4268 122.374 28.5533C122.701 27.6721 122.865 26.67 122.865 25.547C122.865 24.4318 122.705 23.4414 122.385 22.5758C122.066 21.7102 121.59 21.0317 120.958 20.5404C120.326 20.0491 119.539 19.8034 118.595 19.8034C117.691 19.8034 116.922 20.0413 116.291 20.517C115.659 20.9927 115.179 21.6595 114.852 22.5173C114.532 23.3751 114.372 24.385 114.372 25.547ZM135.042 10.5739V34.5309H130.808V10.5739H135.042ZM144.567 34.8935C143.429 34.8935 142.403 34.6908 141.491 34.2852C140.586 33.8719 139.869 33.2636 139.338 32.4604C138.816 31.6571 138.554 30.6667 138.554 29.4892C138.554 28.4754 138.742 27.637 139.116 26.9741C139.49 26.3113 140.001 25.781 140.648 25.3833C141.296 24.9855 142.025 24.6853 142.836 24.4825C143.655 24.272 144.501 24.1199 145.374 24.0263C146.427 23.9171 147.281 23.8197 147.936 23.7339C148.591 23.6403 149.067 23.4999 149.363 23.3128C149.667 23.1178 149.819 22.8175 149.819 22.412V22.3418C149.819 21.4606 149.558 20.7782 149.036 20.2947C148.513 19.8112 147.761 19.5695 146.778 19.5695C145.741 19.5695 144.918 19.7956 144.31 20.2479C143.709 20.7003 143.304 21.2345 143.093 21.8505L139.139 21.289C139.451 20.1973 139.966 19.2848 140.683 18.5518C141.401 17.8109 142.278 17.2572 143.315 16.8907C144.353 16.5164 145.499 16.3292 146.755 16.3292C147.62 16.3292 148.482 16.4306 149.34 16.6333C150.198 16.8361 150.981 17.1714 151.691 17.6393C152.401 18.0995 152.97 18.7272 153.399 19.5227C153.836 20.3181 154.054 21.3124 154.054 22.5056V34.5309H149.983V32.0627H149.843C149.585 32.5618 149.223 33.0297 148.755 33.4664C148.295 33.8953 147.714 34.2423 147.012 34.5075C146.318 34.7648 145.503 34.8935 144.567 34.8935ZM145.667 31.7819C146.517 31.7819 147.254 31.6142 147.878 31.2789C148.501 30.9358 148.981 30.4835 149.316 29.922C149.66 29.3605 149.831 28.7483 149.831 28.0854V25.9681C149.699 26.0773 149.472 26.1787 149.153 26.2723C148.841 26.3659 148.49 26.4477 148.1 26.5179C147.71 26.5881 147.324 26.6505 146.942 26.7051C146.56 26.7597 146.228 26.8065 145.947 26.8455C145.316 26.9313 144.75 27.0716 144.251 27.2666C143.752 27.4616 143.358 27.7345 143.07 28.0854C142.781 28.4286 142.637 28.8731 142.637 29.419C142.637 30.1988 142.922 30.7876 143.491 31.1853C144.06 31.5831 144.785 31.7819 145.667 31.7819ZM172.513 21.3124L168.653 21.7336C168.544 21.3436 168.353 20.9771 168.08 20.634C167.814 20.2908 167.456 20.014 167.003 19.8034C166.551 19.5929 165.997 19.4876 165.342 19.4876C164.461 19.4876 163.72 19.6787 163.12 20.0608C162.527 20.4429 162.235 20.9381 162.242 21.5464C162.235 22.0689 162.426 22.4939 162.816 22.8214C163.213 23.149 163.868 23.418 164.781 23.6286L167.846 24.2837C169.546 24.6502 170.809 25.2312 171.636 26.0266C172.47 26.8221 172.891 27.8632 172.899 29.1499C172.891 30.2807 172.56 31.2789 171.905 32.1445C171.257 33.0024 170.357 33.673 169.203 34.1566C168.048 34.6401 166.723 34.8818 165.225 34.8818C163.026 34.8818 161.256 34.4217 159.915 33.5015C158.573 32.5735 157.774 31.2828 157.517 29.6295L161.646 29.2318C161.833 30.0429 162.231 30.655 162.839 31.0684C163.447 31.4817 164.239 31.6883 165.214 31.6883C166.22 31.6883 167.027 31.4817 167.635 31.0684C168.251 30.655 168.559 30.1442 168.559 29.5359C168.559 29.0212 168.36 28.5962 167.963 28.2609C167.573 27.9256 166.964 27.6682 166.138 27.4888L163.073 26.8455C161.349 26.4867 160.074 25.8824 159.248 25.0323C158.421 24.1745 158.012 23.0905 158.02 21.7803C158.012 20.673 158.312 19.7137 158.92 18.9027C159.536 18.0839 160.39 17.4522 161.482 17.0077C162.582 16.5554 163.849 16.3292 165.284 16.3292C167.389 16.3292 169.047 16.7776 170.255 17.6744C171.472 18.5713 172.224 19.7839 172.513 21.3124ZM180.625 24.0029V34.5309H176.391V10.5739H180.532V19.6163H180.742C181.163 18.6025 181.815 17.8031 182.696 17.2182C183.585 16.6255 184.716 16.3292 186.088 16.3292C187.336 16.3292 188.424 16.5905 189.352 17.113C190.28 17.6354 190.997 18.3997 191.504 19.4057C192.019 20.4117 192.276 21.64 192.276 23.0905V34.5309H188.042V23.7456C188.042 22.5368 187.73 21.5971 187.106 20.9264C186.49 20.2479 185.624 19.9087 184.509 19.9087C183.76 19.9087 183.09 20.0725 182.497 20.4C181.912 20.7198 181.452 21.1838 181.117 21.792C180.789 22.4003 180.625 23.1373 180.625 24.0029Z" fill="#A6A6A6"/>
<rect x="12.2267" y="0.334839" width="13.1763" height="9.88225" fill="#A6A6A6"/>
<rect x="0.148422" y="25.5894" width="37.3329" height="9.88225" fill="#A6A6A6"/>
<rect x="26.5011" y="15.7073" width="10.9803" height="19.7645" fill="#A6A6A6"/>
<rect x="0.148407" y="15.7073" width="10.9803" height="19.7645" fill="#A6A6A6"/>
<path d="M327.45 9.47577V33.4327H323.59L312.302 17.1144H312.103V33.4327H307.763V9.47577H311.647L322.923 25.8058H323.134V9.47577H327.45ZM339.829 33.7837C338.075 33.7837 336.554 33.3976 335.267 32.6256C333.981 31.8535 332.982 30.7735 332.273 29.3853C331.571 27.9972 331.22 26.3751 331.22 24.5191C331.22 22.663 331.571 21.037 332.273 19.6411C332.982 18.2452 333.981 17.1612 335.267 16.3891C336.554 15.6171 338.075 15.2311 339.829 15.2311C341.584 15.2311 343.105 15.6171 344.392 16.3891C345.678 17.1612 346.673 18.2452 347.374 19.6411C348.084 21.037 348.439 22.663 348.439 24.5191C348.439 26.3751 348.084 27.9972 347.374 29.3853C346.673 30.7735 345.678 31.8535 344.392 32.6256C343.105 33.3976 341.584 33.7837 339.829 33.7837ZM339.853 30.3913C340.804 30.3913 341.6 30.1301 342.239 29.6076C342.879 29.0773 343.354 28.3676 343.666 27.4786C343.986 26.5896 344.146 25.5992 344.146 24.5074C344.146 23.4078 343.986 22.4135 343.666 21.5244C343.354 20.6276 342.879 19.9141 342.239 19.3838C341.6 18.8535 340.804 18.5883 339.853 18.5883C338.878 18.5883 338.067 18.8535 337.42 19.3838C336.78 19.9141 336.301 20.6276 335.981 21.5244C335.669 22.4135 335.513 23.4078 335.513 24.5074C335.513 25.5992 335.669 26.5896 335.981 27.4786C336.301 28.3676 336.78 29.0773 337.42 29.6076C338.067 30.1301 338.878 30.3913 339.853 30.3913ZM361.005 15.465V18.7404H350.676V15.465H361.005ZM353.226 11.1602H357.461V28.0284C357.461 28.5977 357.547 29.0344 357.718 29.3385C357.898 29.6349 358.131 29.8376 358.42 29.9468C358.709 30.056 359.028 30.1106 359.379 30.1106C359.644 30.1106 359.886 30.0911 360.104 30.0521C360.331 30.0131 360.502 29.978 360.619 29.9468L361.333 33.2573C361.107 33.3353 360.783 33.421 360.362 33.5146C359.949 33.6082 359.442 33.6628 358.841 33.6784C357.781 33.7096 356.825 33.5497 355.975 33.1988C355.125 32.8401 354.451 32.2864 353.951 31.5377C353.46 30.7891 353.218 29.8532 353.226 28.7302V11.1602ZM364.547 33.4327V15.465H368.781V33.4327H364.547ZM366.676 12.9149C366.005 12.9149 365.428 12.6926 364.944 12.2481C364.461 11.7958 364.219 11.2538 364.219 10.6221C364.219 9.98267 364.461 9.44068 364.944 8.99616C365.428 8.54385 366.005 8.3177 366.676 8.3177C367.354 8.3177 367.931 8.54385 368.407 8.99616C368.89 9.44068 369.132 9.98267 369.132 10.6221C369.132 11.2538 368.89 11.7958 368.407 12.2481C367.931 12.6926 367.354 12.9149 366.676 12.9149ZM380.973 33.7837C379.219 33.7837 377.698 33.3976 376.411 32.6256C375.124 31.8535 374.126 30.7735 373.417 29.3853C372.715 27.9972 372.364 26.3751 372.364 24.5191C372.364 22.663 372.715 21.037 373.417 19.6411C374.126 18.2452 375.124 17.1612 376.411 16.3891C377.698 15.6171 379.219 15.2311 380.973 15.2311C382.728 15.2311 384.249 15.6171 385.535 16.3891C386.822 17.1612 387.816 18.2452 388.518 19.6411C389.228 21.037 389.583 22.663 389.583 24.5191C389.583 26.3751 389.228 27.9972 388.518 29.3853C387.816 30.7735 386.822 31.8535 385.535 32.6256C384.249 33.3976 382.728 33.7837 380.973 33.7837ZM380.997 30.3913C381.948 30.3913 382.744 30.1301 383.383 29.6076C384.022 29.0773 384.498 28.3676 384.81 27.4786C385.13 26.5896 385.29 25.5992 385.29 24.5074C385.29 23.4078 385.13 22.4135 384.81 21.5244C384.498 20.6276 384.022 19.9141 383.383 19.3838C382.744 18.8535 381.948 18.5883 380.997 18.5883C380.022 18.5883 379.211 18.8535 378.564 19.3838C377.924 19.9141 377.444 20.6276 377.125 21.5244C376.813 22.4135 376.657 23.4078 376.657 24.5074C376.657 25.5992 376.813 26.5896 377.125 27.4786C377.444 28.3676 377.924 29.0773 378.564 29.6076C379.211 30.1301 380.022 30.3913 380.997 30.3913ZM397.412 22.9048V33.4327H393.177V15.465H397.224V18.5181H397.435C397.848 17.5121 398.507 16.7128 399.412 16.1201C400.324 15.5274 401.451 15.2311 402.792 15.2311C404.032 15.2311 405.113 15.4962 406.033 16.0265C406.961 16.5568 407.678 17.325 408.185 18.331C408.7 19.337 408.953 20.5574 408.945 21.9924V33.4327H404.711V22.6474C404.711 21.4465 404.399 20.5067 403.775 19.8283C403.159 19.1498 402.305 18.8106 401.213 18.8106C400.472 18.8106 399.813 18.9743 399.236 19.3019C398.667 19.6216 398.219 20.0856 397.891 20.6939C397.571 21.3022 397.412 22.0391 397.412 22.9048Z" fill="#A6A6A6"/>
<path d="M283.865 17.442V33.4133H281.292L273.766 22.5344H273.634V33.4133H270.74V17.442H273.33L280.847 28.3287H280.988V17.442H283.865Z" fill="#A6A6A6"/>
<rect x="262.577" y="11.3151" width="30.7448" height="28.5487" stroke="#A6A6A6" stroke-width="2.19606"/>
<path d="M255.617 3.62888L261.892 9.11901H291.497L285.223 3.62888H255.617Z" stroke="#A6A6A6" stroke-width="2.19606"/>
<path d="M261.479 10.2171L252.695 2.53088V33.2757L261.479 40.9618V10.2171Z" fill="#A6A6A6"/>
<path d="M517.434 9.47577V33.4327H513.094V9.47577H517.434ZM541.821 9.47577V33.4327H537.961L526.672 17.1144H526.473V33.4327H522.134V9.47577H526.017L537.294 25.8058H537.504V9.47577H541.821ZM545.497 13.1138V9.47577H564.611V13.1138H557.206V33.4327H552.902V13.1138H545.497ZM568.296 33.4327V9.47577H583.877V13.1138H572.636V19.6177H583.07V23.2557H572.636V29.7947H583.971V33.4327H568.296ZM588.305 33.4327V9.47577H597.289C599.129 9.47577 600.673 9.79551 601.921 10.435C603.177 11.0745 604.124 11.9713 604.764 13.1255C605.411 14.2718 605.734 15.6093 605.734 17.1378C605.734 18.6741 605.407 20.0076 604.752 21.1384C604.105 22.2614 603.149 23.1309 601.886 23.747C600.623 24.3553 599.071 24.6594 597.23 24.6594H590.832V21.0565H596.645C597.721 21.0565 598.603 20.9084 599.289 20.612C599.975 20.3079 600.482 19.8673 600.81 19.2902C601.145 18.7053 601.313 17.9878 601.313 17.1378C601.313 16.2878 601.145 15.5625 600.81 14.962C600.474 14.3537 599.964 13.8936 599.277 13.5817C598.591 13.2619 597.706 13.1021 596.622 13.1021H592.645V33.4327H588.305ZM600.681 22.5772L606.612 33.4327H601.769L595.943 22.5772H600.681ZM630.235 17.5589H625.86C625.736 16.8414 625.506 16.2059 625.17 15.6522C624.835 15.0907 624.418 14.615 623.919 14.2251C623.419 13.8351 622.85 13.5427 622.211 13.3477C621.579 13.145 620.897 13.0436 620.164 13.0436C618.861 13.0436 617.707 13.3711 616.701 14.0262C615.695 14.6735 614.907 15.6249 614.338 16.8804C613.769 18.1282 613.484 19.6528 613.484 21.4543C613.484 23.2869 613.769 24.831 614.338 26.0866C614.915 27.3343 615.703 28.2779 616.701 28.9174C617.707 29.5491 618.857 29.8649 620.152 29.8649C620.869 29.8649 621.54 29.7713 622.164 29.5842C622.796 29.3892 623.361 29.1046 623.86 28.7302C624.367 28.3559 624.792 27.8958 625.135 27.3499C625.486 26.804 625.728 26.1801 625.86 25.4783L630.235 25.5017C630.072 26.6403 629.717 27.7086 629.171 28.7069C628.633 29.7051 627.927 30.5863 627.054 31.3505C626.18 32.107 625.159 32.6997 623.989 33.1286C622.819 33.5497 621.521 33.7603 620.093 33.7603C617.988 33.7603 616.108 33.2729 614.455 32.2981C612.802 31.3232 611.499 29.9156 610.548 28.0752C609.597 26.2347 609.121 24.0278 609.121 21.4543C609.121 18.873 609.601 16.666 610.56 14.8333C611.519 12.9929 612.825 11.5853 614.479 10.6105C616.132 9.63564 618.003 9.14823 620.093 9.14823C621.427 9.14823 622.667 9.3354 623.813 9.70973C624.96 10.0841 625.981 10.6338 626.878 11.3591C627.775 12.0766 628.512 12.9578 629.089 14.0028C629.674 15.04 630.056 16.2254 630.235 17.5589ZM655.617 21.4543C655.617 24.0356 655.133 26.2464 654.166 28.0869C653.207 29.9195 651.897 31.3232 650.236 32.2981C648.582 33.2729 646.707 33.7603 644.609 33.7603C642.511 33.7603 640.632 33.2729 638.971 32.2981C637.317 31.3154 636.007 29.9078 635.04 28.0752C634.081 26.2347 633.601 24.0278 633.601 21.4543C633.601 18.873 634.081 16.666 635.04 14.8333C636.007 12.9929 637.317 11.5853 638.971 10.6105C640.632 9.63564 642.511 9.14823 644.609 9.14823C646.707 9.14823 648.582 9.63564 650.236 10.6105C651.897 11.5853 653.207 12.9929 654.166 14.8333C655.133 16.666 655.617 18.873 655.617 21.4543ZM651.253 21.4543C651.253 19.6372 650.969 18.1048 650.399 16.857C649.838 15.6015 649.058 14.654 648.06 14.0145C647.062 13.3672 645.911 13.0436 644.609 13.0436C643.307 13.0436 642.156 13.3672 641.158 14.0145C640.16 14.654 639.376 15.6015 638.807 16.857C638.245 18.1048 637.965 19.6372 637.965 21.4543C637.965 23.2713 638.245 24.8076 638.807 26.0632C639.376 27.3109 640.16 28.2584 641.158 28.9057C642.156 29.5452 643.307 29.8649 644.609 29.8649C645.911 29.8649 647.062 29.5452 648.06 28.9057C649.058 28.2584 649.838 27.3109 650.399 26.0632C650.969 24.8076 651.253 23.2713 651.253 21.4543ZM659.72 9.47577H665.03L672.143 26.8352H672.423L679.535 9.47577H684.846V33.4327H680.682V16.974H680.46L673.839 33.3626H670.727L664.106 16.9389H663.884V33.4327H659.72V9.47577Z" fill="#A6A6A6"/>
<rect x="466.81" y="4.72693" width="32.9408" height="32.9408" rx="3.29408" fill="#A6A6A6"/>
<rect x="471.202" y="12.4135" width="2.19606" height="13.1763" fill="white"/>
<rect x="476.692" y="9.11902" width="2.19606" height="19.7645" fill="white"/>
<rect x="482.183" y="9.11902" width="2.19606" height="19.7645" fill="white"/>
<rect x="487.673" y="9.11902" width="2.19606" height="19.7645" fill="white"/>
<path d="M472.3 31.0796C475.411 33.5654 484.379 37.0455 495.359 31.0796" stroke="white" stroke-width="2.19606" stroke-linecap="round"/>
<rect x="493.163" y="12.4135" width="2.19606" height="13.1763" fill="white"/>
<path fill-rule="evenodd" clip-rule="evenodd" d="M761.16 6.28308C763.219 7.27947 764.376 8.63086 764.376 10.04H753.395L742.415 10.04C742.415 8.63086 743.572 7.27947 745.631 6.28308C747.69 5.28669 750.483 4.72693 753.395 4.72693C756.308 4.72693 759.1 5.28669 761.16 6.28308ZM745.631 36.1118C743.572 35.1154 742.415 33.764 742.415 32.3549H753.395L764.376 32.3549C764.376 33.764 763.219 35.1154 761.16 36.1118C759.1 37.1081 756.308 37.6679 753.395 37.6679C750.483 37.6679 747.69 37.1081 745.631 36.1118ZM761.082 23.854H767.67V28.1045H761.082V23.854ZM749.003 14.2906H742.415V18.541H749.003V14.2906ZM754.493 14.2906H767.67V18.541H754.493V14.2906ZM755.591 28.1045V23.854H742.415V28.1045H755.591Z" fill="#A6A6A6"/>
<path d="M787.493 33.7486C786.082 33.7486 784.819 33.3859 783.703 32.6607C782.588 31.9354 781.707 30.8826 781.06 29.5023C780.412 28.122 780.089 26.4453 780.089 24.4723C780.089 22.4759 780.416 20.7914 781.071 19.4188C781.734 18.0385 782.627 16.9974 783.75 16.2956C784.873 15.5859 786.125 15.2311 787.505 15.2311C788.558 15.2311 789.424 15.4104 790.102 15.7692C790.781 16.1201 791.319 16.5451 791.716 17.0442C792.114 17.5355 792.422 17.9995 792.64 18.4362H792.816V9.47577H797.062V33.4327H792.898V30.6019H792.64C792.422 31.0386 792.106 31.5026 791.693 31.9939C791.28 32.4774 790.734 32.8907 790.055 33.2339C789.377 33.577 788.523 33.7486 787.493 33.7486ZM788.675 30.2743C789.572 30.2743 790.336 30.0326 790.968 29.5491C791.599 29.0578 792.079 28.3754 792.407 27.502C792.734 26.6286 792.898 25.6109 792.898 24.4489C792.898 23.2869 792.734 22.277 792.407 21.4192C792.087 20.5613 791.611 19.8946 790.979 19.4188C790.356 18.9431 789.587 18.7053 788.675 18.7053C787.731 18.7053 786.944 18.9509 786.312 19.4422C785.68 19.9335 785.205 20.612 784.885 21.4777C784.565 22.3433 784.405 23.3337 784.405 24.4489C784.405 25.5719 784.565 26.574 784.885 27.4552C785.212 28.3286 785.692 29.0188 786.324 29.5257C786.963 30.0248 787.747 30.2743 788.675 30.2743ZM809.529 33.7837C807.728 33.7837 806.172 33.4093 804.862 32.6607C803.559 31.9042 802.557 30.8358 801.855 29.4555C801.153 28.0674 800.803 26.4336 800.803 24.5542C800.803 22.7059 801.153 21.0838 801.855 19.6879C802.565 18.2842 803.555 17.1924 804.827 16.4125C806.098 15.6249 807.591 15.2311 809.307 15.2311C810.414 15.2311 811.459 15.4104 812.442 15.7692C813.432 16.1201 814.306 16.666 815.062 17.4068C815.826 18.1477 816.427 19.0913 816.864 20.2377C817.3 21.3763 817.519 22.7332 817.519 24.3085V25.607H802.791V22.7527H813.46C813.452 21.9417 813.276 21.2203 812.933 20.5886C812.59 19.9491 812.11 19.4461 811.494 19.0796C810.886 18.7131 810.176 18.5298 809.365 18.5298C808.5 18.5298 807.739 18.7404 807.084 19.1615C806.429 19.5748 805.918 20.1207 805.552 20.7992C805.193 21.4699 805.01 22.2068 805.002 23.0101V25.5017C805.002 26.5467 805.193 27.4435 805.575 28.1922C805.957 28.933 806.492 29.5023 807.178 29.9C807.864 30.2899 808.667 30.4849 809.588 30.4849C810.204 30.4849 810.761 30.3991 811.26 30.2276C811.759 30.0482 812.192 29.7869 812.559 29.4438C812.925 29.1007 813.202 28.6757 813.389 28.1688L817.343 28.6133C817.094 29.6583 816.618 30.5707 815.916 31.3505C815.222 32.1226 814.333 32.7231 813.249 33.152C812.165 33.5731 810.925 33.7837 809.529 33.7837ZM835.302 20.2143L831.442 20.6354C831.333 20.2455 831.142 19.879 830.869 19.5358C830.604 19.1927 830.245 18.9158 829.792 18.7053C829.34 18.4947 828.786 18.3894 828.131 18.3894C827.25 18.3894 826.509 18.5805 825.909 18.9626C825.316 19.3448 825.024 19.84 825.031 20.4482C825.024 20.9707 825.215 21.3958 825.605 21.7233C826.002 22.0508 826.657 22.3199 827.57 22.5304L830.635 23.1855C832.335 23.552 833.598 24.133 834.425 24.9285C835.259 25.7239 835.68 26.765 835.688 28.0518C835.68 29.1826 835.349 30.1808 834.694 31.0464C834.047 31.9042 833.146 32.5749 831.992 33.0584C830.837 33.5419 829.512 33.7837 828.014 33.7837C825.815 33.7837 824.045 33.3236 822.704 32.4033C821.362 31.4753 820.563 30.1847 820.306 28.5314L824.435 28.1337C824.622 28.9447 825.02 29.5569 825.628 29.9702C826.236 30.3835 827.028 30.5902 828.003 30.5902C829.009 30.5902 829.816 30.3835 830.424 29.9702C831.04 29.5569 831.348 29.0461 831.348 28.4378C831.348 27.9231 831.149 27.4981 830.752 27.1628C830.362 26.8274 829.753 26.5701 828.927 26.3907L825.862 25.7473C824.139 25.3886 822.864 24.7842 822.037 23.9342C821.21 23.0763 820.801 21.9924 820.809 20.6822C820.801 19.5748 821.101 18.6156 821.709 17.8046C822.325 16.9857 823.179 16.354 824.271 15.9095C825.371 15.4572 826.638 15.2311 828.073 15.2311C830.179 15.2311 831.836 15.6795 833.044 16.5763C834.261 17.4731 835.014 18.6858 835.302 20.2143ZM847.017 33.7837C845.224 33.7837 843.684 33.3898 842.397 32.6022C841.118 31.8146 840.131 30.7267 839.437 29.3385C838.751 27.9426 838.408 26.3361 838.408 24.5191C838.408 22.6942 838.759 21.0838 839.461 19.6879C840.163 18.2842 841.153 17.1924 842.432 16.4125C843.719 15.6249 845.239 15.2311 846.994 15.2311C848.452 15.2311 849.743 15.5001 850.866 16.0382C851.997 16.5685 852.897 17.3211 853.568 18.2959C854.239 19.2629 854.621 20.3937 854.715 21.6882H850.667C850.503 20.8226 850.113 20.1012 849.497 19.5241C848.889 18.9392 848.074 18.6468 847.052 18.6468C846.187 18.6468 845.426 18.8808 844.771 19.3487C844.116 19.8088 843.606 20.4716 843.239 21.3373C842.88 22.2029 842.701 23.2401 842.701 24.4489C842.701 25.6732 842.88 26.726 843.239 27.6073C843.598 28.4807 844.101 29.1553 844.748 29.631C845.403 30.0989 846.171 30.3328 847.052 30.3328C847.676 30.3328 848.234 30.2159 848.725 29.9819C849.224 29.7402 849.642 29.3931 849.977 28.9408C850.312 28.4885 850.542 27.9387 850.667 27.2914H854.715C854.613 28.5626 854.239 29.6895 853.592 30.6721C852.944 31.6469 852.063 32.4111 850.948 32.9648C849.833 33.5107 848.523 33.7837 847.017 33.7837ZM858.192 33.4327V15.465H862.298V18.4596H862.485C862.812 17.4224 863.374 16.6231 864.169 16.0616C864.972 15.4923 865.889 15.2077 866.918 15.2077C867.152 15.2077 867.413 15.2194 867.702 15.2428C867.998 15.2584 868.244 15.2856 868.439 15.3246V19.22C868.26 19.1576 867.975 19.103 867.585 19.0562C867.203 19.0016 866.832 18.9743 866.474 18.9743C865.702 18.9743 865.008 19.142 864.391 19.4773C863.783 19.8049 863.304 20.2611 862.953 20.846C862.602 21.4309 862.426 22.1054 862.426 22.8697V33.4327H858.192ZM871.252 33.4327V15.465H875.487V33.4327H871.252ZM873.381 12.9149C872.71 12.9149 872.133 12.6926 871.65 12.2481C871.166 11.7958 870.925 11.2538 870.925 10.6221C870.925 9.98267 871.166 9.44068 871.65 8.99616C872.133 8.54385 872.71 8.3177 873.381 8.3177C874.06 8.3177 874.637 8.54385 875.112 8.99616C875.596 9.44068 875.838 9.98267 875.838 10.6221C875.838 11.2538 875.596 11.7958 875.112 12.2481C874.637 12.6926 874.06 12.9149 873.381 12.9149ZM879.841 40.1706V15.465H884.006V18.4362H884.251C884.47 17.9995 884.778 17.5355 885.175 17.0442C885.573 16.5451 886.111 16.1201 886.79 15.7692C887.468 15.4104 888.334 15.2311 889.387 15.2311C890.775 15.2311 892.026 15.5859 893.142 16.2956C894.265 16.9974 895.154 18.0385 895.809 19.4188C896.472 20.7914 896.803 22.4759 896.803 24.4723C896.803 26.4453 896.479 28.122 895.832 29.5023C895.185 30.8826 894.304 31.9354 893.188 32.6607C892.073 33.3859 890.81 33.7486 889.398 33.7486C888.369 33.7486 887.515 33.577 886.836 33.2339C886.158 32.8907 885.612 32.4774 885.199 31.9939C884.793 31.5026 884.477 31.0386 884.251 30.6019H884.076V40.1706H879.841ZM883.994 24.4489C883.994 25.6109 884.158 26.6286 884.485 27.502C884.821 28.3754 885.3 29.0578 885.924 29.5491C886.556 30.0326 887.32 30.2743 888.217 30.2743C889.153 30.2743 889.936 30.0248 890.568 29.5257C891.2 29.0188 891.675 28.3286 891.995 27.4552C892.323 26.574 892.487 25.5719 892.487 24.4489C892.487 23.3337 892.327 22.3433 892.007 21.4777C891.687 20.612 891.211 19.9335 890.58 19.4422C889.948 18.9509 889.16 18.7053 888.217 18.7053C887.312 18.7053 886.544 18.9431 885.912 19.4188C885.281 19.8946 884.801 20.5613 884.474 21.4192C884.154 22.277 883.994 23.2869 883.994 24.4489ZM909.401 15.465V18.7404H899.072V15.465H909.401ZM901.622 11.1602H905.857V28.0284C905.857 28.5977 905.943 29.0344 906.114 29.3385C906.294 29.6349 906.528 29.8376 906.816 29.9468C907.105 30.056 907.425 30.1106 907.775 30.1106C908.041 30.1106 908.282 30.0911 908.501 30.0521C908.727 30.0131 908.898 29.978 909.015 29.9468L909.729 33.2573C909.503 33.3353 909.179 33.421 908.758 33.5146C908.345 33.6082 907.838 33.6628 907.237 33.6784C906.177 33.7096 905.221 33.5497 904.371 33.1988C903.521 32.8401 902.847 32.2864 902.348 31.5377C901.856 30.7891 901.615 29.8532 901.622 28.7302V11.1602Z" fill="#A6A6A6"/>
<circle cx="982.883" cy="21.1973" r="16.4704" fill="#A6A6A6"/>
<path d="M989.471 21.1974C989.471 25.4424 986.03 28.8836 981.785 28.8836C977.54 28.8836 974.099 25.4424 974.099 21.1974C974.099 16.9525 977.54 13.5112 981.785 13.5112C983.936 13.5112 985.88 14.3946 987.275 15.8182" stroke="white" stroke-width="2.19606"/>
<path d="M985.079 23.3933L989.471 21.1973L992.216 25.0404" stroke="white" stroke-width="2.19606"/>
<path d="M1020.32 40.545C1018.8 40.545 1017.5 40.3383 1016.4 39.925C1015.31 39.5195 1014.44 38.9736 1013.77 38.2873C1013.11 37.601 1012.65 36.8407 1012.39 36.0062L1016.21 35.0821C1016.38 35.4331 1016.63 35.7801 1016.95 36.1232C1017.28 36.4742 1017.72 36.7627 1018.28 36.9889C1018.84 37.2228 1019.54 37.3398 1020.39 37.3398C1021.59 37.3398 1022.59 37.0473 1023.38 36.4625C1024.16 35.8854 1024.56 34.9339 1024.56 33.6082V30.2042H1024.35C1024.13 30.6409 1023.81 31.0893 1023.39 31.5494C1022.98 32.0095 1022.43 32.3955 1021.74 32.7075C1021.06 33.0194 1020.21 33.1754 1019.18 33.1754C1017.8 33.1754 1016.55 32.8518 1015.42 32.2045C1014.31 31.5494 1013.42 30.5746 1012.76 29.28C1012.1 27.9777 1011.77 26.3478 1011.77 24.3904C1011.77 22.4174 1012.1 20.7524 1012.76 19.3955C1013.42 18.0307 1014.31 16.9974 1015.43 16.2956C1016.56 15.5859 1017.81 15.2311 1019.19 15.2311C1020.24 15.2311 1021.11 15.4104 1021.79 15.7692C1022.47 16.1201 1023.02 16.5451 1023.42 17.0442C1023.83 17.5355 1024.14 17.9995 1024.35 18.4362H1024.58V15.465H1028.76V33.7252C1028.76 35.2615 1028.39 36.5326 1027.66 37.5386C1026.93 38.5447 1025.92 39.2972 1024.65 39.7963C1023.38 40.2954 1021.94 40.545 1020.32 40.545ZM1020.36 29.8532C1021.26 29.8532 1022.02 29.6349 1022.65 29.1982C1023.28 28.7614 1023.76 28.1337 1024.09 27.3148C1024.42 26.496 1024.58 25.5134 1024.58 24.367C1024.58 23.2362 1024.42 22.2458 1024.09 21.3958C1023.77 20.5457 1023.29 19.8868 1022.66 19.4188C1022.04 18.9431 1021.27 18.7053 1020.36 18.7053C1019.42 18.7053 1018.63 18.9509 1018 19.4422C1017.36 19.9335 1016.89 20.6081 1016.57 21.466C1016.25 22.316 1016.09 23.283 1016.09 24.367C1016.09 25.4666 1016.25 26.4297 1016.57 27.2563C1016.9 28.0752 1017.38 28.7147 1018.01 29.1748C1018.65 29.6271 1019.43 29.8532 1020.36 29.8532ZM1033.1 33.4327V15.465H1037.2V18.4596H1037.39C1037.72 17.4224 1038.28 16.6231 1039.08 16.0616C1039.88 15.4923 1040.79 15.2077 1041.82 15.2077C1042.06 15.2077 1042.32 15.2194 1042.61 15.2428C1042.9 15.2584 1043.15 15.2856 1043.34 15.3246V19.22C1043.17 19.1576 1042.88 19.103 1042.49 19.0562C1042.11 19.0016 1041.74 18.9743 1041.38 18.9743C1040.61 18.9743 1039.91 19.142 1039.3 19.4773C1038.69 19.8049 1038.21 20.2611 1037.86 20.846C1037.51 21.4309 1037.33 22.1054 1037.33 22.8697V33.4327H1033.1ZM1051.01 33.7954C1049.87 33.7954 1048.84 33.5926 1047.93 33.1871C1047.03 32.7738 1046.31 32.1655 1045.78 31.3622C1045.26 30.559 1044.99 29.5686 1044.99 28.391C1044.99 27.3772 1045.18 26.5389 1045.56 25.876C1045.93 25.2131 1046.44 24.6828 1047.09 24.2851C1047.74 23.8874 1048.46 23.5871 1049.28 23.3844C1050.09 23.1738 1050.94 23.0218 1051.81 22.9282C1052.87 22.819 1053.72 22.7215 1054.38 22.6357C1055.03 22.5421 1055.51 22.4018 1055.8 22.2146C1056.11 22.0196 1056.26 21.7194 1056.26 21.3139V21.2437C1056.26 20.3625 1056 19.6801 1055.48 19.1966C1054.95 18.7131 1054.2 18.4713 1053.22 18.4713C1052.18 18.4713 1051.36 18.6975 1050.75 19.1498C1050.15 19.6021 1049.74 20.1363 1049.53 20.7524L1045.58 20.1909C1045.89 19.0991 1046.41 18.1867 1047.12 17.4536C1047.84 16.7128 1048.72 16.1591 1049.76 15.7925C1050.79 15.4182 1051.94 15.2311 1053.19 15.2311C1054.06 15.2311 1054.92 15.3324 1055.78 15.5352C1056.64 15.738 1057.42 16.0733 1058.13 16.5412C1058.84 17.0013 1059.41 17.6291 1059.84 18.4245C1060.28 19.22 1060.49 20.2143 1060.49 21.4075V33.4327H1056.42V30.9645H1056.28C1056.03 31.4636 1055.66 31.9315 1055.19 32.3682C1054.73 32.7972 1054.15 33.1442 1053.45 33.4093C1052.76 33.6667 1051.94 33.7954 1051.01 33.7954ZM1052.11 30.6838C1052.96 30.6838 1053.69 30.5161 1054.32 30.1808C1054.94 29.8376 1055.42 29.3853 1055.76 28.8238C1056.1 28.2623 1056.27 27.6502 1056.27 26.9873V24.87C1056.14 24.9792 1055.91 25.0806 1055.59 25.1741C1055.28 25.2677 1054.93 25.3496 1054.54 25.4198C1054.15 25.49 1053.76 25.5524 1053.38 25.607C1053 25.6615 1052.67 25.7083 1052.39 25.7473C1051.76 25.8331 1051.19 25.9735 1050.69 26.1684C1050.19 26.3634 1049.8 26.6364 1049.51 26.9873C1049.22 27.3304 1049.08 27.7749 1049.08 28.3208C1049.08 29.1007 1049.36 29.6895 1049.93 30.0872C1050.5 30.4849 1051.23 30.6838 1052.11 30.6838ZM1064.75 33.4327V15.465H1068.8V18.5181H1069.01C1069.38 17.4887 1070 16.6855 1070.87 16.1084C1071.74 15.5235 1072.77 15.2311 1073.97 15.2311C1075.19 15.2311 1076.21 15.5274 1077.05 16.1201C1077.89 16.705 1078.48 17.5043 1078.82 18.5181H1079.01C1079.41 17.5199 1080.08 16.7245 1081.02 16.1318C1081.97 15.5313 1083.1 15.2311 1084.4 15.2311C1086.06 15.2311 1087.41 15.7536 1088.45 16.7986C1089.5 17.8436 1090.02 19.3682 1090.02 21.3724V33.4327H1085.77V22.0274C1085.77 20.9123 1085.48 20.0973 1084.88 19.5826C1084.29 19.0601 1083.57 18.7989 1082.71 18.7989C1081.69 18.7989 1080.89 19.1186 1080.31 19.7581C1079.74 20.3898 1079.46 21.2125 1079.46 22.2263V33.4327H1075.3V21.852C1075.3 20.924 1075.02 20.1831 1074.46 19.6294C1073.91 19.0757 1073.18 18.7989 1072.29 18.7989C1071.68 18.7989 1071.12 18.9548 1070.62 19.2668C1070.12 19.5709 1069.73 20.0037 1069.43 20.5652C1069.13 21.1189 1068.99 21.7662 1068.99 22.5071V33.4327H1064.75ZM1094.31 33.4327V15.465H1098.36V18.5181H1098.57C1098.95 17.4887 1099.57 16.6855 1100.43 16.1084C1101.3 15.5235 1102.33 15.2311 1103.53 15.2311C1104.75 15.2311 1105.77 15.5274 1106.61 16.1201C1107.45 16.705 1108.04 17.5043 1108.39 18.5181H1108.57C1108.97 17.5199 1109.64 16.7245 1110.59 16.1318C1111.54 15.5313 1112.66 15.2311 1113.97 15.2311C1115.62 15.2311 1116.97 15.7536 1118.01 16.7986C1119.06 17.8436 1119.58 19.3682 1119.58 21.3724V33.4327H1115.34V22.0274C1115.34 20.9123 1115.04 20.0973 1114.45 19.5826C1113.85 19.0601 1113.13 18.7989 1112.27 18.7989C1111.25 18.7989 1110.45 19.1186 1109.87 19.7581C1109.3 20.3898 1109.02 21.2125 1109.02 22.2263V33.4327H1104.87V21.852C1104.87 20.924 1104.59 20.1831 1104.02 19.6294C1103.47 19.0757 1102.75 18.7989 1101.85 18.7989C1101.24 18.7989 1100.69 18.9548 1100.19 19.2668C1099.69 19.5709 1099.29 20.0037 1098.99 20.5652C1098.7 21.1189 1098.55 21.7662 1098.55 22.5071V33.4327H1094.31ZM1129.05 33.7954C1127.91 33.7954 1126.88 33.5926 1125.97 33.1871C1125.07 32.7738 1124.35 32.1655 1123.82 31.3622C1123.3 30.559 1123.04 29.5686 1123.04 28.391C1123.04 27.3772 1123.22 26.5389 1123.6 25.876C1123.97 25.2131 1124.48 24.6828 1125.13 24.2851C1125.78 23.8874 1126.51 23.5871 1127.32 23.3844C1128.14 23.1738 1128.98 23.0218 1129.86 22.9282C1130.91 22.819 1131.76 22.7215 1132.42 22.6357C1133.07 22.5421 1133.55 22.4018 1133.84 22.2146C1134.15 22.0196 1134.3 21.7194 1134.3 21.3139V21.2437C1134.3 20.3625 1134.04 19.6801 1133.52 19.1966C1132.99 18.7131 1132.24 18.4713 1131.26 18.4713C1130.22 18.4713 1129.4 18.6975 1128.79 19.1498C1128.19 19.6021 1127.79 20.1363 1127.57 20.7524L1123.62 20.1909C1123.93 19.0991 1124.45 18.1867 1125.16 17.4536C1125.88 16.7128 1126.76 16.1591 1127.8 15.7925C1128.83 15.4182 1129.98 15.2311 1131.24 15.2311C1132.1 15.2311 1132.96 15.3324 1133.82 15.5352C1134.68 15.738 1135.46 16.0733 1136.17 16.5412C1136.88 17.0013 1137.45 17.6291 1137.88 18.4245C1138.32 19.22 1138.54 20.2143 1138.54 21.4075V33.4327H1134.46V30.9645H1134.32C1134.07 31.4636 1133.7 31.9315 1133.24 32.3682C1132.78 32.7972 1132.2 33.1442 1131.49 33.4093C1130.8 33.6667 1129.98 33.7954 1129.05 33.7954ZM1130.15 30.6838C1131 30.6838 1131.73 30.5161 1132.36 30.1808C1132.98 29.8376 1133.46 29.3853 1133.8 28.8238C1134.14 28.2623 1134.31 27.6502 1134.31 26.9873V24.87C1134.18 24.9792 1133.95 25.0806 1133.63 25.1741C1133.32 25.2677 1132.97 25.3496 1132.58 25.4198C1132.19 25.49 1131.81 25.5524 1131.42 25.607C1131.04 25.6615 1130.71 25.7083 1130.43 25.7473C1129.8 25.8331 1129.23 25.9735 1128.73 26.1684C1128.23 26.3634 1127.84 26.6364 1127.55 26.9873C1127.26 27.3304 1127.12 27.7749 1127.12 28.3208C1127.12 29.1007 1127.4 29.6895 1127.97 30.0872C1128.54 30.4849 1129.27 30.6838 1130.15 30.6838ZM1142.79 33.4327V15.465H1146.9V18.4596H1147.09C1147.41 17.4224 1147.98 16.6231 1148.77 16.0616C1149.57 15.4923 1150.49 15.2077 1151.52 15.2077C1151.75 15.2077 1152.01 15.2194 1152.3 15.2428C1152.6 15.2584 1152.85 15.2856 1153.04 15.3246V19.22C1152.86 19.1576 1152.58 19.103 1152.19 19.0562C1151.8 19.0016 1151.43 18.9743 1151.08 18.9743C1150.3 18.9743 1149.61 19.142 1148.99 19.4773C1148.38 19.8049 1147.91 20.2611 1147.55 20.846C1147.2 21.4309 1147.03 22.1054 1147.03 22.8697V33.4327H1142.79ZM1160.09 9.47577V33.4327H1155.85V9.47577H1160.09ZM1167.07 40.1706C1166.5 40.1706 1165.96 40.1238 1165.47 40.0303C1164.99 39.9445 1164.6 39.8431 1164.31 39.7261L1165.3 36.4274C1165.91 36.6067 1166.46 36.6925 1166.95 36.6847C1167.43 36.6769 1167.85 36.5248 1168.22 36.2285C1168.6 35.94 1168.91 35.4564 1169.17 34.778L1169.53 33.8071L1163.02 15.465H1167.51L1171.65 29.0344H1171.84L1175.99 15.465H1180.49L1173.3 35.6085C1172.96 36.5599 1172.52 37.3749 1171.96 38.0533C1171.41 38.7396 1170.73 39.2621 1169.93 39.6208C1169.13 39.9874 1168.18 40.1706 1167.07 40.1706Z" fill="#A6A6A6"/>
</svg>
