<svg width="377" height="432" viewBox="0 0 377 432" fill="none" xmlns="http://www.w3.org/2000/svg">
<g clip-path="url(#clip0_0_499)">
<rect x="0.449951" y="0.703857" width="376.151" height="430.491" rx="20.0228" fill="#F9F8FE"/>
<rect x="20.4728" y="98.8157" width="353.403" height="351.401" rx="10.0114" fill="#E9EFFC"/>
<rect x="38.4933" y="116.836" width="326.372" height="314.358" fill="#F5FAFA"/>
<rect x="68.0271" y="165.392" width="312.356" height="105.12" rx="9.51085" stroke="#EFF2F7" stroke-width="1.00114"/>
<g filter="url(#filter0_d_0_499)">
<rect x="85.547" y="182.912" width="70.0799" height="70.0799" rx="10.0114" fill="#0F8CE9"/>
</g>
<path fill-rule="evenodd" clip-rule="evenodd" d="M131.185 217.952C131.455 217.065 131.6 216.13 131.6 215.162C131.6 209.515 126.669 204.937 120.587 204.937C114.505 204.937 109.575 209.515 109.575 215.162C109.575 216.13 109.719 217.065 109.989 217.952C106.435 217.998 103.568 220.894 103.568 224.459C103.568 228.053 106.481 230.966 110.075 230.966H131.099C134.693 230.966 137.606 228.053 137.606 224.459C137.606 220.894 134.739 217.998 131.185 217.952Z" fill="#DBE5FA"/>
<rect x="185.661" y="239.977" width="190.217" height="10.0114" rx="5.00571" fill="#DBE5FA"/>
<rect x="185.661" y="239.977" width="92.105" height="10.0114" rx="5.00571" fill="#54BD95"/>
<rect x="185.661" y="217.951" width="104.119" height="6.00685" rx="3.00342" fill="#DBE5FA"/>
<rect x="185.661" y="185.915" width="190.217" height="16.0183" rx="8.00913" fill="#DBE5FA"/>
<rect x="27.9813" y="297.542" width="347.396" height="105.12" rx="9.51085" fill="white" stroke="#EFF2F7" stroke-width="1.00114"/>
<g filter="url(#filter1_d_0_499)">
<rect x="45.5015" y="315.062" width="70.0799" height="70.0799" rx="10.0114" fill="white"/>
</g>
<rect x="145.615" y="372.127" width="228.26" height="10.0114" rx="5.00571" fill="#DBE5FA"/>
<rect x="145.615" y="372.127" width="163.386" height="10.0114" rx="5.00571" fill="#54BD95"/>
<rect x="145.615" y="350.103" width="124.942" height="6.00685" rx="3.00342" fill="#DBE5FA"/>
<rect x="145.615" y="318.066" width="228.26" height="16.0183" rx="8.00913" fill="#DBE5FA"/>
<g clip-path="url(#clip1_0_499)">
<path d="M87.4999 346.651H73.5827C72.793 346.651 72.1528 347.291 72.1528 348.081C72.1528 348.871 72.793 349.511 73.5827 349.511V350.464C73.5827 351.254 74.2228 351.894 75.0125 351.894C75.8021 351.894 76.4423 351.254 76.4423 350.464V349.511H84.6401V350.464C84.6401 351.254 85.2803 351.894 86.07 351.894C86.8596 351.894 87.4998 351.254 87.4998 350.464V349.511C88.2894 349.511 88.9296 348.871 88.9296 348.081C88.9296 347.291 88.2896 346.651 87.4999 346.651Z" fill="#54BD95"/>
<path d="M80.5412 339.978C78.9618 339.978 77.6815 341.259 77.6815 342.838H83.4009C83.4009 341.259 82.1206 339.978 80.5412 339.978Z" fill="#54BD95"/>
<path d="M80.5411 330.079C69.4828 330.079 60.5183 339.044 60.5183 350.102C60.5183 361.16 69.4828 370.125 80.5411 370.125C91.5995 370.125 100.564 361.16 100.564 350.102C100.564 339.044 91.5995 330.079 80.5411 330.079ZM92.7426 358.662C92.7426 360.241 91.4622 361.521 89.8829 361.521H71.1994C69.6201 361.521 68.3397 360.241 68.3397 358.662V345.698C68.3397 344.118 69.6201 342.838 71.1994 342.838H74.8216C74.8217 339.679 77.3824 337.119 80.5411 337.119C83.6999 337.119 86.2606 339.679 86.2606 342.838H89.8828C91.4622 342.838 92.7425 344.118 92.7425 345.698V358.662H92.7426Z" fill="#54BD95"/>
</g>
<mask id="path-20-inside-1_0_499" fill="white">
<path d="M275.764 116.836C275.764 104.346 273.304 91.9789 268.524 80.4398C263.745 68.9007 256.739 58.416 247.907 49.5844C239.076 40.7528 228.591 33.7471 217.052 28.9675C205.513 24.1878 193.145 21.7278 180.655 21.7278C168.166 21.7278 155.798 24.1878 144.259 28.9675C132.72 33.7471 122.235 40.7528 113.404 49.5844C104.572 58.416 97.5663 68.9007 92.7867 80.4398C88.007 91.9789 85.547 104.346 85.547 116.836L119.599 116.836C119.599 108.818 121.178 100.879 124.247 93.4709C127.315 86.0632 131.812 79.3324 137.482 73.6627C143.152 67.9931 149.882 63.4957 157.29 60.4273C164.698 57.359 172.637 55.7797 180.655 55.7797C188.673 55.7797 196.613 57.359 204.021 60.4273C211.428 63.4957 218.159 67.9931 223.829 73.6627C229.499 79.3324 233.996 86.0632 237.064 93.4709C240.133 100.879 241.712 108.818 241.712 116.836H275.764Z"/>
</mask>
<path d="M275.764 116.836C275.764 104.346 273.304 91.9789 268.524 80.4398C263.745 68.9007 256.739 58.416 247.907 49.5844C239.076 40.7528 228.591 33.7471 217.052 28.9675C205.513 24.1878 193.145 21.7278 180.655 21.7278C168.166 21.7278 155.798 24.1878 144.259 28.9675C132.72 33.7471 122.235 40.7528 113.404 49.5844C104.572 58.416 97.5663 68.9007 92.7867 80.4398C88.007 91.9789 85.547 104.346 85.547 116.836L119.599 116.836C119.599 108.818 121.178 100.879 124.247 93.4709C127.315 86.0632 131.812 79.3324 137.482 73.6627C143.152 67.9931 149.882 63.4957 157.29 60.4273C164.698 57.359 172.637 55.7797 180.655 55.7797C188.673 55.7797 196.613 57.359 204.021 60.4273C211.428 63.4957 218.159 67.9931 223.829 73.6627C229.499 79.3324 233.996 86.0632 237.064 93.4709C240.133 100.879 241.712 108.818 241.712 116.836H275.764Z" stroke="#52459F" stroke-width="68.0776" mask="url(#path-20-inside-1_0_499)"/>
<mask id="path-21-inside-2_0_499" fill="white">
<path d="M275.764 116.836C275.764 91.6119 265.744 67.4207 247.907 49.5844C230.071 31.7481 205.88 21.7278 180.655 21.7278C155.431 21.7278 131.24 31.7481 113.404 49.5844C95.5673 67.4207 85.547 91.6119 85.547 116.836L119.616 116.836C119.616 100.648 126.047 85.1218 137.494 73.6747C148.941 62.2275 164.467 55.7966 180.655 55.7966C196.844 55.7966 212.37 62.2276 223.817 73.6747C235.264 85.1218 241.695 100.648 241.695 116.836H275.764Z"/>
</mask>
<path d="M275.764 116.836C275.764 91.6119 265.744 67.4207 247.907 49.5844C230.071 31.7481 205.88 21.7278 180.655 21.7278C155.431 21.7278 131.24 31.7481 113.404 49.5844C95.5673 67.4207 85.547 91.6119 85.547 116.836L119.616 116.836C119.616 100.648 126.047 85.1218 137.494 73.6747C148.941 62.2275 164.467 55.7966 180.655 55.7966C196.844 55.7966 212.37 62.2276 223.817 73.6747C235.264 85.1218 241.695 100.648 241.695 116.836H275.764Z" stroke="#0F8CE9" stroke-width="68.0776" mask="url(#path-21-inside-2_0_499)"/>
<mask id="path-22-inside-3_0_499" fill="white">
<path d="M275.764 116.836C275.764 97.2048 269.689 78.0543 258.373 62.0126C247.057 45.9709 231.054 33.824 212.56 27.2386L201.131 59.3334C213 63.5598 223.271 71.3556 230.534 81.651C237.796 91.9464 241.695 104.237 241.695 116.836H275.764Z"/>
</mask>
<path d="M275.764 116.836C275.764 97.2048 269.689 78.0543 258.373 62.0126C247.057 45.9709 231.054 33.824 212.56 27.2386L201.131 59.3334C213 63.5598 223.271 71.3556 230.534 81.651C237.796 91.9464 241.695 104.237 241.695 116.836H275.764Z" stroke="#54BD95" stroke-width="68.0776" mask="url(#path-22-inside-3_0_499)"/>
<mask id="path-23-inside-4_0_499" fill="white">
<path d="M275.764 116.836C275.764 98.0613 270.207 79.7065 259.794 64.0842C249.38 48.462 234.576 36.2713 217.246 29.0481L204.139 60.4947C215.261 65.1305 224.762 72.9543 231.445 82.9805C238.129 93.0067 241.695 104.787 241.695 116.836L275.764 116.836Z"/>
</mask>
<path d="M275.764 116.836C275.764 98.0613 270.207 79.7065 259.794 64.0842C249.38 48.462 234.576 36.2713 217.246 29.0481L204.139 60.4947C215.261 65.1305 224.762 72.9543 231.445 82.9805C238.129 93.0067 241.695 104.787 241.695 116.836L275.764 116.836Z" stroke="#FEE900" stroke-width="68.0776" mask="url(#path-23-inside-4_0_499)"/>
<path d="M94.0908 140.987C93.6362 140.98 93.1882 140.897 92.7469 140.738C92.3089 140.579 91.9107 140.313 91.5524 139.942C91.194 139.57 90.907 139.071 90.6913 138.444C90.4789 137.817 90.3728 137.033 90.3728 136.094C90.3728 135.205 90.4607 134.415 90.6366 133.725C90.8157 133.035 91.0729 132.453 91.408 131.978C91.7432 131.5 92.148 131.137 92.6225 130.888C93.097 130.639 93.6296 130.515 94.2202 130.515C94.8274 130.515 95.3666 130.634 95.8378 130.873C96.309 131.112 96.6906 131.442 96.9826 131.864C97.2779 132.285 97.4654 132.765 97.545 133.302H96.0269C95.9241 132.877 95.72 132.531 95.4147 132.262C95.1095 131.993 94.7113 131.859 94.2202 131.859C93.4736 131.859 92.8913 132.184 92.4732 132.834C92.0584 133.485 91.8494 134.389 91.846 135.547H91.9207C92.0966 135.258 92.3122 135.013 92.5677 134.81C92.8266 134.605 93.1152 134.447 93.4338 134.337C93.7556 134.225 94.0941 134.168 94.4491 134.168C95.0398 134.168 95.574 134.313 96.0518 134.601C96.533 134.887 96.9162 135.281 97.2016 135.786C97.4869 136.29 97.6296 136.868 97.6296 137.518C97.6296 138.168 97.482 138.757 97.1866 139.285C96.8946 139.812 96.4832 140.23 95.9523 140.539C95.4214 140.844 94.8009 140.994 94.0908 140.987ZM94.0858 139.693C94.4773 139.693 94.8274 139.597 95.136 139.404C95.4446 139.212 95.6885 138.953 95.8677 138.628C96.0468 138.303 96.1364 137.939 96.1364 137.538C96.1364 137.146 96.0485 136.79 95.8726 136.468C95.7001 136.146 95.4612 135.89 95.1559 135.701C94.854 135.512 94.5089 135.417 94.1206 135.417C93.8253 135.417 93.5516 135.474 93.2994 135.587C93.0505 135.7 92.8315 135.855 92.6424 136.055C92.4533 136.254 92.3039 136.483 92.1944 136.741C92.0883 136.997 92.0352 137.267 92.0352 137.553C92.0352 137.934 92.1231 138.288 92.299 138.613C92.4781 138.938 92.722 139.2 93.0306 139.399C93.3425 139.595 93.6943 139.693 94.0858 139.693ZM102.991 141.017C102.205 141.014 101.533 140.806 100.976 140.395C100.418 139.983 99.9917 139.384 99.6964 138.598C99.4011 137.812 99.2535 136.864 99.2535 135.756C99.2535 134.651 99.4011 133.707 99.6964 132.924C99.9951 132.141 100.423 131.543 100.981 131.132C101.541 130.721 102.212 130.515 102.991 130.515C103.771 130.515 104.44 130.722 104.997 131.137C105.555 131.548 105.981 132.146 106.276 132.929C106.575 133.709 106.724 134.651 106.724 135.756C106.724 136.868 106.577 137.817 106.281 138.603C105.986 139.386 105.56 139.985 105.002 140.4C104.445 140.811 103.774 141.017 102.991 141.017ZM102.991 139.688C103.682 139.688 104.221 139.351 104.609 138.678C105.001 138.004 105.196 137.03 105.196 135.756C105.196 134.91 105.107 134.195 104.928 133.611C104.752 133.023 104.498 132.579 104.166 132.277C103.838 131.972 103.446 131.819 102.991 131.819C102.305 131.819 101.765 132.157 101.374 132.834C100.982 133.511 100.785 134.485 100.781 135.756C100.781 136.605 100.869 137.324 101.045 137.911C101.224 138.495 101.478 138.938 101.807 139.24C102.135 139.539 102.53 139.688 102.991 139.688ZM113.811 138.936V138.399C113.811 138.014 113.89 137.662 114.05 137.344C114.212 137.022 114.448 136.765 114.756 136.572C115.068 136.376 115.445 136.279 115.886 136.279C116.338 136.279 116.716 136.375 117.021 136.567C117.326 136.76 117.557 137.017 117.713 137.339C117.872 137.661 117.952 138.014 117.952 138.399V138.936C117.952 139.321 117.872 139.675 117.713 139.997C117.554 140.315 117.32 140.572 117.011 140.768C116.706 140.96 116.331 141.057 115.886 141.057C115.438 141.057 115.06 140.96 114.751 140.768C114.443 140.572 114.209 140.315 114.05 139.997C113.89 139.675 113.811 139.321 113.811 138.936ZM114.97 138.399V138.936C114.97 139.222 115.038 139.481 115.174 139.713C115.311 139.945 115.548 140.061 115.886 140.061C116.221 140.061 116.455 139.945 116.588 139.713C116.721 139.481 116.787 139.222 116.787 138.936V138.399C116.787 138.113 116.722 137.855 116.593 137.622C116.467 137.39 116.231 137.274 115.886 137.274C115.554 137.274 115.319 137.39 115.179 137.622C115.04 137.855 114.97 138.113 114.97 138.399ZM108.684 133.103V132.565C108.684 132.181 108.764 131.827 108.923 131.505C109.086 131.183 109.321 130.926 109.63 130.734C109.942 130.541 110.318 130.445 110.76 130.445C111.211 130.445 111.589 130.541 111.894 130.734C112.2 130.926 112.43 131.183 112.586 131.505C112.742 131.827 112.82 132.181 112.82 132.565V133.103C112.82 133.488 112.741 133.841 112.581 134.163C112.425 134.482 112.193 134.739 111.885 134.935C111.579 135.127 111.204 135.223 110.76 135.223C110.308 135.223 109.928 135.127 109.62 134.935C109.315 134.739 109.082 134.482 108.923 134.163C108.764 133.841 108.684 133.488 108.684 133.103ZM109.849 132.565V133.103C109.849 133.388 109.915 133.647 110.048 133.879C110.184 134.112 110.421 134.228 110.76 134.228C111.091 134.228 111.324 134.112 111.456 133.879C111.593 133.647 111.661 133.388 111.661 133.103V132.565C111.661 132.28 111.596 132.021 111.466 131.789C111.337 131.557 111.101 131.441 110.76 131.441C110.428 131.441 110.192 131.557 110.053 131.789C109.917 132.021 109.849 132.28 109.849 132.565ZM109.157 140.848L116.165 130.654H117.355L110.347 140.848H109.157Z" fill="black"/>
<path d="M246.496 138.857V137.612L250.901 130.654H251.882V132.486H251.259L248.109 137.473V137.553H254.146V138.857H246.496ZM251.329 140.848V138.478L251.339 137.911V130.654H252.797V140.848H251.329ZM259.43 141.017C258.643 141.014 257.971 140.806 257.414 140.395C256.856 139.983 256.43 139.384 256.135 138.598C255.839 137.812 255.692 136.864 255.692 135.756C255.692 134.651 255.839 133.707 256.135 132.924C256.433 132.141 256.861 131.543 257.419 131.132C257.98 130.721 258.65 130.515 259.43 130.515C260.209 130.515 260.878 130.722 261.436 131.137C261.993 131.548 262.419 132.146 262.715 132.929C263.013 133.709 263.163 134.651 263.163 135.756C263.163 136.868 263.015 137.817 262.72 138.603C262.424 139.386 261.998 139.985 261.44 140.4C260.883 140.811 260.213 141.017 259.43 141.017ZM259.43 139.688C260.12 139.688 260.659 139.351 261.047 138.678C261.439 138.004 261.635 137.03 261.635 135.756C261.635 134.91 261.545 134.195 261.366 133.611C261.19 133.023 260.936 132.579 260.604 132.277C260.276 131.972 259.884 131.819 259.43 131.819C258.743 131.819 258.204 132.157 257.812 132.834C257.421 133.511 257.223 134.485 257.22 135.756C257.22 136.605 257.308 137.324 257.484 137.911C257.663 138.495 257.917 138.938 258.245 139.24C258.574 139.539 258.968 139.688 259.43 139.688ZM270.249 138.936V138.399C270.249 138.014 270.329 137.662 270.488 137.344C270.65 137.022 270.886 136.765 271.195 136.572C271.507 136.376 271.883 136.279 272.325 136.279C272.776 136.279 273.154 136.375 273.459 136.567C273.765 136.76 273.995 137.017 274.151 137.339C274.31 137.661 274.39 138.014 274.39 138.399V138.936C274.39 139.321 274.31 139.675 274.151 139.997C273.992 140.315 273.758 140.572 273.449 140.768C273.144 140.96 272.769 141.057 272.325 141.057C271.877 141.057 271.498 140.96 271.19 140.768C270.881 140.572 270.647 140.315 270.488 139.997C270.329 139.675 270.249 139.321 270.249 138.936ZM271.409 138.399V138.936C271.409 139.222 271.477 139.481 271.613 139.713C271.749 139.945 271.986 140.061 272.325 140.061C272.66 140.061 272.894 139.945 273.026 139.713C273.159 139.481 273.225 139.222 273.225 138.936V138.399C273.225 138.113 273.161 137.855 273.031 137.622C272.905 137.39 272.67 137.274 272.325 137.274C271.993 137.274 271.757 137.39 271.618 137.622C271.478 137.855 271.409 138.113 271.409 138.399ZM265.122 133.103V132.565C265.122 132.181 265.202 131.827 265.361 131.505C265.524 131.183 265.76 130.926 266.068 130.734C266.38 130.541 266.757 130.445 267.198 130.445C267.649 130.445 268.027 130.541 268.333 130.734C268.638 130.926 268.869 131.183 269.025 131.505C269.181 131.827 269.259 132.181 269.259 132.565V133.103C269.259 133.488 269.179 133.841 269.02 134.163C268.864 134.482 268.631 134.739 268.323 134.935C268.018 135.127 267.643 135.223 267.198 135.223C266.747 135.223 266.367 135.127 266.058 134.935C265.753 134.739 265.521 134.482 265.361 134.163C265.202 133.841 265.122 133.488 265.122 133.103ZM266.287 132.565V133.103C266.287 133.388 266.353 133.647 266.486 133.879C266.622 134.112 266.859 134.228 267.198 134.228C267.53 134.228 267.762 134.112 267.895 133.879C268.031 133.647 268.099 133.388 268.099 133.103V132.565C268.099 132.28 268.034 132.021 267.905 131.789C267.775 131.557 267.54 131.441 267.198 131.441C266.866 131.441 266.631 131.557 266.491 131.789C266.355 132.021 266.287 132.28 266.287 132.565ZM265.595 140.848L272.603 130.654H273.793L266.785 140.848H265.595Z" fill="black"/>
<circle cx="180.656" cy="116.837" r="39.0445" fill="#FEFEFD"/>
<circle cx="180.655" cy="116.836" r="30.0342" fill="#E6F9FD"/>
<path d="M178.614 129.678C183.794 132.783 190.349 131.027 193.287 125.748C194.311 123.907 194.712 121.804 194.712 119.878L194.598 105.458C194.607 104.526 194.031 103.712 193.303 103.276C192.575 102.84 191.646 102.752 190.835 103.203L178.748 110.303C177.135 111.262 175.604 112.646 174.562 114.518C171.625 119.798 173.433 126.574 178.614 129.678ZM185.491 117.318C187.372 118.445 188.038 120.932 186.971 122.849C185.904 124.767 183.496 125.412 181.615 124.284C179.733 123.157 179.068 120.67 180.135 118.753C181.205 116.829 183.609 116.19 185.491 117.318Z" fill="#0F8CE9"/>
</g>
<defs>
<filter id="filter0_d_0_499" x="76.5367" y="177.906" width="88.1005" height="88.1004" filterUnits="userSpaceOnUse" color-interpolation-filters="sRGB">
<feFlood flood-opacity="0" result="BackgroundImageFix"/>
<feColorMatrix in="SourceAlpha" type="matrix" values="0 0 0 0 0 0 0 0 0 0 0 0 0 0 0 0 0 0 127 0" result="hardAlpha"/>
<feOffset dy="4.00457"/>
<feGaussianBlur stdDeviation="4.50514"/>
<feComposite in2="hardAlpha" operator="out"/>
<feColorMatrix type="matrix" values="0 0 0 0 0 0 0 0 0 0 0 0 0 0 0 0 0 0 0.05 0"/>
<feBlend mode="normal" in2="BackgroundImageFix" result="effect1_dropShadow_0_499"/>
<feBlend mode="normal" in="SourceGraphic" in2="effect1_dropShadow_0_499" result="shape"/>
</filter>
<filter id="filter1_d_0_499" x="36.4912" y="310.057" width="88.1005" height="88.1004" filterUnits="userSpaceOnUse" color-interpolation-filters="sRGB">
<feFlood flood-opacity="0" result="BackgroundImageFix"/>
<feColorMatrix in="SourceAlpha" type="matrix" values="0 0 0 0 0 0 0 0 0 0 0 0 0 0 0 0 0 0 127 0" result="hardAlpha"/>
<feOffset dy="4.00457"/>
<feGaussianBlur stdDeviation="4.50514"/>
<feComposite in2="hardAlpha" operator="out"/>
<feColorMatrix type="matrix" values="0 0 0 0 0 0 0 0 0 0 0 0 0 0 0 0 0 0 0.05 0"/>
<feBlend mode="normal" in2="BackgroundImageFix" result="effect1_dropShadow_0_499"/>
<feBlend mode="normal" in="SourceGraphic" in2="effect1_dropShadow_0_499" result="shape"/>
</filter>
<clipPath id="clip0_0_499">
<rect x="0.449951" y="0.703857" width="376.151" height="430.491" rx="20.0228" fill="white"/>
</clipPath>
<clipPath id="clip1_0_499">
<rect width="40.0457" height="40.0457" fill="white" transform="translate(60.5183 330.079)"/>
</clipPath>
</defs>
</svg>
