<svg width="79" height="79" viewBox="0 0 79 79" fill="none" xmlns="http://www.w3.org/2000/svg">
<g filter="url(#filter0_d_29224_30)">
<rect x="9.91437" y="5.12866" width="60.0685" height="60.0685" fill="white"/>
</g>
<path d="M47.4573 23.9001C46.4616 23.9001 45.5066 24.2957 44.8026 24.9997C44.0985 25.7038 43.703 26.6587 43.703 27.6544V42.6715C43.703 43.6672 44.0985 44.6222 44.8026 45.3262C45.5066 46.0303 46.4616 46.4258 47.4573 46.4258C48.453 46.4258 49.4079 46.0303 50.1119 45.3262C50.816 44.6222 51.2115 43.6672 51.2115 42.6715C51.2115 41.6759 50.816 40.7209 50.1119 40.0169C49.4079 39.3128 48.453 38.9173 47.4573 38.9173H32.4401C31.4444 38.9173 30.4895 39.3128 29.7855 40.0169C29.0814 40.7209 28.6859 41.6759 28.6859 42.6715C28.6859 43.6672 29.0814 44.6222 29.7855 45.3262C30.4895 46.0303 31.4444 46.4258 32.4401 46.4258C33.4358 46.4258 34.3907 46.0303 35.0948 45.3262C35.7989 44.6222 36.1944 43.6672 36.1944 42.6715V27.6544C36.1944 26.6587 35.7989 25.7038 35.0948 24.9997C34.3907 24.2957 33.4358 23.9001 32.4401 23.9001C31.4444 23.9001 30.4895 24.2957 29.7855 24.9997C29.0814 25.7038 28.6859 26.6587 28.6859 27.6544C28.6859 28.6501 29.0814 29.605 29.7855 30.3091C30.4895 31.0132 31.4444 31.4087 32.4401 31.4087H47.4573C48.453 31.4087 49.4079 31.0132 50.1119 30.3091C50.816 29.605 51.2115 28.6501 51.2115 27.6544C51.2115 26.6587 50.816 25.7038 50.1119 24.9997C49.4079 24.2957 48.453 23.9001 47.4573 23.9001Z" stroke="#54BD95" stroke-width="2.00228" stroke-linecap="round" stroke-linejoin="round"/>
<defs>
<filter id="filter0_d_29224_30" x="0.904094" y="0.122954" width="78.089" height="78.0892" filterUnits="userSpaceOnUse" color-interpolation-filters="sRGB">
<feFlood flood-opacity="0" result="BackgroundImageFix"/>
<feColorMatrix in="SourceAlpha" type="matrix" values="0 0 0 0 0 0 0 0 0 0 0 0 0 0 0 0 0 0 127 0" result="hardAlpha"/>
<feOffset dy="4.00457"/>
<feGaussianBlur stdDeviation="4.50514"/>
<feComposite in2="hardAlpha" operator="out"/>
<feColorMatrix type="matrix" values="0 0 0 0 0 0 0 0 0 0 0 0 0 0 0 0 0 0 0.05 0"/>
<feBlend mode="normal" in2="BackgroundImageFix" result="effect1_dropShadow_29224_30"/>
<feBlend mode="normal" in="SourceGraphic" in2="effect1_dropShadow_29224_30" result="shape"/>
</filter>
</defs>
</svg>
