<svg width="635" height="107" viewBox="0 0 635 107" fill="none" xmlns="http://www.w3.org/2000/svg">
<path d="M13.1632 0.141602L16.0852 9.13463H25.5411L17.8911 14.6926L20.8132 23.6857L13.1632 18.1277L5.5133 23.6857L8.43531 14.6926L0.785383 9.13463H10.2412L13.1632 0.141602Z" fill="#FFC728"/>
<path d="M42.1964 0.141357L45.1184 9.13439H54.5742L46.9243 14.6924L49.8463 23.6854L42.1964 18.1274L34.5465 23.6854L37.4685 14.6924L29.8185 9.13439H39.2744L42.1964 0.141357Z" fill="#FFC728"/>
<path d="M71.2295 0.141357L74.1515 9.13439H83.6073L75.9574 14.6924L78.8794 23.6854L71.2295 18.1274L63.5795 23.6854L66.5015 14.6924L58.8516 9.13439H68.3074L71.2295 0.141357Z" fill="#FFC728"/>
<path d="M100.263 0.141357L103.185 9.13439H112.64L104.99 14.6924L107.912 23.6854L100.263 18.1274L92.6126 23.6854L95.5346 14.6924L87.8847 9.13439H97.3405L100.263 0.141357Z" fill="#FFC728"/>
<path d="M129.296 0.141357L132.218 9.13439H141.674L134.024 14.6924L136.946 23.6854L129.296 18.1274L121.646 23.6854L124.568 14.6924L116.918 9.13439H126.374L129.296 0.141357Z" fill="#FFC728"/>
<path d="M5.99741 62.3708C5.09297 62.3708 4.28665 62.2044 3.57845 61.8717C2.87453 61.5389 2.31565 61.0803 1.90183 60.4958C1.488 59.9114 1.27256 59.2416 1.25549 58.4864H3.94322C3.97308 58.9941 4.18639 59.4058 4.58315 59.7215C4.97991 60.0372 5.45133 60.1951 5.99741 60.1951C6.43256 60.1951 6.81652 60.0991 7.14929 59.9071C7.48632 59.7108 7.74869 59.4399 7.93641 59.0944C8.12839 58.7445 8.22438 58.3435 8.22438 57.8913C8.22438 57.4305 8.12625 57.0252 7.93001 56.6754C7.73803 56.3256 7.47139 56.0525 7.13009 55.8563C6.78879 55.6601 6.39843 55.5598 5.95901 55.5555C5.57505 55.5555 5.20175 55.6345 4.83913 55.7923C4.48076 55.9502 4.20132 56.1656 4.00081 56.4386L1.53706 55.9971L2.1578 49.0858H10.1698V51.3512H4.44237L4.1032 54.634H4.17999C4.41037 54.3098 4.75807 54.041 5.22309 53.8277C5.6881 53.6144 6.20858 53.5077 6.78452 53.5077C7.57378 53.5077 8.2777 53.6933 8.89631 54.0645C9.51491 54.4356 10.0034 54.9455 10.3618 55.5939C10.7201 56.2381 10.8972 56.9805 10.8929 57.8209C10.8972 58.704 10.6924 59.489 10.2786 60.1759C9.86901 60.8585 9.2952 61.396 8.55714 61.7885C7.82335 62.1767 6.97011 62.3708 5.99741 62.3708ZM22.8469 48.4715L18.6233 64.1626H17.2411L21.4646 48.4715H22.8469ZM33.9097 62.3708C33.1077 62.3708 32.3867 62.2172 31.7468 61.9101C31.1111 61.5986 30.6034 61.172 30.2237 60.6302C29.844 60.0884 29.6414 59.4698 29.6158 58.7744H31.5356C31.5825 59.3375 31.8321 59.8004 32.2843 60.1631C32.7365 60.5257 33.2783 60.707 33.9097 60.707C34.4132 60.707 34.859 60.5918 35.2472 60.3614C35.6397 60.1268 35.9469 59.8047 36.1687 59.3951C36.3948 58.9856 36.5079 58.5184 36.5079 57.9937C36.5079 57.4604 36.3927 56.9847 36.1623 56.5666C35.9319 56.1485 35.6141 55.82 35.2088 55.5811C34.8078 55.3422 34.347 55.2206 33.8265 55.2164C33.4298 55.2164 33.0309 55.2846 32.6299 55.4211C32.2288 55.5577 31.9046 55.7368 31.6572 55.9587L29.8462 55.6899L30.5821 49.0858H37.7877V50.7816H32.2267L31.8108 54.4484H31.8875C32.1435 54.201 32.4827 53.9941 32.905 53.8277C33.3317 53.6613 33.7882 53.5781 34.2745 53.5781C35.0723 53.5781 35.7826 53.768 36.4055 54.1477C37.0326 54.5274 37.5254 55.0457 37.8837 55.7027C38.2464 56.3555 38.4255 57.1063 38.4213 57.9553C38.4255 58.8043 38.2336 59.5615 37.8453 60.2271C37.4614 60.8926 36.9281 61.4173 36.2455 61.8013C35.5672 62.181 34.7886 62.3708 33.9097 62.3708ZM45.5533 62.1917V52.3623H47.4028V53.9237H47.5051C47.6843 53.3947 48 52.9787 48.4522 52.6758C48.9087 52.3687 49.4249 52.2151 50.0009 52.2151C50.1203 52.2151 50.2611 52.2193 50.4232 52.2279C50.5896 52.2364 50.7197 52.2471 50.8136 52.2599V54.0901C50.7368 54.0688 50.6003 54.0453 50.404 54.0197C50.2078 53.9898 50.0116 53.9749 49.8153 53.9749C49.3631 53.9749 48.9599 54.0709 48.6058 54.2629C48.256 54.4506 47.9787 54.713 47.7739 55.05C47.5691 55.3827 47.4667 55.7624 47.4667 56.1891V62.1917H45.5533ZM55.2419 62.4092C54.6191 62.4092 54.0559 62.294 53.5525 62.0637C53.0491 61.829 52.6502 61.4899 52.3558 61.0462C52.0657 60.6025 51.9207 60.0585 51.9207 59.4143C51.9207 58.8597 52.0273 58.4032 52.2407 58.0449C52.454 57.6865 52.7419 57.4028 53.1046 57.1938C53.4672 56.9847 53.8725 56.8269 54.3204 56.7202C54.7684 56.6136 55.2249 56.5325 55.6899 56.477C56.2786 56.4088 56.7565 56.3533 57.1233 56.3107C57.4902 56.2637 57.7569 56.1891 57.9233 56.0867C58.0897 55.9843 58.1728 55.8179 58.1728 55.5875V55.5427C58.1728 54.9839 58.015 54.5508 57.6993 54.2437C57.3879 53.9365 56.9228 53.7829 56.3042 53.7829C55.66 53.7829 55.1524 53.9258 54.7812 54.2117C54.4143 54.4932 54.1605 54.8068 54.0197 55.1524L52.2215 54.7428C52.4348 54.1455 52.7462 53.6635 53.1558 53.2966C53.5696 52.9254 54.0453 52.6566 54.5828 52.4902C55.1204 52.3196 55.6856 52.2343 56.2786 52.2343C56.6711 52.2343 57.0871 52.2812 57.5265 52.3751C57.9702 52.4647 58.384 52.631 58.768 52.8742C59.1562 53.1174 59.474 53.4651 59.7215 53.9173C59.9689 54.3653 60.0926 54.9476 60.0926 55.6643V62.1917H58.224V60.8478H58.1472C58.0235 61.0952 57.8379 61.3384 57.5905 61.5773C57.3431 61.8162 57.0252 62.0146 56.637 62.1725C56.2488 62.3303 55.7838 62.4092 55.2419 62.4092ZM55.6579 60.8734C56.1869 60.8734 56.6391 60.7689 57.0146 60.5598C57.3943 60.3508 57.6822 60.0777 57.8785 59.7407C58.079 59.3994 58.1792 59.0346 58.1792 58.6464V57.3793C58.111 57.4476 57.9787 57.5116 57.7825 57.5713C57.5905 57.6268 57.3708 57.6758 57.1233 57.7185C56.8759 57.7569 56.6349 57.7932 56.4002 57.8273C56.1656 57.8572 55.9693 57.8828 55.8115 57.9041C55.4403 57.951 55.1012 58.0299 54.794 58.1409C54.4911 58.2518 54.2479 58.4118 54.0645 58.6208C53.8853 58.8256 53.7957 59.0986 53.7957 59.4399C53.7957 59.9135 53.9706 60.2718 54.3204 60.515C54.6703 60.7539 55.1161 60.8734 55.6579 60.8734ZM67.2295 52.3623V53.8981H61.8605V52.3623H67.2295ZM63.3003 50.0073H65.2137V59.3055C65.2137 59.6767 65.2692 59.9561 65.3801 60.1439C65.491 60.3273 65.6339 60.4532 65.8089 60.5214C65.988 60.5854 66.1822 60.6174 66.3912 60.6174C66.5448 60.6174 66.6792 60.6067 66.7944 60.5854C66.9095 60.5641 66.9991 60.547 67.0631 60.5342L67.4087 62.1149C67.2978 62.1575 67.1399 62.2002 66.9351 62.2428C66.7304 62.2898 66.4744 62.3154 66.1672 62.3196C65.6638 62.3282 65.1945 62.2386 64.7594 62.0509C64.3242 61.8632 63.9722 61.573 63.7035 61.1806C63.4347 60.7881 63.3003 60.2953 63.3003 59.7023V50.0073ZM69.3461 62.1917V52.3623H71.2595V62.1917H69.3461ZM70.3124 50.8456C69.9796 50.8456 69.6938 50.7347 69.4549 50.5128C69.2202 50.2867 69.1029 50.018 69.1029 49.7065C69.1029 49.3908 69.2202 49.1221 69.4549 48.9002C69.6938 48.6741 69.9796 48.5611 70.3124 48.5611C70.6452 48.5611 70.9289 48.6741 71.1635 48.9002C71.4024 49.1221 71.5219 49.3908 71.5219 49.7065C71.5219 50.018 71.4024 50.2867 71.1635 50.5128C70.9289 50.7347 70.6452 50.8456 70.3124 50.8456ZM75.747 56.3554V62.1917H73.8336V52.3623H75.6702V53.9621H75.7918C76.0179 53.4416 76.372 53.0235 76.8541 52.7078C77.3405 52.3921 77.9527 52.2343 78.6907 52.2343C79.3605 52.2343 79.9471 52.3751 80.4506 52.6566C80.954 52.9339 81.3443 53.3478 81.6216 53.8981C81.8989 54.4484 82.0376 55.1289 82.0376 55.9395V62.1917H80.1242V56.1699C80.1242 55.4574 79.9386 54.9007 79.5674 54.4996C79.1963 54.0943 78.6865 53.8917 78.038 53.8917C77.5943 53.8917 77.1997 53.9877 76.8541 54.1797C76.5128 54.3717 76.2419 54.6532 76.0414 55.0244C75.8452 55.3913 75.747 55.835 75.747 56.3554ZM88.7249 66.0825C87.9442 66.0825 87.2723 65.9801 86.7091 65.7753C86.1502 65.5705 85.6937 65.2996 85.3397 64.9626C84.9856 64.6255 84.721 64.2565 84.5461 63.8555L86.1908 63.1771C86.306 63.3649 86.4595 63.5632 86.6515 63.7723C86.8478 63.9856 87.1123 64.1669 87.445 64.3162C87.7821 64.4656 88.2151 64.5402 88.7441 64.5402C89.4694 64.5402 90.0688 64.3632 90.5423 64.0091C91.0159 63.6592 91.2526 63.1004 91.2526 62.3324V60.3998H91.1311C91.0159 60.6089 90.8495 60.8414 90.6319 61.0974C90.4186 61.3533 90.1242 61.5752 89.7488 61.7629C89.3734 61.9506 88.8849 62.0445 88.2833 62.0445C87.5069 62.0445 86.8072 61.8632 86.1844 61.5005C85.5658 61.1336 85.0751 60.5939 84.7125 59.8815C84.3542 59.1648 84.175 58.2838 84.175 57.2386C84.175 56.1933 84.352 55.2974 84.7061 54.5508C85.0645 53.8042 85.5551 53.2326 86.178 52.8358C86.8008 52.4348 87.5069 52.2343 88.2961 52.2343C88.9062 52.2343 89.399 52.3367 89.7744 52.5414C90.1498 52.742 90.4421 52.9766 90.6511 53.2454C90.8644 53.5141 91.0287 53.7509 91.1439 53.9557H91.2846V52.3623H93.1596V62.4092C93.1596 63.2539 92.9634 63.9472 92.5709 64.489C92.1784 65.0308 91.6473 65.4319 90.9775 65.6921C90.3119 65.9523 89.5611 66.0825 88.7249 66.0825ZM88.7057 60.4574C89.256 60.4574 89.7211 60.3294 90.1008 60.0735C90.4847 59.8132 90.7748 59.4421 90.9711 58.96C91.1716 58.4736 91.2718 57.8913 91.2718 57.213C91.2718 56.5517 91.1737 55.9694 90.9775 55.4659C90.7812 54.9625 90.4933 54.57 90.1136 54.2885C89.7339 54.0026 89.2646 53.8597 88.7057 53.8597C88.1298 53.8597 87.6498 54.009 87.2659 54.3077C86.8819 54.602 86.5918 55.0031 86.3955 55.5107C86.2036 56.0184 86.1076 56.5858 86.1076 57.213C86.1076 57.8572 86.2057 58.4224 86.4019 58.9088C86.5982 59.3951 86.8883 59.7748 87.2723 60.0479C87.6605 60.3209 88.1383 60.4574 88.7057 60.4574Z" fill="#191A15"/>
<path d="M5.93343 102.237H1.28751V89.1315H5.97182C7.29009 89.1315 8.42491 89.3938 9.37627 89.9186C10.3276 90.4391 11.0593 91.1878 11.5712 92.1647C12.0875 93.1417 12.3456 94.3107 12.3456 95.6716C12.3456 97.0368 12.0875 98.21 11.5712 99.1912C11.0593 100.172 10.3234 100.925 9.36347 101.45C8.40784 101.975 7.26449 102.237 5.93343 102.237ZM4.05842 99.8631H5.81824C6.63736 99.8631 7.32635 99.7181 7.88523 99.428C8.44837 99.1336 8.87073 98.6793 9.1523 98.0649C9.43813 97.4463 9.58105 96.6485 9.58105 95.6716C9.58105 94.7031 9.43813 93.9118 9.1523 93.2974C8.87073 92.6831 8.4505 92.2309 7.89163 91.9408C7.33275 91.6507 6.64375 91.5056 5.82464 91.5056H4.05842V99.8631ZM17.1499 102.423C16.5227 102.423 15.9639 102.314 15.4732 102.097C14.9826 101.875 14.5944 101.548 14.3086 101.117C14.027 100.682 13.8862 100.14 13.8862 99.492C13.8862 98.9459 13.9865 98.4873 14.187 98.1161C14.3875 97.745 14.6605 97.4463 15.0061 97.2202C15.3517 96.9941 15.7442 96.8235 16.1836 96.7083C16.6273 96.5931 17.0923 96.512 17.5786 96.4651C18.1503 96.4054 18.6111 96.3499 18.9609 96.2987C19.3107 96.2433 19.5646 96.1622 19.7224 96.0555C19.8803 95.9489 19.9592 95.791 19.9592 95.582V95.5436C19.9592 95.1383 19.8312 94.8247 19.5752 94.6029C19.3235 94.381 18.9652 94.2701 18.5001 94.2701C18.0095 94.2701 17.6192 94.3789 17.3291 94.5965C17.039 94.8098 16.847 95.0786 16.7531 95.4028L14.2318 95.198C14.3598 94.6008 14.6115 94.0845 14.9869 93.6494C15.3623 93.21 15.8465 92.8729 16.4395 92.6383C17.0368 92.3994 17.7279 92.2799 18.5129 92.2799C19.059 92.2799 19.5816 92.3439 20.0808 92.4719C20.5842 92.5999 21.03 92.7983 21.4182 93.067C21.8107 93.3358 22.12 93.6814 22.3461 94.1037C22.5723 94.5218 22.6853 95.0231 22.6853 95.6076V102.237H20.1V100.874H20.0232C19.8653 101.181 19.6542 101.452 19.3896 101.687C19.1251 101.917 18.8073 102.099 18.4361 102.231C18.065 102.359 17.6362 102.423 17.1499 102.423ZM17.9306 100.541C18.3316 100.541 18.6857 100.463 18.9929 100.305C19.3001 100.143 19.5411 99.925 19.716 99.652C19.8909 99.3789 19.9784 99.0696 19.9784 98.7241V97.681C19.8931 97.7364 19.7757 97.7876 19.6264 97.8346C19.4814 97.8772 19.3171 97.9177 19.1337 97.9561C18.9502 97.9903 18.7668 98.0223 18.5833 98.0521C18.3999 98.0777 18.2335 98.1012 18.0842 98.1225C17.7642 98.1695 17.4848 98.2441 17.2459 98.3465C17.007 98.4489 16.8214 98.5875 16.6891 98.7625C16.5569 98.9331 16.4907 99.1464 16.4907 99.4024C16.4907 99.7736 16.6251 100.057 16.8939 100.254C17.1669 100.445 17.5125 100.541 17.9306 100.541ZM30.0286 92.4079V94.4557H24.1092V92.4079H30.0286ZM25.453 90.053H28.1791V99.2168C28.1791 99.4685 28.2175 99.6648 28.2943 99.8056C28.3711 99.9421 28.4778 100.038 28.6143 100.094C28.7551 100.149 28.9172 100.177 29.1006 100.177C29.2286 100.177 29.3566 100.166 29.4846 100.145C29.6126 100.119 29.7107 100.1 29.779 100.087L30.2077 102.116C30.0712 102.158 29.8792 102.207 29.6318 102.263C29.3844 102.323 29.0836 102.359 28.7295 102.372C28.0725 102.397 27.4965 102.31 27.0017 102.109C26.511 101.909 26.1292 101.597 25.8562 101.175C25.5831 100.753 25.4488 100.219 25.453 99.5752V90.053ZM34.6073 102.423C33.9801 102.423 33.4213 102.314 32.9307 102.097C32.44 101.875 32.0518 101.548 31.766 101.117C31.4844 100.682 31.3436 100.14 31.3436 99.492C31.3436 98.9459 31.4439 98.4873 31.6444 98.1161C31.8449 97.745 32.1179 97.4463 32.4635 97.2202C32.8091 96.9941 33.2016 96.8235 33.641 96.7083C34.0847 96.5931 34.5497 96.512 35.036 96.4651C35.6077 96.4054 36.0685 96.3499 36.4183 96.2987C36.7681 96.2433 37.022 96.1622 37.1798 96.0555C37.3377 95.9489 37.4166 95.791 37.4166 95.582V95.5436C37.4166 95.1383 37.2886 94.8247 37.0326 94.6029C36.7809 94.381 36.4226 94.2701 35.9575 94.2701C35.4669 94.2701 35.0766 94.3789 34.7865 94.5965C34.4964 94.8098 34.3044 95.0786 34.2105 95.4028L31.6892 95.198C31.8172 94.6008 32.0689 94.0845 32.4443 93.6494C32.8197 93.21 33.3039 92.8729 33.897 92.6383C34.4942 92.3994 35.1854 92.2799 35.9703 92.2799C36.5164 92.2799 37.039 92.3439 37.5382 92.4719C38.0416 92.5999 38.4874 92.7983 38.8756 93.067C39.2681 93.3358 39.5774 93.6814 39.8035 94.1037C40.0297 94.5218 40.1427 95.0231 40.1427 95.6076V102.237H37.5574V100.874H37.4806C37.3227 101.181 37.1116 101.452 36.8471 101.687C36.5825 101.917 36.2647 102.099 35.8935 102.231C35.5224 102.359 35.0936 102.423 34.6073 102.423ZM35.388 100.541C35.789 100.541 36.1431 100.463 36.4503 100.305C36.7575 100.143 36.9985 99.925 37.1734 99.652C37.3483 99.3789 37.4358 99.0696 37.4358 98.7241V97.681C37.3505 97.7364 37.2331 97.7876 37.0838 97.8346C36.9388 97.8772 36.7745 97.9177 36.5911 97.9561C36.4076 97.9903 36.2242 98.0223 36.0407 98.0521C35.8573 98.0777 35.6909 98.1012 35.5416 98.1225C35.2216 98.1695 34.9422 98.2441 34.7033 98.3465C34.4644 98.4489 34.2788 98.5875 34.1465 98.7625C34.0143 98.9331 33.9481 99.1464 33.9481 99.4024C33.9481 99.7736 34.0825 100.057 34.3513 100.254C34.6243 100.445 34.9699 100.541 35.388 100.541ZM42.3089 102.237V89.1315H45.035V94.0589H45.1182C45.2377 93.7944 45.4104 93.5257 45.6365 93.2526C45.8669 92.9753 46.1656 92.7449 46.5325 92.5615C46.9036 92.3738 47.3644 92.2799 47.9147 92.2799C48.6314 92.2799 49.2927 92.4676 49.8985 92.8431C50.5043 93.2142 50.9885 93.7752 51.3512 94.5261C51.7138 95.2727 51.8951 96.2091 51.8951 97.3354C51.8951 98.4318 51.7181 99.3576 51.364 100.113C51.0141 100.864 50.5363 101.433 49.9305 101.821C49.329 102.205 48.6549 102.397 47.9083 102.397C47.3793 102.397 46.9292 102.31 46.5581 102.135C46.1912 101.96 45.8904 101.74 45.6557 101.476C45.4211 101.207 45.2419 100.936 45.1182 100.663H44.9966V102.237H42.3089ZM44.9774 97.3226C44.9774 97.9071 45.0585 98.4169 45.2206 98.8521C45.3827 99.2872 45.6174 99.6264 45.9245 99.8695C46.2317 100.108 46.605 100.228 47.0444 100.228C47.4881 100.228 47.8635 100.106 48.1707 99.8631C48.4779 99.6157 48.7104 99.2744 48.8682 98.8393C49.0303 98.3998 49.1114 97.8943 49.1114 97.3226C49.1114 96.7552 49.0325 96.2561 48.8746 95.8252C48.7168 95.3943 48.4843 95.0572 48.1771 94.8141C47.8699 94.5709 47.4924 94.4493 47.0444 94.4493C46.6007 94.4493 46.2253 94.5666 45.9181 94.8013C45.6152 95.0359 45.3827 95.3687 45.2206 95.7996C45.0585 96.2305 44.9774 96.7381 44.9774 97.3226ZM53.7141 102.237V92.4079H56.357V94.1229H56.4594C56.6386 93.5129 56.9394 93.0521 57.3617 92.7407C57.7841 92.425 58.2704 92.2671 58.8208 92.2671C58.9573 92.2671 59.1045 92.2757 59.2623 92.2927C59.4202 92.3098 59.5588 92.3333 59.6783 92.3631V94.7821C59.5503 94.7437 59.3733 94.7095 59.1472 94.6797C58.921 94.6498 58.7141 94.6349 58.5264 94.6349C58.1254 94.6349 57.767 94.7223 57.4513 94.8973C57.1399 95.0679 56.8925 95.3068 56.709 95.614C56.5298 95.9212 56.4402 96.2753 56.4402 96.6763V102.237H53.7141ZM61.0878 102.237V92.4079H63.8139V102.237H61.0878ZM62.4572 91.1408C62.0519 91.1408 61.7042 91.0065 61.4141 90.7377C61.1283 90.4646 60.9854 90.1383 60.9854 89.7586C60.9854 89.3832 61.1283 89.0611 61.4141 88.7923C61.7042 88.5192 62.0519 88.3827 62.4572 88.3827C62.8625 88.3827 63.2081 88.5192 63.4939 88.7923C63.784 89.0611 63.9291 89.3832 63.9291 89.7586C63.9291 90.1383 63.784 90.4646 63.4939 90.7377C63.2081 91.0065 62.8625 91.1408 62.4572 91.1408ZM70.4388 102.429C69.432 102.429 68.5659 102.216 67.8407 101.789C67.1197 101.358 66.5651 100.761 66.1768 99.9975C65.7929 99.2339 65.6009 98.355 65.6009 97.361C65.6009 96.3542 65.795 95.4711 66.1832 94.7117C66.5757 93.948 67.1325 93.3529 67.8535 92.9263C68.5745 92.4954 69.432 92.2799 70.426 92.2799C71.2835 92.2799 72.0344 92.4356 72.6786 92.7471C73.3228 93.0585 73.8326 93.4958 74.208 94.0589C74.5834 94.6221 74.7904 95.2834 74.8287 96.0427H72.2562C72.1837 95.5521 71.9917 95.1575 71.6803 94.8589C71.3731 94.556 70.9699 94.4045 70.4708 94.4045C70.0484 94.4045 69.6794 94.5197 69.3637 94.7501C69.0523 94.9762 68.8091 95.3068 68.6342 95.742C68.4593 96.1771 68.3718 96.704 68.3718 97.3226C68.3718 97.9497 68.4571 98.483 68.6278 98.9224C68.8027 99.3619 69.048 99.6968 69.3637 99.9271C69.6794 100.158 70.0484 100.273 70.4708 100.273C70.7822 100.273 71.0617 100.209 71.3091 100.081C71.5608 99.9527 71.7677 99.7672 71.9298 99.524C72.0962 99.2765 72.205 98.98 72.2562 98.6345H74.8287C74.7861 99.3853 74.5813 100.047 74.2144 100.618C73.8518 101.186 73.3505 101.629 72.7106 101.949C72.0706 102.269 71.3134 102.429 70.4388 102.429ZM79.0443 99.4088L79.0507 96.1387H79.4475L82.596 92.4079H85.7252L81.4953 97.3482H80.8489L79.0443 99.4088ZM76.5742 102.237V89.1315H79.3003V102.237H76.5742ZM82.7175 102.237L79.825 97.9561L81.6425 96.0299L85.9108 102.237H82.7175ZM95.241 95.2108L92.7453 95.3644C92.7026 95.1511 92.6109 94.9591 92.4701 94.7885C92.3293 94.6136 92.1438 94.4749 91.9134 94.3725C91.6873 94.2659 91.4164 94.2125 91.1007 94.2125C90.6783 94.2125 90.3221 94.3021 90.032 94.4813C89.7419 94.6562 89.5968 94.8909 89.5968 95.1852C89.5968 95.4199 89.6907 95.6183 89.8784 95.7804C90.0661 95.9425 90.3882 96.0726 90.8447 96.1707L92.6237 96.5291C93.5794 96.7253 94.2918 97.041 94.7611 97.4762C95.2304 97.9113 95.465 98.483 95.465 99.1912C95.465 99.8354 95.2752 100.401 94.8955 100.887C94.5201 101.373 94.0038 101.753 93.3468 102.026C92.6941 102.295 91.9411 102.429 91.0879 102.429C89.7867 102.429 88.75 102.158 87.9778 101.617C87.2099 101.07 86.7598 100.328 86.6275 99.3896L89.3089 99.2488C89.3899 99.6456 89.5862 99.9485 89.8976 100.158C90.209 100.362 90.6079 100.465 91.0943 100.465C91.5721 100.465 91.9561 100.373 92.2462 100.19C92.5405 100.002 92.6898 99.7608 92.6941 99.4664C92.6898 99.2189 92.5853 99.0163 92.3805 98.8585C92.1758 98.6963 91.8601 98.5726 91.4334 98.4873L89.7312 98.1481C88.7713 97.9561 88.0567 97.6234 87.5874 97.1498C87.1224 96.6763 86.8899 96.0726 86.8899 95.3388C86.8899 94.7074 87.0606 94.1635 87.4019 93.707C87.7474 93.2505 88.2316 92.8985 88.8545 92.6511C89.4816 92.4036 90.2154 92.2799 91.0559 92.2799C92.2974 92.2799 93.2743 92.5423 93.9868 93.067C94.7035 93.5918 95.1216 94.3064 95.241 95.2108Z" fill="#A6A6A6"/>
<path d="M177.325 0.141602L180.247 9.13463H189.703L182.053 14.6926L184.975 23.6857L177.325 18.1277L169.675 23.6857L172.597 14.6926L164.947 9.13463H174.403L177.325 0.141602Z" fill="#FFC728"/>
<path d="M206.358 0.141357L209.281 9.13439H218.736L211.086 14.6924L214.008 23.6854L206.358 18.1274L198.709 23.6854L201.631 14.6924L193.981 9.13439H203.436L206.358 0.141357Z" fill="#FFC728"/>
<path d="M235.392 0.141357L238.314 9.13439H247.769L240.119 14.6924L243.041 23.6854L235.392 18.1274L227.742 23.6854L230.664 14.6924L223.014 9.13439H232.47L235.392 0.141357Z" fill="#FFC728"/>
<path d="M264.425 0.141357L267.347 9.13439H276.802L269.153 14.6924L272.075 23.6854L264.425 18.1274L256.775 23.6854L259.697 14.6924L252.047 9.13439H261.503L264.425 0.141357Z" fill="#FFC728"/>
<path d="M293.458 0.141357L296.38 9.13439H305.836L298.186 14.6924L301.108 23.6854L293.458 18.1274L285.808 23.6854L288.73 14.6924L281.08 9.13439H290.536L293.458 0.141357Z" fill="#FFC728"/>
<path d="M165.174 59.8879V57.7057L170.646 49.0858H172.527V52.1063H171.414L167.965 57.5649V57.6673H175.74V59.8879H165.174ZM171.465 62.1917V59.2224L171.516 58.2561V49.0858H174.114V62.1917H171.465ZM178.959 62.358C178.536 62.358 178.174 62.2087 177.871 61.9101C177.572 61.6072 177.423 61.2445 177.423 60.8222C177.423 60.4041 177.572 60.0457 177.871 59.7471C178.174 59.4485 178.536 59.2991 178.959 59.2991C179.368 59.2991 179.727 59.4485 180.034 59.7471C180.341 60.0457 180.494 60.4041 180.494 60.8222C180.494 61.1038 180.422 61.3619 180.277 61.5965C180.136 61.8269 179.95 62.0125 179.72 62.1533C179.49 62.2898 179.236 62.358 178.959 62.358ZM187.203 48.9066C187.877 48.9066 188.525 49.0197 189.148 49.2458C189.775 49.4719 190.334 49.8324 190.825 50.3273C191.319 50.8222 191.71 51.4792 191.996 52.2983C192.286 53.1131 192.433 54.1135 192.437 55.2996C192.437 56.413 192.311 57.4071 192.06 58.2817C191.812 59.152 191.456 59.8922 190.991 60.5022C190.526 61.1123 189.965 61.5773 189.308 61.8973C188.651 62.213 187.917 62.3708 187.107 62.3708C186.232 62.3708 185.46 62.2023 184.79 61.8653C184.12 61.524 183.581 61.0611 183.171 60.4766C182.766 59.8879 182.52 59.2266 182.435 58.4928H185.168C185.274 58.9706 185.498 59.3418 185.839 59.6063C186.181 59.8666 186.603 59.9967 187.107 59.9967C187.96 59.9967 188.608 59.6255 189.052 58.8832C189.496 58.1366 189.72 57.1148 189.724 55.8179H189.634C189.438 56.2019 189.174 56.5325 188.841 56.8098C188.508 57.0828 188.126 57.294 187.695 57.4433C187.269 57.5927 186.814 57.6673 186.332 57.6673C185.56 57.6673 184.871 57.486 184.265 57.1234C183.659 56.7607 183.182 56.2616 182.832 55.6259C182.482 54.9903 182.307 54.265 182.307 53.4501C182.303 52.5713 182.505 51.7885 182.915 51.1016C183.325 50.4147 183.896 49.8772 184.63 49.489C185.368 49.0965 186.226 48.9023 187.203 48.9066ZM187.222 51.0824C186.791 51.0824 186.407 51.1848 186.07 51.3896C185.737 51.5943 185.473 51.8695 185.276 52.2151C185.084 52.5606 184.99 52.9467 184.995 53.3734C184.995 53.8042 185.089 54.1925 185.276 54.538C185.468 54.8793 185.729 55.1524 186.057 55.3572C186.39 55.5577 186.77 55.6579 187.196 55.6579C187.516 55.6579 187.813 55.5982 188.086 55.4787C188.359 55.3593 188.595 55.195 188.796 54.986C189.001 54.7727 189.161 54.5274 189.276 54.2501C189.391 53.9728 189.449 53.6784 189.449 53.367C189.444 52.9531 189.346 52.5734 189.154 52.2279C188.962 51.8823 188.698 51.605 188.361 51.396C188.024 51.1869 187.644 51.0824 187.222 51.0824ZM204.378 48.4715L200.155 64.1626H198.773L202.996 48.4715H204.378ZM215.441 62.3708C214.639 62.3708 213.918 62.2172 213.278 61.9101C212.643 61.5986 212.135 61.172 211.755 60.6302C211.376 60.0884 211.173 59.4698 211.147 58.7744H213.067C213.114 59.3375 213.364 59.8004 213.816 60.1631C214.268 60.5257 214.81 60.707 215.441 60.707C215.945 60.707 216.39 60.5918 216.779 60.3614C217.171 60.1268 217.478 59.8047 217.7 59.3951C217.926 58.9856 218.039 58.5184 218.039 57.9937C218.039 57.4604 217.924 56.9847 217.694 56.5666C217.463 56.1485 217.146 55.82 216.74 55.5811C216.339 55.3422 215.879 55.2206 215.358 55.2164C214.961 55.2164 214.562 55.2846 214.161 55.4211C213.76 55.5577 213.436 55.7368 213.189 55.9587L211.378 55.6899L212.114 49.0858H219.319V50.7816H213.758L213.342 54.4484H213.419C213.675 54.201 214.014 53.9941 214.437 53.8277C214.863 53.6613 215.32 53.5781 215.806 53.5781C216.604 53.5781 217.314 53.768 217.937 54.1477C218.564 54.5274 219.057 55.0457 219.415 55.7027C219.778 56.3555 219.957 57.1063 219.953 57.9553C219.957 58.8043 219.765 59.5615 219.377 60.2271C218.993 60.8926 218.46 61.4173 217.777 61.8013C217.099 62.181 216.32 62.3708 215.441 62.3708ZM227.085 62.1917V52.3623H228.934V53.9237H229.037C229.216 53.3947 229.532 52.9787 229.984 52.6758C230.44 52.3687 230.956 52.2151 231.532 52.2151C231.652 52.2151 231.793 52.2193 231.955 52.2279C232.121 52.2364 232.251 52.2471 232.345 52.2599V54.0901C232.268 54.0688 232.132 54.0453 231.936 54.0197C231.739 53.9898 231.543 53.9749 231.347 53.9749C230.895 53.9749 230.491 54.0709 230.137 54.2629C229.787 54.4506 229.51 54.713 229.305 55.05C229.101 55.3827 228.998 55.7624 228.998 56.1891V62.1917H227.085ZM236.773 62.4092C236.151 62.4092 235.587 62.294 235.084 62.0637C234.581 61.829 234.182 61.4899 233.887 61.0462C233.597 60.6025 233.452 60.0585 233.452 59.4143C233.452 58.8597 233.559 58.4032 233.772 58.0449C233.985 57.6865 234.273 57.4028 234.636 57.1938C234.999 56.9847 235.404 56.8269 235.852 56.7202C236.3 56.6136 236.756 56.5325 237.221 56.477C237.81 56.4088 238.288 56.3533 238.655 56.3107C239.022 56.2637 239.288 56.1891 239.455 56.0867C239.621 55.9843 239.704 55.8179 239.704 55.5875V55.5427C239.704 54.9839 239.546 54.5508 239.231 54.2437C238.919 53.9365 238.454 53.7829 237.836 53.7829C237.192 53.7829 236.684 53.9258 236.313 54.2117C235.946 54.4932 235.692 54.8068 235.551 55.1524L233.753 54.7428C233.966 54.1455 234.278 53.6635 234.687 53.2966C235.101 52.9254 235.577 52.6566 236.114 52.4902C236.652 52.3196 237.217 52.2343 237.81 52.2343C238.203 52.2343 238.619 52.2812 239.058 52.3751C239.502 52.4647 239.916 52.631 240.299 52.8742C240.688 53.1174 241.006 53.4651 241.253 53.9173C241.5 54.3653 241.624 54.9476 241.624 55.6643V62.1917H239.756V60.8478H239.679C239.555 61.0952 239.369 61.3384 239.122 61.5773C238.875 61.8162 238.557 62.0146 238.168 62.1725C237.78 62.3303 237.315 62.4092 236.773 62.4092ZM237.189 60.8734C237.718 60.8734 238.171 60.7689 238.546 60.5598C238.926 60.3508 239.214 60.0777 239.41 59.7407C239.61 59.3994 239.711 59.0346 239.711 58.6464V57.3793C239.642 57.4476 239.51 57.5116 239.314 57.5713C239.122 57.6268 238.902 57.6758 238.655 57.7185C238.407 57.7569 238.166 57.7932 237.932 57.8273C237.697 57.8572 237.501 57.8828 237.343 57.9041C236.972 57.951 236.633 58.0299 236.325 58.1409C236.023 58.2518 235.779 58.4118 235.596 58.6208C235.417 58.8256 235.327 59.0986 235.327 59.4399C235.327 59.9135 235.502 60.2718 235.852 60.515C236.202 60.7539 236.648 60.8734 237.189 60.8734ZM248.761 52.3623V53.8981H243.392V52.3623H248.761ZM244.832 50.0073H246.745V59.3055C246.745 59.6767 246.801 59.9561 246.912 60.1439C247.023 60.3273 247.165 60.4532 247.34 60.5214C247.52 60.5854 247.714 60.6174 247.923 60.6174C248.076 60.6174 248.211 60.6067 248.326 60.5854C248.441 60.5641 248.531 60.547 248.595 60.5342L248.94 62.1149C248.829 62.1575 248.671 62.2002 248.467 62.2428C248.262 62.2898 248.006 62.3154 247.699 62.3196C247.195 62.3282 246.726 62.2386 246.291 62.0509C245.856 61.8632 245.504 61.573 245.235 61.1806C244.966 60.7881 244.832 60.2953 244.832 59.7023V50.0073ZM250.878 62.1917V52.3623H252.791V62.1917H250.878ZM251.844 50.8456C251.511 50.8456 251.225 50.7347 250.986 50.5128C250.752 50.2867 250.634 50.018 250.634 49.7065C250.634 49.3908 250.752 49.1221 250.986 48.9002C251.225 48.6741 251.511 48.5611 251.844 48.5611C252.177 48.5611 252.46 48.6741 252.695 48.9002C252.934 49.1221 253.053 49.3908 253.053 49.7065C253.053 50.018 252.934 50.2867 252.695 50.5128C252.46 50.7347 252.177 50.8456 251.844 50.8456ZM257.279 56.3554V62.1917H255.365V52.3623H257.202V53.9621H257.323C257.549 53.4416 257.904 53.0235 258.386 52.7078C258.872 52.3921 259.484 52.2343 260.222 52.2343C260.892 52.2343 261.479 52.3751 261.982 52.6566C262.485 52.9339 262.876 53.3478 263.153 53.8981C263.43 54.4484 263.569 55.1289 263.569 55.9395V62.1917H261.656V56.1699C261.656 55.4574 261.47 54.9007 261.099 54.4996C260.728 54.0943 260.218 53.8917 259.569 53.8917C259.126 53.8917 258.731 53.9877 258.386 54.1797C258.044 54.3717 257.773 54.6532 257.573 55.0244C257.377 55.3913 257.279 55.835 257.279 56.3554ZM270.256 66.0825C269.476 66.0825 268.804 65.9801 268.241 65.7753C267.682 65.5705 267.225 65.2996 266.871 64.9626C266.517 64.6255 266.253 64.2565 266.078 63.8555L267.722 63.1771C267.837 63.3649 267.991 63.5632 268.183 63.7723C268.379 63.9856 268.644 64.1669 268.977 64.3162C269.314 64.4656 269.747 64.5402 270.276 64.5402C271.001 64.5402 271.6 64.3632 272.074 64.0091C272.547 63.6592 272.784 63.1004 272.784 62.3324V60.3998H272.663C272.547 60.6089 272.381 60.8414 272.163 61.0974C271.95 61.3533 271.656 61.5752 271.28 61.7629C270.905 61.9506 270.416 62.0445 269.815 62.0445C269.038 62.0445 268.339 61.8632 267.716 61.5005C267.097 61.1336 266.607 60.5939 266.244 59.8815C265.886 59.1648 265.706 58.2838 265.706 57.2386C265.706 56.1933 265.884 55.2974 266.238 54.5508C266.596 53.8042 267.087 53.2326 267.709 52.8358C268.332 52.4348 269.038 52.2343 269.828 52.2343C270.438 52.2343 270.93 52.3367 271.306 52.5414C271.681 52.742 271.974 52.9766 272.183 53.2454C272.396 53.5141 272.56 53.7509 272.675 53.9557H272.816V52.3623H274.691V62.4092C274.691 63.2539 274.495 63.9472 274.102 64.489C273.71 65.0308 273.179 65.4319 272.509 65.6921C271.843 65.9523 271.093 66.0825 270.256 66.0825ZM270.237 60.4574C270.788 60.4574 271.253 60.3294 271.632 60.0735C272.016 59.8132 272.306 59.4421 272.503 58.96C272.703 58.4736 272.803 57.8913 272.803 57.213C272.803 56.5517 272.705 55.9694 272.509 55.4659C272.313 54.9625 272.025 54.57 271.645 54.2885C271.265 54.0026 270.796 53.8597 270.237 53.8597C269.661 53.8597 269.181 54.009 268.797 54.3077C268.413 54.602 268.123 55.0031 267.927 55.5107C267.735 56.0184 267.639 56.5858 267.639 57.213C267.639 57.8572 267.737 58.4224 267.933 58.9088C268.13 59.3951 268.42 59.7748 268.804 60.0479C269.192 60.3209 269.67 60.4574 270.237 60.4574Z" fill="#191A15"/>
<path d="M177.013 93.7198H174.21C174.159 93.3572 174.055 93.035 173.897 92.7535C173.739 92.4676 173.536 92.2245 173.289 92.024C173.041 91.8234 172.755 91.6699 172.431 91.5632C172.111 91.4565 171.764 91.4032 171.388 91.4032C170.71 91.4032 170.119 91.5717 169.616 91.9088C169.112 92.2415 168.722 92.7279 168.444 93.3678C168.167 94.0035 168.029 94.7757 168.029 95.6844C168.029 96.6187 168.167 97.4037 168.444 98.0393C168.726 98.675 169.119 99.155 169.622 99.4792C170.125 99.8034 170.708 99.9655 171.369 99.9655C171.74 99.9655 172.084 99.9165 172.399 99.8184C172.719 99.7202 173.003 99.5773 173.25 99.3896C173.498 99.1976 173.703 98.9651 173.865 98.6921C174.031 98.419 174.146 98.1076 174.21 97.7578L177.013 97.7706C176.941 98.3721 176.759 98.9523 176.469 99.5112C176.183 100.066 175.797 100.563 175.311 101.002C174.829 101.437 174.253 101.783 173.583 102.039C172.918 102.291 172.165 102.416 171.324 102.416C170.155 102.416 169.11 102.152 168.188 101.623C167.271 101.094 166.546 100.328 166.013 99.3256C165.484 98.323 165.219 97.1093 165.219 95.6844C165.219 94.2552 165.488 93.0393 166.026 92.0368C166.563 91.0342 167.293 90.2705 168.214 89.7458C169.136 89.2168 170.172 88.9523 171.324 88.9523C172.084 88.9523 172.787 89.0589 173.436 89.2722C174.089 89.4855 174.667 89.797 175.17 90.2065C175.674 90.6118 176.083 91.1088 176.399 91.6976C176.719 92.2863 176.924 92.9604 177.013 93.7198ZM181.752 102.423C181.125 102.423 180.566 102.314 180.075 102.097C179.585 101.875 179.196 101.548 178.911 101.117C178.629 100.682 178.488 100.14 178.488 99.492C178.488 98.9459 178.588 98.4873 178.789 98.1161C178.99 97.745 179.263 97.4463 179.608 97.2202C179.954 96.9941 180.346 96.8235 180.786 96.7083C181.229 96.5931 181.694 96.512 182.181 96.4651C182.752 96.4054 183.213 96.3499 183.563 96.2987C183.913 96.2433 184.167 96.1622 184.324 96.0555C184.482 95.9489 184.561 95.791 184.561 95.582V95.5436C184.561 95.1383 184.433 94.8247 184.177 94.6029C183.926 94.381 183.567 94.2701 183.102 94.2701C182.612 94.2701 182.221 94.3789 181.931 94.5965C181.641 94.8098 181.449 95.0786 181.355 95.4028L178.834 95.198C178.962 94.6008 179.213 94.0845 179.589 93.6494C179.964 93.21 180.449 92.8729 181.042 92.6383C181.639 92.3994 182.33 92.2799 183.115 92.2799C183.661 92.2799 184.184 92.3439 184.683 92.4719C185.186 92.5999 185.632 92.7983 186.02 93.067C186.413 93.3358 186.722 93.6814 186.948 94.1037C187.174 94.5218 187.287 95.0231 187.287 95.6076V102.237H184.702V100.874H184.625C184.467 101.181 184.256 101.452 183.992 101.687C183.727 101.917 183.409 102.099 183.038 102.231C182.667 102.359 182.238 102.423 181.752 102.423ZM182.533 100.541C182.934 100.541 183.288 100.463 183.595 100.305C183.902 100.143 184.143 99.925 184.318 99.652C184.493 99.3789 184.58 99.0696 184.58 98.7241V97.681C184.495 97.7364 184.378 97.7876 184.228 97.8346C184.083 97.8772 183.919 97.9177 183.736 97.9561C183.552 97.9903 183.369 98.0223 183.185 98.0521C183.002 98.0777 182.836 98.1012 182.686 98.1225C182.366 98.1695 182.087 98.2441 181.848 98.3465C181.609 98.4489 181.423 98.5875 181.291 98.7625C181.159 98.9331 181.093 99.1464 181.093 99.4024C181.093 99.7736 181.227 100.057 181.496 100.254C181.769 100.445 182.115 100.541 182.533 100.541ZM192.128 96.5547V102.237H189.402V92.4079H192V94.1421H192.116C192.333 93.5705 192.698 93.1182 193.21 92.7855C193.722 92.4484 194.343 92.2799 195.072 92.2799C195.755 92.2799 196.35 92.4292 196.858 92.7279C197.365 93.0265 197.76 93.4531 198.041 94.0078C198.323 94.5581 198.464 95.2151 198.464 95.9787V102.237H195.738V96.4651C195.742 95.8636 195.588 95.3943 195.277 95.0572C194.965 94.7159 194.537 94.5453 193.991 94.5453C193.624 94.5453 193.3 94.6242 193.018 94.7821C192.741 94.9399 192.523 95.1703 192.365 95.4732C192.212 95.7718 192.133 96.1323 192.128 96.5547ZM209.424 92.4079L205.988 102.237H202.916L199.48 92.4079H202.359L204.401 99.4408H204.503L206.538 92.4079H209.424ZM213.358 102.423C212.731 102.423 212.172 102.314 211.682 102.097C211.191 101.875 210.803 101.548 210.517 101.117C210.235 100.682 210.095 100.14 210.095 99.492C210.095 98.9459 210.195 98.4873 210.395 98.1161C210.596 97.745 210.869 97.4463 211.214 97.2202C211.56 96.9941 211.953 96.8235 212.392 96.7083C212.836 96.5931 213.301 96.512 213.787 96.4651C214.359 96.4054 214.819 96.3499 215.169 96.2987C215.519 96.2433 215.773 96.1622 215.931 96.0555C216.089 95.9489 216.168 95.791 216.168 95.582V95.5436C216.168 95.1383 216.04 94.8247 215.784 94.6029C215.532 94.381 215.174 94.2701 214.709 94.2701C214.218 94.2701 213.828 94.3789 213.537 94.5965C213.247 94.8098 213.055 95.0786 212.961 95.4028L210.44 95.198C210.568 94.6008 210.82 94.0845 211.195 93.6494C211.571 93.21 212.055 92.8729 212.648 92.6383C213.245 92.3994 213.936 92.2799 214.721 92.2799C215.267 92.2799 215.79 92.3439 216.289 92.4719C216.793 92.5999 217.238 92.7983 217.627 93.067C218.019 93.3358 218.328 93.6814 218.555 94.1037C218.781 94.5218 218.894 95.0231 218.894 95.6076V102.237H216.308V100.874H216.232C216.074 101.181 215.863 101.452 215.598 101.687C215.334 101.917 215.016 102.099 214.645 102.231C214.273 102.359 213.845 102.423 213.358 102.423ZM214.139 100.541C214.54 100.541 214.894 100.463 215.201 100.305C215.508 100.143 215.749 99.925 215.924 99.652C216.099 99.3789 216.187 99.0696 216.187 98.7241V97.681C216.101 97.7364 215.984 97.7876 215.835 97.8346C215.69 97.8772 215.525 97.9177 215.342 97.9561C215.159 97.9903 214.975 98.0223 214.792 98.0521C214.608 98.0777 214.442 98.1012 214.293 98.1225C213.973 98.1695 213.693 98.2441 213.454 98.3465C213.215 98.4489 213.03 98.5875 212.897 98.7625C212.765 98.9331 212.699 99.1464 212.699 99.4024C212.699 99.7736 212.833 100.057 213.102 100.254C213.375 100.445 213.721 100.541 214.139 100.541ZM229.187 95.2108L226.691 95.3644C226.649 95.1511 226.557 94.9591 226.416 94.7885C226.275 94.6136 226.09 94.4749 225.859 94.3725C225.633 94.2659 225.362 94.2125 225.047 94.2125C224.624 94.2125 224.268 94.3021 223.978 94.4813C223.688 94.6562 223.543 94.8909 223.543 95.1852C223.543 95.4199 223.637 95.6183 223.824 95.7804C224.012 95.9425 224.334 96.0726 224.791 96.1707L226.57 96.5291C227.525 96.7253 228.238 97.041 228.707 97.4762C229.176 97.9113 229.411 98.483 229.411 99.1912C229.411 99.8354 229.221 100.401 228.841 100.887C228.466 101.373 227.95 101.753 227.293 102.026C226.64 102.295 225.887 102.429 225.034 102.429C223.733 102.429 222.696 102.158 221.924 101.617C221.156 101.07 220.706 100.328 220.574 99.3896L223.255 99.2488C223.336 99.6456 223.532 99.9485 223.844 100.158C224.155 100.362 224.554 100.465 225.04 100.465C225.518 100.465 225.902 100.373 226.192 100.19C226.486 100.002 226.636 99.7608 226.64 99.4664C226.636 99.2189 226.531 99.0163 226.327 98.8585C226.122 98.6963 225.806 98.5726 225.379 98.4873L223.677 98.1481C222.717 97.9561 222.003 97.6234 221.533 97.1498C221.068 96.6763 220.836 96.0726 220.836 95.3388C220.836 94.7074 221.007 94.1635 221.348 93.707C221.693 93.2505 222.178 92.8985 222.8 92.6511C223.428 92.4036 224.161 92.2799 225.002 92.2799C226.243 92.2799 227.22 92.5423 227.933 93.067C228.649 93.5918 229.068 94.3064 229.187 95.2108Z" fill="#A6A6A6"/>
<path d="M341.487 0.141602L344.409 9.13463H353.865L346.215 14.6926L349.137 23.6857L341.487 18.1277L333.838 23.6857L336.76 14.6926L329.11 9.13463H338.565L341.487 0.141602Z" fill="#FFC728"/>
<path d="M370.521 0.141357L373.443 9.13439H382.898L375.248 14.6924L378.17 23.6854L370.521 18.1274L362.871 23.6854L365.793 14.6924L358.143 9.13439H367.599L370.521 0.141357Z" fill="#FFC728"/>
<path d="M399.554 0.141357L402.476 9.13439H411.931L404.282 14.6924L407.204 23.6854L399.554 18.1274L391.904 23.6854L394.826 14.6924L387.176 9.13439H396.632L399.554 0.141357Z" fill="#FFC728"/>
<path d="M428.587 0.141357L431.509 9.13439H440.965L433.315 14.6924L436.237 23.6854L428.587 18.1274L420.937 23.6854L423.859 14.6924L416.209 9.13439H425.665L428.587 0.141357Z" fill="#FFC728"/>
<path d="M457.62 0.141357L460.542 9.13439H469.998L462.348 14.6924L465.27 23.6854L457.62 18.1274L449.97 23.6854L452.892 14.6924L445.242 9.13439H454.698L457.62 0.141357Z" fill="#BBBBBB"/>
<path d="M329.337 59.8879V57.7057L334.808 49.0858H336.689V52.1063H335.576L332.127 57.5649V57.6673H339.902V59.8879H329.337ZM335.627 62.1917V59.2224L335.678 58.2561V49.0858H338.276V62.1917H335.627ZM343.121 62.358C342.698 62.358 342.336 62.2087 342.033 61.9101C341.734 61.6072 341.585 61.2445 341.585 60.8222C341.585 60.4041 341.734 60.0457 342.033 59.7471C342.336 59.4485 342.698 59.2991 343.121 59.2991C343.53 59.2991 343.889 59.4485 344.196 59.7471C344.503 60.0457 344.657 60.4041 344.657 60.8222C344.657 61.1038 344.584 61.3619 344.439 61.5965C344.298 61.8269 344.113 62.0125 343.882 62.1533C343.652 62.2898 343.398 62.358 343.121 62.358ZM346.895 62.1917L352.328 51.4408V51.3512H345.999V49.0858H355.195V51.3832L349.755 62.1917H346.895ZM366.218 48.4715L361.994 64.1626H360.612L364.835 48.4715H366.218ZM377.28 62.3708C376.478 62.3708 375.757 62.2172 375.117 61.9101C374.482 61.5986 373.974 61.172 373.594 60.6302C373.215 60.0884 373.012 59.4698 372.986 58.7744H374.906C374.953 59.3375 375.203 59.8004 375.655 60.1631C376.107 60.5257 376.649 60.707 377.28 60.707C377.784 60.707 378.23 60.5918 378.618 60.3614C379.01 60.1268 379.318 59.8047 379.539 59.3951C379.765 58.9856 379.879 58.5184 379.879 57.9937C379.879 57.4604 379.763 56.9847 379.533 56.5666C379.303 56.1485 378.985 55.82 378.579 55.5811C378.178 55.3422 377.718 55.2206 377.197 55.2164C376.8 55.2164 376.402 55.2846 376.001 55.4211C375.599 55.5577 375.275 55.7368 375.028 55.9587L373.217 55.6899L373.953 49.0858H381.158V50.7816H375.597L375.181 54.4484H375.258C375.514 54.201 375.853 53.9941 376.276 53.8277C376.702 53.6613 377.159 53.5781 377.645 53.5781C378.443 53.5781 379.153 53.768 379.776 54.1477C380.403 54.5274 380.896 55.0457 381.254 55.7027C381.617 56.3555 381.796 57.1063 381.792 57.9553C381.796 58.8043 381.604 59.5615 381.216 60.2271C380.832 60.8926 380.299 61.4173 379.616 61.8013C378.938 62.181 378.159 62.3708 377.28 62.3708ZM388.924 62.1917V52.3623H390.773V53.9237H390.876C391.055 53.3947 391.371 52.9787 391.823 52.6758C392.279 52.3687 392.796 52.2151 393.372 52.2151C393.491 52.2151 393.632 52.2193 393.794 52.2279C393.96 52.2364 394.09 52.2471 394.184 52.2599V54.0901C394.107 54.0688 393.971 54.0453 393.775 54.0197C393.578 53.9898 393.382 53.9749 393.186 53.9749C392.734 53.9749 392.331 54.0709 391.976 54.2629C391.627 54.4506 391.349 54.713 391.145 55.05C390.94 55.3827 390.837 55.7624 390.837 56.1891V62.1917H388.924ZM398.613 62.4092C397.99 62.4092 397.427 62.294 396.923 62.0637C396.42 61.829 396.021 61.4899 395.726 61.0462C395.436 60.6025 395.291 60.0585 395.291 59.4143C395.291 58.8597 395.398 58.4032 395.611 58.0449C395.825 57.6865 396.113 57.4028 396.475 57.1938C396.838 56.9847 397.243 56.8269 397.691 56.7202C398.139 56.6136 398.596 56.5325 399.061 56.477C399.649 56.4088 400.127 56.3533 400.494 56.3107C400.861 56.2637 401.128 56.1891 401.294 56.0867C401.46 55.9843 401.543 55.8179 401.543 55.5875V55.5427C401.543 54.9839 401.386 54.5508 401.07 54.2437C400.758 53.9365 400.293 53.7829 399.675 53.7829C399.031 53.7829 398.523 53.9258 398.152 54.2117C397.785 54.4932 397.531 54.8068 397.39 55.1524L395.592 54.7428C395.805 54.1455 396.117 53.6635 396.526 53.2966C396.94 52.9254 397.416 52.6566 397.953 52.4902C398.491 52.3196 399.056 52.2343 399.649 52.2343C400.042 52.2343 400.458 52.2812 400.897 52.3751C401.341 52.4647 401.755 52.631 402.139 52.8742C402.527 53.1174 402.845 53.4651 403.092 53.9173C403.34 54.3653 403.463 54.9476 403.463 55.6643V62.1917H401.595V60.8478H401.518C401.394 61.0952 401.209 61.3384 400.961 61.5773C400.714 61.8162 400.396 62.0146 400.008 62.1725C399.619 62.3303 399.154 62.4092 398.613 62.4092ZM399.029 60.8734C399.558 60.8734 400.01 60.7689 400.385 60.5598C400.765 60.3508 401.053 60.0777 401.249 59.7407C401.45 59.3994 401.55 59.0346 401.55 58.6464V57.3793C401.482 57.4476 401.349 57.5116 401.153 57.5713C400.961 57.6268 400.741 57.6758 400.494 57.7185C400.247 57.7569 400.006 57.7932 399.771 57.8273C399.536 57.8572 399.34 57.8828 399.182 57.9041C398.811 57.951 398.472 58.0299 398.165 58.1409C397.862 58.2518 397.619 58.4118 397.435 58.6208C397.256 58.8256 397.166 59.0986 397.166 59.4399C397.166 59.9135 397.341 60.2718 397.691 60.515C398.041 60.7539 398.487 60.8734 399.029 60.8734ZM410.6 52.3623V53.8981H405.231V52.3623H410.6ZM406.671 50.0073H408.584V59.3055C408.584 59.6767 408.64 59.9561 408.751 60.1439C408.862 60.3273 409.005 60.4532 409.179 60.5214C409.359 60.5854 409.553 60.6174 409.762 60.6174C409.915 60.6174 410.05 60.6067 410.165 60.5854C410.28 60.5641 410.37 60.547 410.434 60.5342L410.779 62.1149C410.668 62.1575 410.511 62.2002 410.306 62.2428C410.101 62.2898 409.845 62.3154 409.538 62.3196C409.034 62.3282 408.565 62.2386 408.13 62.0509C407.695 61.8632 407.343 61.573 407.074 61.1806C406.805 60.7881 406.671 60.2953 406.671 59.7023V50.0073ZM412.717 62.1917V52.3623H414.63V62.1917H412.717ZM413.683 50.8456C413.35 50.8456 413.064 50.7347 412.826 50.5128C412.591 50.2867 412.474 50.018 412.474 49.7065C412.474 49.3908 412.591 49.1221 412.826 48.9002C413.064 48.6741 413.35 48.5611 413.683 48.5611C414.016 48.5611 414.3 48.6741 414.534 48.9002C414.773 49.1221 414.893 49.3908 414.893 49.7065C414.893 50.018 414.773 50.2867 414.534 50.5128C414.3 50.7347 414.016 50.8456 413.683 50.8456ZM419.118 56.3554V62.1917H417.204V52.3623H419.041V53.9621H419.162C419.389 53.4416 419.743 53.0235 420.225 52.7078C420.711 52.3921 421.323 52.2343 422.061 52.2343C422.731 52.2343 423.318 52.3751 423.821 52.6566C424.325 52.9339 424.715 53.3478 424.992 53.8981C425.27 54.4484 425.408 55.1289 425.408 55.9395V62.1917H423.495V56.1699C423.495 55.4574 423.309 54.9007 422.938 54.4996C422.567 54.0943 422.057 53.8917 421.409 53.8917C420.965 53.8917 420.57 53.9877 420.225 54.1797C419.883 54.3717 419.613 54.6532 419.412 55.0244C419.216 55.3913 419.118 55.835 419.118 56.3554ZM432.096 66.0825C431.315 66.0825 430.643 65.9801 430.08 65.7753C429.521 65.5705 429.064 65.2996 428.71 64.9626C428.356 64.6255 428.092 64.2565 427.917 63.8555L429.561 63.1771C429.677 63.3649 429.83 63.5632 430.022 63.7723C430.218 63.9856 430.483 64.1669 430.816 64.3162C431.153 64.4656 431.586 64.5402 432.115 64.5402C432.84 64.5402 433.439 64.3632 433.913 64.0091C434.387 63.6592 434.623 63.1004 434.623 62.3324V60.3998H434.502C434.387 60.6089 434.22 60.8414 434.003 61.0974C433.789 61.3533 433.495 61.5752 433.119 61.7629C432.744 61.9506 432.256 62.0445 431.654 62.0445C430.878 62.0445 430.178 61.8632 429.555 61.5005C428.936 61.1336 428.446 60.5939 428.083 59.8815C427.725 59.1648 427.546 58.2838 427.546 57.2386C427.546 56.1933 427.723 55.2974 428.077 54.5508C428.435 53.8042 428.926 53.2326 429.549 52.8358C430.171 52.4348 430.878 52.2343 431.667 52.2343C432.277 52.2343 432.77 52.3367 433.145 52.5414C433.52 52.742 433.813 52.9766 434.022 53.2454C434.235 53.5141 434.399 53.7509 434.514 53.9557H434.655V52.3623H436.53V62.4092C436.53 63.2539 436.334 63.9472 435.942 64.489C435.549 65.0308 435.018 65.4319 434.348 65.6921C433.683 65.9523 432.932 66.0825 432.096 66.0825ZM432.076 60.4574C432.627 60.4574 433.092 60.3294 433.471 60.0735C433.855 59.8132 434.145 59.4421 434.342 58.96C434.542 58.4736 434.642 57.8913 434.642 57.213C434.642 56.5517 434.544 55.9694 434.348 55.4659C434.152 54.9625 433.864 54.57 433.484 54.2885C433.105 54.0026 432.635 53.8597 432.076 53.8597C431.5 53.8597 431.02 54.009 430.636 54.3077C430.253 54.602 429.962 55.0031 429.766 55.5107C429.574 56.0184 429.478 56.5858 429.478 57.213C429.478 57.8572 429.576 58.4224 429.773 58.9088C429.969 59.3951 430.259 59.7748 430.643 60.0479C431.031 60.3209 431.509 60.4574 432.076 60.4574Z" fill="#191A15"/>
<path d="M341.175 93.7198H338.372C338.321 93.3572 338.217 93.035 338.059 92.7535C337.901 92.4676 337.698 92.2245 337.451 92.024C337.203 91.8234 336.918 91.6699 336.593 91.5632C336.273 91.4565 335.926 91.4032 335.55 91.4032C334.872 91.4032 334.281 91.5717 333.778 91.9088C333.274 92.2415 332.884 92.7279 332.607 93.3678C332.329 94.0035 332.191 94.7757 332.191 95.6844C332.191 96.6187 332.329 97.4037 332.607 98.0393C332.888 98.675 333.281 99.155 333.784 99.4792C334.287 99.8034 334.87 99.9655 335.531 99.9655C335.902 99.9655 336.246 99.9165 336.561 99.8184C336.881 99.7202 337.165 99.5773 337.412 99.3896C337.66 99.1976 337.865 98.9651 338.027 98.6921C338.193 98.419 338.308 98.1076 338.372 97.7578L341.175 97.7706C341.103 98.3721 340.921 98.9523 340.631 99.5112C340.346 100.066 339.959 100.563 339.473 101.002C338.991 101.437 338.415 101.783 337.745 102.039C337.08 102.291 336.327 102.416 335.486 102.416C334.317 102.416 333.272 102.152 332.351 101.623C331.433 101.094 330.708 100.328 330.175 99.3256C329.646 98.323 329.381 97.1093 329.381 95.6844C329.381 94.2552 329.65 93.0393 330.188 92.0368C330.725 91.0342 331.455 90.2705 332.376 89.7458C333.298 89.2168 334.334 88.9523 335.486 88.9523C336.246 88.9523 336.95 89.0589 337.598 89.2722C338.251 89.4855 338.829 89.797 339.332 90.2065C339.836 90.6118 340.245 91.1088 340.561 91.6976C340.881 92.2863 341.086 92.9604 341.175 93.7198ZM345.837 96.5547V102.237H343.111V89.1315H345.76V94.1421H345.876C346.097 93.5619 346.456 93.1076 346.951 92.7791C347.446 92.4463 348.066 92.2799 348.813 92.2799C349.496 92.2799 350.091 92.4292 350.598 92.7279C351.11 93.0223 351.507 93.4467 351.789 94.0014C352.074 94.5517 352.215 95.2108 352.211 95.9787V102.237H349.485V96.4651C349.489 95.8593 349.336 95.3879 349.024 95.0508C348.717 94.7138 348.286 94.5453 347.731 94.5453C347.36 94.5453 347.032 94.6242 346.746 94.7821C346.464 94.9399 346.243 95.1703 346.08 95.4732C345.923 95.7718 345.841 96.1323 345.837 96.5547ZM357.159 102.423C356.532 102.423 355.973 102.314 355.483 102.097C354.992 101.875 354.604 101.548 354.318 101.117C354.036 100.682 353.896 100.14 353.896 99.492C353.896 98.9459 353.996 98.4873 354.196 98.1161C354.397 97.745 354.67 97.4463 355.015 97.2202C355.361 96.9941 355.754 96.8235 356.193 96.7083C356.637 96.5931 357.102 96.512 357.588 96.4651C358.16 96.4054 358.62 96.3499 358.97 96.2987C359.32 96.2433 359.574 96.1622 359.732 96.0555C359.89 95.9489 359.969 95.791 359.969 95.582V95.5436C359.969 95.1383 359.841 94.8247 359.585 94.6029C359.333 94.381 358.975 94.2701 358.51 94.2701C358.019 94.2701 357.629 94.3789 357.338 94.5965C357.048 94.8098 356.856 95.0786 356.762 95.4028L354.241 95.198C354.369 94.6008 354.621 94.0845 354.996 93.6494C355.372 93.21 355.856 92.8729 356.449 92.6383C357.046 92.3994 357.737 92.2799 358.522 92.2799C359.068 92.2799 359.591 92.3439 360.09 92.4719C360.594 92.5999 361.039 92.7983 361.428 93.067C361.82 93.3358 362.129 93.6814 362.356 94.1037C362.582 94.5218 362.695 95.0231 362.695 95.6076V102.237H360.109V100.874H360.033C359.875 101.181 359.664 101.452 359.399 101.687C359.135 101.917 358.817 102.099 358.446 102.231C358.074 102.359 357.646 102.423 357.159 102.423ZM357.94 100.541C358.341 100.541 358.695 100.463 359.002 100.305C359.309 100.143 359.55 99.925 359.725 99.652C359.9 99.3789 359.988 99.0696 359.988 98.7241V97.681C359.902 97.7364 359.785 97.7876 359.636 97.8346C359.491 97.8772 359.326 97.9177 359.143 97.9561C358.96 97.9903 358.776 98.0223 358.593 98.0521C358.409 98.0777 358.243 98.1012 358.094 98.1225C357.774 98.1695 357.494 98.2441 357.255 98.3465C357.016 98.4489 356.831 98.5875 356.698 98.7625C356.566 98.9331 356.5 99.1464 356.5 99.4024C356.5 99.7736 356.635 100.057 356.903 100.254C357.176 100.445 357.522 100.541 357.94 100.541ZM364.81 102.237V92.4079H367.536V102.237H364.81ZM366.179 91.1408C365.774 91.1408 365.426 91.0065 365.136 90.7377C364.85 90.4646 364.707 90.1383 364.707 89.7586C364.707 89.3832 364.85 89.0611 365.136 88.7923C365.426 88.5192 365.774 88.3827 366.179 88.3827C366.584 88.3827 366.93 88.5192 367.216 88.7923C367.506 89.0611 367.651 89.3832 367.651 89.7586C367.651 90.1383 367.506 90.4646 367.216 90.7377C366.93 91.0065 366.584 91.1408 366.179 91.1408ZM372.446 96.5547V102.237H369.72V92.4079H372.318V94.1421H372.433C372.65 93.5705 373.015 93.1182 373.527 92.7855C374.039 92.4484 374.66 92.2799 375.389 92.2799C376.072 92.2799 376.667 92.4292 377.175 92.7279C377.682 93.0265 378.077 93.4531 378.359 94.0078C378.64 94.5581 378.781 95.2151 378.781 95.9787V102.237H376.055V96.4651C376.059 95.8636 375.906 95.3943 375.594 95.0572C375.283 94.7159 374.854 94.5453 374.308 94.5453C373.941 94.5453 373.617 94.6242 373.335 94.7821C373.058 94.9399 372.84 95.1703 372.682 95.4732C372.529 95.7718 372.45 96.1323 372.446 96.5547ZM383.733 102.423C383.105 102.423 382.547 102.314 382.056 102.097C381.565 101.875 381.177 101.548 380.891 101.117C380.61 100.682 380.469 100.14 380.469 99.492C380.469 98.9459 380.569 98.4873 380.77 98.1161C380.97 97.745 381.243 97.4463 381.589 97.2202C381.934 96.9941 382.327 96.8235 382.766 96.7083C383.21 96.5931 383.675 96.512 384.161 96.4651C384.733 96.4054 385.194 96.3499 385.544 96.2987C385.893 96.2433 386.147 96.1622 386.305 96.0555C386.463 95.9489 386.542 95.791 386.542 95.582V95.5436C386.542 95.1383 386.414 94.8247 386.158 94.6029C385.906 94.381 385.548 94.2701 385.083 94.2701C384.592 94.2701 384.202 94.3789 383.912 94.5965C383.622 94.8098 383.43 95.0786 383.336 95.4028L380.814 95.198C380.942 94.6008 381.194 94.0845 381.57 93.6494C381.945 93.21 382.429 92.8729 383.022 92.6383C383.619 92.3994 384.311 92.2799 385.096 92.2799C385.642 92.2799 386.164 92.3439 386.663 92.4719C387.167 92.5999 387.613 92.7983 388.001 93.067C388.393 93.3358 388.703 93.6814 388.929 94.1037C389.155 94.5218 389.268 95.0231 389.268 95.6076V102.237H386.683V100.874H386.606C386.448 101.181 386.237 101.452 385.972 101.687C385.708 101.917 385.39 102.099 385.019 102.231C384.648 102.359 384.219 102.423 383.733 102.423ZM384.513 100.541C384.914 100.541 385.268 100.463 385.576 100.305C385.883 100.143 386.124 99.925 386.299 99.652C386.474 99.3789 386.561 99.0696 386.561 98.7241V97.681C386.476 97.7364 386.358 97.7876 386.209 97.8346C386.064 97.8772 385.9 97.9177 385.716 97.9561C385.533 97.9903 385.349 98.0223 385.166 98.0521C384.983 98.0777 384.816 98.1012 384.667 98.1225C384.347 98.1695 384.067 98.2441 383.829 98.3465C383.59 98.4489 383.404 98.5875 383.272 98.7625C383.14 98.9331 383.073 99.1464 383.073 99.4024C383.073 99.7736 383.208 100.057 383.477 100.254C383.75 100.445 384.095 100.541 384.513 100.541ZM394.109 89.1315V102.237H391.383V89.1315H394.109ZM397.976 105.923C397.63 105.923 397.306 105.896 397.003 105.84C396.705 105.789 396.457 105.723 396.261 105.642L396.875 103.607C397.195 103.705 397.483 103.758 397.739 103.767C397.999 103.775 398.223 103.716 398.411 103.588C398.603 103.46 398.759 103.242 398.878 102.935L399.038 102.519L395.512 92.4079H398.379L400.414 99.6264H400.516L402.571 92.4079H405.457L401.636 103.3C401.453 103.829 401.203 104.289 400.888 104.682C400.576 105.079 400.181 105.384 399.704 105.597C399.226 105.815 398.65 105.923 397.976 105.923ZM415.03 95.2108L412.534 95.3644C412.492 95.1511 412.4 94.9591 412.259 94.7885C412.118 94.6136 411.933 94.4749 411.702 94.3725C411.476 94.2659 411.205 94.2125 410.89 94.2125C410.467 94.2125 410.111 94.3021 409.821 94.4813C409.531 94.6562 409.386 94.8909 409.386 95.1852C409.386 95.4199 409.48 95.6183 409.667 95.7804C409.855 95.9425 410.177 96.0726 410.634 96.1707L412.413 96.5291C413.368 96.7253 414.081 97.041 414.55 97.4762C415.019 97.9113 415.254 98.483 415.254 99.1912C415.254 99.8354 415.064 100.401 414.685 100.887C414.309 101.373 413.793 101.753 413.136 102.026C412.483 102.295 411.73 102.429 410.877 102.429C409.576 102.429 408.539 102.158 407.767 101.617C406.999 101.07 406.549 100.328 406.417 99.3896L409.098 99.2488C409.179 99.6456 409.375 99.9485 409.687 100.158C409.998 100.362 410.397 100.465 410.883 100.465C411.361 100.465 411.745 100.373 412.035 100.19C412.33 100.002 412.479 99.7608 412.483 99.4664C412.479 99.2189 412.374 99.0163 412.17 98.8585C411.965 98.6963 411.649 98.5726 411.222 98.4873L409.52 98.1481C408.56 97.9561 407.846 97.6234 407.376 97.1498C406.911 96.6763 406.679 96.0726 406.679 95.3388C406.679 94.7074 406.85 94.1635 407.191 93.707C407.536 93.2505 408.021 92.8985 408.644 92.6511C409.271 92.4036 410.004 92.2799 410.845 92.2799C412.086 92.2799 413.063 92.5423 413.776 93.067C414.493 93.5918 414.911 94.3064 415.03 95.2108ZM416.971 102.237V92.4079H419.697V102.237H416.971ZM418.34 91.1408C417.935 91.1408 417.587 91.0065 417.297 90.7377C417.011 90.4646 416.868 90.1383 416.868 89.7586C416.868 89.3832 417.011 89.0611 417.297 88.7923C417.587 88.5192 417.935 88.3827 418.34 88.3827C418.745 88.3827 419.091 88.5192 419.377 88.7923C419.667 89.0611 419.812 89.3832 419.812 89.7586C419.812 90.1383 419.667 90.4646 419.377 90.7377C419.091 91.0065 418.745 91.1408 418.34 91.1408ZM430.059 95.2108L427.563 95.3644C427.521 95.1511 427.429 94.9591 427.288 94.7885C427.147 94.6136 426.962 94.4749 426.731 94.3725C426.505 94.2659 426.234 94.2125 425.919 94.2125C425.496 94.2125 425.14 94.3021 424.85 94.4813C424.56 94.6562 424.415 94.8909 424.415 95.1852C424.415 95.4199 424.509 95.6183 424.696 95.7804C424.884 95.9425 425.206 96.0726 425.663 96.1707L427.442 96.5291C428.397 96.7253 429.11 97.041 429.579 97.4762C430.048 97.9113 430.283 98.483 430.283 99.1912C430.283 99.8354 430.093 100.401 429.713 100.887C429.338 101.373 428.822 101.753 428.165 102.026C427.512 102.295 426.759 102.429 425.906 102.429C424.605 102.429 423.568 102.158 422.796 101.617C422.028 101.07 421.578 100.328 421.445 99.3896L424.127 99.2488C424.208 99.6456 424.404 99.9485 424.716 100.158C425.027 100.362 425.426 100.465 425.912 100.465C426.39 100.465 426.774 100.373 427.064 100.19C427.358 100.002 427.508 99.7608 427.512 99.4664C427.508 99.2189 427.403 99.0163 427.198 98.8585C426.994 98.6963 426.678 98.5726 426.251 98.4873L424.549 98.1481C423.589 97.9561 422.875 97.6234 422.405 97.1498C421.94 96.6763 421.708 96.0726 421.708 95.3388C421.708 94.7074 421.878 94.1635 422.22 93.707C422.565 93.2505 423.05 92.8985 423.672 92.6511C424.3 92.4036 425.033 92.2799 425.874 92.2799C427.115 92.2799 428.092 92.5423 428.805 93.067C429.521 93.5918 429.94 94.3064 430.059 95.2108Z" fill="#A6A6A6"/>
<path d="M505.65 0.141602L508.572 9.13463H518.027L510.377 14.6926L513.299 23.6857L505.65 18.1277L498 23.6857L500.922 14.6926L493.272 9.13463H502.728L505.65 0.141602Z" fill="#FFC728"/>
<path d="M534.683 0.141357L537.605 9.13439H547.06L539.411 14.6924L542.333 23.6854L534.683 18.1274L527.033 23.6854L529.955 14.6924L522.305 9.13439H531.761L534.683 0.141357Z" fill="#FFC728"/>
<path d="M563.716 0.141357L566.638 9.13439H576.094L568.444 14.6924L571.366 23.6854L563.716 18.1274L556.066 23.6854L558.988 14.6924L551.338 9.13439H560.794L563.716 0.141357Z" fill="#FFC728"/>
<path d="M592.749 0.141357L595.671 9.13439H605.127L597.477 14.6924L600.399 23.6854L592.749 18.1274L585.099 23.6854L588.021 14.6924L580.371 9.13439H589.827L592.749 0.141357Z" fill="#FFC728"/>
<path d="M621.782 0.141357L624.704 9.13439H634.16L626.51 14.6924L629.432 23.6854L621.782 18.1274L614.132 23.6854L617.054 14.6924L609.404 9.13439H618.86L621.782 0.141357Z" fill="#BBBBBB"/>
<path d="M493.499 59.8879V57.7057L498.97 49.0858H500.851V52.1063H499.738L496.289 57.5649V57.6673H504.064V59.8879H493.499ZM499.789 62.1917V59.2224L499.84 58.2561V49.0858H502.438V62.1917H499.789ZM507.283 62.358C506.86 62.358 506.498 62.2087 506.195 61.9101C505.896 61.6072 505.747 61.2445 505.747 60.8222C505.747 60.4041 505.896 60.0457 506.195 59.7471C506.498 59.4485 506.86 59.2991 507.283 59.2991C507.692 59.2991 508.051 59.4485 508.358 59.7471C508.665 60.0457 508.819 60.4041 508.819 60.8222C508.819 61.1038 508.746 61.3619 508.601 61.5965C508.46 61.8269 508.275 62.0125 508.044 62.1533C507.814 62.2898 507.56 62.358 507.283 62.358ZM515.533 62.3708C514.859 62.3666 514.208 62.2535 513.581 62.0317C512.958 61.8098 512.4 61.4493 511.905 60.9502C511.41 60.451 511.017 59.7898 510.727 58.9664C510.441 58.143 510.298 57.1319 510.298 55.9331C510.303 54.8324 510.429 53.849 510.676 52.983C510.928 52.1127 511.286 51.3746 511.751 50.7688C512.22 50.163 512.781 49.7023 513.434 49.3866C514.087 49.0666 514.819 48.9066 515.629 48.9066C516.504 48.9066 517.276 49.0773 517.946 49.4186C518.616 49.7556 519.153 50.2142 519.558 50.7944C519.968 51.3746 520.215 52.0252 520.301 52.7462H517.568C517.461 52.2897 517.238 51.9314 516.896 51.6711C516.555 51.4109 516.133 51.2808 515.629 51.2808C514.776 51.2808 514.127 51.6519 513.684 52.3943C513.244 53.1366 513.02 54.1455 513.012 55.4211H513.101C513.298 55.0329 513.562 54.7023 513.895 54.4292C514.232 54.1519 514.614 53.9408 515.04 53.7957C515.471 53.6464 515.926 53.5717 516.403 53.5717C517.18 53.5717 517.871 53.7552 518.477 54.1221C519.083 54.4847 519.56 54.9839 519.91 55.6195C520.26 56.2552 520.435 56.9826 520.435 57.8017C520.435 58.6891 520.228 59.4783 519.814 60.1695C519.405 60.8606 518.831 61.4024 518.093 61.7949C517.359 62.1831 516.506 62.3751 515.533 62.3708ZM515.52 60.1951C515.947 60.1951 516.329 60.0927 516.666 59.8879C517.003 59.6831 517.267 59.4058 517.459 59.056C517.651 58.7061 517.747 58.3136 517.747 57.8785C517.747 57.4433 517.651 57.053 517.459 56.7074C517.272 56.3618 517.011 56.0867 516.679 55.8819C516.346 55.6771 515.966 55.5747 515.54 55.5747C515.22 55.5747 514.923 55.6345 514.65 55.7539C514.381 55.8734 514.144 56.0397 513.94 56.2531C513.739 56.4664 513.581 56.7138 513.466 56.9954C513.351 57.2727 513.293 57.5692 513.293 57.8849C513.293 58.3072 513.389 58.6933 513.581 59.0432C513.778 59.393 514.042 59.6724 514.375 59.8815C514.712 60.0905 515.094 60.1951 515.52 60.1951ZM532.421 48.4715L528.197 64.1626H526.815L531.039 48.4715H532.421ZM543.484 62.3708C542.682 62.3708 541.961 62.2172 541.321 61.9101C540.685 61.5986 540.178 61.172 539.798 60.6302C539.418 60.0884 539.216 59.4698 539.19 58.7744H541.11C541.157 59.3375 541.406 59.8004 541.858 60.1631C542.311 60.5257 542.852 60.707 543.484 60.707C543.987 60.707 544.433 60.5918 544.821 60.3614C545.214 60.1268 545.521 59.8047 545.743 59.3951C545.969 58.9856 546.082 58.5184 546.082 57.9937C546.082 57.4604 545.967 56.9847 545.736 56.5666C545.506 56.1485 545.188 55.82 544.783 55.5811C544.382 55.3422 543.921 55.2206 543.401 55.2164C543.004 55.2164 542.605 55.2846 542.204 55.4211C541.803 55.5577 541.479 55.7368 541.231 55.9587L539.42 55.6899L540.156 49.0858H547.362V50.7816H541.801L541.385 54.4484H541.462C541.718 54.201 542.057 53.9941 542.479 53.8277C542.906 53.6613 543.362 53.5781 543.849 53.5781C544.646 53.5781 545.357 53.768 545.98 54.1477C546.607 54.5274 547.1 55.0457 547.458 55.7027C547.821 56.3555 548 57.1063 547.995 57.9553C548 58.8043 547.808 59.5615 547.419 60.2271C547.036 60.8926 546.502 61.4173 545.82 61.8013C545.141 62.181 544.363 62.3708 543.484 62.3708ZM555.127 62.1917V52.3623H556.977V53.9237H557.079C557.258 53.3947 557.574 52.9787 558.026 52.6758C558.483 52.3687 558.999 52.2151 559.575 52.2151C559.694 52.2151 559.835 52.2193 559.997 52.2279C560.164 52.2364 560.294 52.2471 560.388 52.2599V54.0901C560.311 54.0688 560.174 54.0453 559.978 54.0197C559.782 53.9898 559.586 53.9749 559.389 53.9749C558.937 53.9749 558.534 54.0709 558.18 54.2629C557.83 54.4506 557.553 54.713 557.348 55.05C557.143 55.3827 557.041 55.7624 557.041 56.1891V62.1917H555.127ZM564.816 62.4092C564.193 62.4092 563.63 62.294 563.127 62.0637C562.623 61.829 562.224 61.4899 561.93 61.0462C561.64 60.6025 561.495 60.0585 561.495 59.4143C561.495 58.8597 561.601 58.4032 561.815 58.0449C562.028 57.6865 562.316 57.4028 562.679 57.1938C563.041 56.9847 563.447 56.8269 563.895 56.7202C564.343 56.6136 564.799 56.5325 565.264 56.477C565.853 56.4088 566.331 56.3533 566.697 56.3107C567.064 56.2637 567.331 56.1891 567.497 56.0867C567.664 55.9843 567.747 55.8179 567.747 55.5875V55.5427C567.747 54.9839 567.589 54.5508 567.273 54.2437C566.962 53.9365 566.497 53.7829 565.878 53.7829C565.234 53.7829 564.726 53.9258 564.355 54.2117C563.988 54.4932 563.735 54.8068 563.594 55.1524L561.796 54.7428C562.009 54.1455 562.32 53.6635 562.73 53.2966C563.144 52.9254 563.619 52.6566 564.157 52.4902C564.694 52.3196 565.26 52.2343 565.853 52.2343C566.245 52.2343 566.661 52.2812 567.101 52.3751C567.544 52.4647 567.958 52.631 568.342 52.8742C568.73 53.1174 569.048 53.4651 569.296 53.9173C569.543 54.3653 569.667 54.9476 569.667 55.6643V62.1917H567.798V60.8478H567.721C567.598 61.0952 567.412 61.3384 567.165 61.5773C566.917 61.8162 566.599 62.0146 566.211 62.1725C565.823 62.3303 565.358 62.4092 564.816 62.4092ZM565.232 60.8734C565.761 60.8734 566.213 60.7689 566.589 60.5598C566.968 60.3508 567.256 60.0777 567.453 59.7407C567.653 59.3994 567.753 59.0346 567.753 58.6464V57.3793C567.685 57.4476 567.553 57.5116 567.357 57.5713C567.165 57.6268 566.945 57.6758 566.697 57.7185C566.45 57.7569 566.209 57.7932 565.974 57.8273C565.74 57.8572 565.543 57.8828 565.386 57.9041C565.014 57.951 564.675 58.0299 564.368 58.1409C564.065 58.2518 563.822 58.4118 563.639 58.6208C563.459 58.8256 563.37 59.0986 563.37 59.4399C563.37 59.9135 563.545 60.2718 563.895 60.515C564.244 60.7539 564.69 60.8734 565.232 60.8734ZM576.804 52.3623V53.8981H571.435V52.3623H576.804ZM572.874 50.0073H574.788V59.3055C574.788 59.6767 574.843 59.9561 574.954 60.1439C575.065 60.3273 575.208 60.4532 575.383 60.5214C575.562 60.5854 575.756 60.6174 575.965 60.6174C576.119 60.6174 576.253 60.6067 576.369 60.5854C576.484 60.5641 576.573 60.547 576.637 60.5342L576.983 62.1149C576.872 62.1575 576.714 62.2002 576.509 62.2428C576.305 62.2898 576.049 62.3154 575.741 62.3196C575.238 62.3282 574.769 62.2386 574.334 62.0509C573.898 61.8632 573.546 61.573 573.278 61.1806C573.009 60.7881 572.874 60.2953 572.874 59.7023V50.0073ZM578.92 62.1917V52.3623H580.834V62.1917H578.92ZM579.887 50.8456C579.554 50.8456 579.268 50.7347 579.029 50.5128C578.794 50.2867 578.677 50.018 578.677 49.7065C578.677 49.3908 578.794 49.1221 579.029 48.9002C579.268 48.6741 579.554 48.5611 579.887 48.5611C580.219 48.5611 580.503 48.6741 580.738 48.9002C580.977 49.1221 581.096 49.3908 581.096 49.7065C581.096 50.018 580.977 50.2867 580.738 50.5128C580.503 50.7347 580.219 50.8456 579.887 50.8456ZM585.321 56.3554V62.1917H583.408V52.3623H585.244V53.9621H585.366C585.592 53.4416 585.946 53.0235 586.428 52.7078C586.915 52.3921 587.527 52.2343 588.265 52.2343C588.935 52.2343 589.521 52.3751 590.025 52.6566C590.528 52.9339 590.918 53.3478 591.196 53.8981C591.473 54.4484 591.612 55.1289 591.612 55.9395V62.1917H589.698V56.1699C589.698 55.4574 589.513 54.9007 589.142 54.4996C588.77 54.0943 588.261 53.8917 587.612 53.8917C587.168 53.8917 586.774 53.9877 586.428 54.1797C586.087 54.3717 585.816 54.6532 585.616 55.0244C585.419 55.3913 585.321 55.835 585.321 56.3554ZM598.299 66.0825C597.518 66.0825 596.846 65.9801 596.283 65.7753C595.724 65.5705 595.268 65.2996 594.914 64.9626C594.56 64.6255 594.295 64.2565 594.12 63.8555L595.765 63.1771C595.88 63.3649 596.034 63.5632 596.226 63.7723C596.422 63.9856 596.686 64.1669 597.019 64.3162C597.356 64.4656 597.789 64.5402 598.318 64.5402C599.044 64.5402 599.643 64.3632 600.116 64.0091C600.59 63.6592 600.827 63.1004 600.827 62.3324V60.3998H600.705C600.59 60.6089 600.424 60.8414 600.206 61.0974C599.993 61.3533 599.698 61.5752 599.323 61.7629C598.948 61.9506 598.459 62.0445 597.857 62.0445C597.081 62.0445 596.381 61.8632 595.759 61.5005C595.14 61.1336 594.649 60.5939 594.287 59.8815C593.928 59.1648 593.749 58.2838 593.749 57.2386C593.749 56.1933 593.926 55.2974 594.28 54.5508C594.639 53.8042 595.129 53.2326 595.752 52.8358C596.375 52.4348 597.081 52.2343 597.87 52.2343C598.48 52.2343 598.973 52.3367 599.349 52.5414C599.724 52.742 600.016 52.9766 600.225 53.2454C600.439 53.5141 600.603 53.7509 600.718 53.9557H600.859V52.3623H602.734V62.4092C602.734 63.2539 602.538 63.9472 602.145 64.489C601.753 65.0308 601.221 65.4319 600.552 65.6921C599.886 65.9523 599.135 66.0825 598.299 66.0825ZM598.28 60.4574C598.83 60.4574 599.295 60.3294 599.675 60.0735C600.059 59.8132 600.349 59.4421 600.545 58.96C600.746 58.4736 600.846 57.8913 600.846 57.213C600.846 56.5517 600.748 55.9694 600.552 55.4659C600.355 54.9625 600.067 54.57 599.688 54.2885C599.308 54.0026 598.839 53.8597 598.28 53.8597C597.704 53.8597 597.224 54.009 596.84 54.3077C596.456 54.602 596.166 55.0031 595.97 55.5107C595.778 56.0184 595.682 56.5858 595.682 57.213C595.682 57.8572 595.78 58.4224 595.976 58.9088C596.172 59.3951 596.462 59.7748 596.846 60.0479C597.235 60.3209 597.712 60.4574 598.28 60.4574Z" fill="#191A15"/>
<path d="M493.774 102.237V89.1315H498.944C499.938 89.1315 500.785 89.3213 501.485 89.701C502.185 90.0764 502.718 90.599 503.085 91.2688C503.456 91.9344 503.642 92.7023 503.642 93.5726C503.642 94.4429 503.454 95.2108 503.078 95.8764C502.703 96.5419 502.159 97.0602 501.447 97.4314C500.738 97.8026 499.881 97.9881 498.874 97.9881H495.578V95.7676H498.426C498.959 95.7676 499.399 95.6758 499.744 95.4924C500.094 95.3047 500.354 95.0466 500.525 94.7181C500.7 94.3853 500.787 94.0035 500.787 93.5726C500.787 93.1374 500.7 92.7577 500.525 92.4335C500.354 92.105 500.094 91.8512 499.744 91.672C499.395 91.4885 498.951 91.3968 498.413 91.3968H496.545V102.237H493.774ZM509.711 102.429C508.7 102.429 507.83 102.225 507.1 101.815C506.375 101.401 505.816 100.817 505.424 100.062C505.031 99.3021 504.835 98.4041 504.835 97.3674C504.835 96.3563 505.031 95.4689 505.424 94.7053C505.816 93.9416 506.369 93.3465 507.081 92.9199C507.798 92.4932 508.638 92.2799 509.603 92.2799C510.251 92.2799 510.855 92.3845 511.414 92.5935C511.977 92.7983 512.467 93.1076 512.885 93.5214C513.308 93.9352 513.636 94.4557 513.871 95.0828C514.106 95.7057 514.223 96.4352 514.223 97.2714V98.0201H505.923V96.3307H511.657C511.657 95.9382 511.571 95.5905 511.401 95.2876C511.23 94.9847 510.993 94.7479 510.69 94.5773C510.392 94.4024 510.044 94.3149 509.647 94.3149C509.234 94.3149 508.867 94.4109 508.547 94.6029C508.231 94.7906 507.984 95.0444 507.804 95.3644C507.625 95.6801 507.533 96.0321 507.529 96.4203V98.0265C507.529 98.5129 507.619 98.9331 507.798 99.2872C507.981 99.6413 508.24 99.9143 508.572 100.106C508.905 100.298 509.3 100.394 509.756 100.394C510.059 100.394 510.336 100.352 510.588 100.266C510.84 100.181 511.055 100.053 511.234 99.8823C511.414 99.7117 511.55 99.5027 511.644 99.2552L514.165 99.4216C514.037 100.027 513.775 100.556 513.378 101.009C512.986 101.457 512.478 101.806 511.855 102.058C511.237 102.306 510.522 102.429 509.711 102.429ZM518.728 96.5547V102.237H516.002V92.4079H518.6V94.1421H518.715C518.933 93.5705 519.298 93.1182 519.81 92.7855C520.321 92.4484 520.942 92.2799 521.672 92.2799C522.354 92.2799 522.949 92.4292 523.457 92.7279C523.965 93.0265 524.359 93.4531 524.641 94.0078C524.923 94.5581 525.063 95.2151 525.063 95.9787V102.237H522.337V96.4651C522.342 95.8636 522.188 95.3943 521.876 95.0572C521.565 94.7159 521.136 94.5453 520.59 94.5453C520.223 94.5453 519.899 94.6242 519.618 94.7821C519.34 94.9399 519.123 95.1703 518.965 95.4732C518.811 95.7718 518.732 96.1323 518.728 96.5547ZM529.938 96.5547V102.237H527.212V92.4079H529.81V94.1421H529.925C530.143 93.5705 530.508 93.1182 531.02 92.7855C531.532 92.4484 532.152 92.2799 532.882 92.2799C533.564 92.2799 534.16 92.4292 534.667 92.7279C535.175 93.0265 535.569 93.4531 535.851 94.0078C536.133 94.5581 536.273 95.2151 536.273 95.9787V102.237H533.547V96.4651C533.552 95.8636 533.398 95.3943 533.087 95.0572C532.775 94.7159 532.346 94.5453 531.8 94.5453C531.433 94.5453 531.109 94.6242 530.828 94.7821C530.55 94.9399 530.333 95.1703 530.175 95.4732C530.021 95.7718 529.942 96.1323 529.938 96.5547ZM549.754 92.9007C549.702 92.3845 549.483 91.9834 549.095 91.6976C548.706 91.4118 548.179 91.2688 547.514 91.2688C547.062 91.2688 546.68 91.3328 546.368 91.4608C546.057 91.5845 545.818 91.7573 545.652 91.9792C545.49 92.201 545.408 92.4527 545.408 92.7343C545.4 92.9689 545.449 93.1737 545.556 93.3486C545.667 93.5235 545.818 93.675 546.01 93.803C546.202 93.9267 546.424 94.0355 546.676 94.1293C546.927 94.2189 547.196 94.2957 547.482 94.3597L548.659 94.6413C549.231 94.7693 549.756 94.9399 550.234 95.1532C550.711 95.3665 551.125 95.6289 551.475 95.9404C551.825 96.2518 552.096 96.6187 552.288 97.041C552.484 97.4634 552.584 97.9476 552.589 98.4937C552.584 99.2957 552.379 99.9911 551.974 100.58C551.573 101.164 550.993 101.619 550.234 101.943C549.478 102.263 548.568 102.423 547.501 102.423C546.443 102.423 545.522 102.261 544.737 101.937C543.956 101.612 543.346 101.132 542.906 100.497C542.471 99.8567 542.243 99.0654 542.222 98.1225H544.903C544.933 98.5619 545.059 98.9288 545.28 99.2232C545.507 99.5133 545.807 99.733 546.183 99.8823C546.562 100.027 546.991 100.1 547.469 100.1C547.938 100.1 548.346 100.032 548.691 99.8951C549.041 99.7586 549.312 99.5688 549.504 99.3256C549.696 99.0824 549.792 98.803 549.792 98.4873C549.792 98.1929 549.705 97.9455 549.53 97.745C549.359 97.5445 549.107 97.3738 548.775 97.233C548.446 97.0922 548.043 96.9642 547.565 96.8491L546.138 96.4907C545.033 96.2219 544.161 95.8017 543.521 95.23C542.881 94.6583 542.563 93.8883 542.567 92.9199C542.563 92.1263 542.774 91.4331 543.201 90.8401C543.632 90.2471 544.222 89.7842 544.973 89.4514C545.724 89.1187 546.577 88.9523 547.533 88.9523C548.506 88.9523 549.355 89.1187 550.08 89.4514C550.81 89.7842 551.377 90.2471 551.782 90.8401C552.188 91.4331 552.397 92.1199 552.409 92.9007H549.754ZM559.629 92.4079V94.4557H553.71V92.4079H559.629ZM555.054 90.053H557.78V99.2168C557.78 99.4685 557.818 99.6648 557.895 99.8056C557.972 99.9421 558.079 100.038 558.215 100.094C558.356 100.149 558.518 100.177 558.702 100.177C558.829 100.177 558.957 100.166 559.085 100.145C559.213 100.119 559.312 100.1 559.38 100.087L559.809 102.116C559.672 102.158 559.48 102.207 559.233 102.263C558.985 102.323 558.684 102.359 558.33 102.372C557.673 102.397 557.097 102.31 556.603 102.109C556.112 101.909 555.73 101.597 555.457 101.175C555.184 100.753 555.05 100.219 555.054 99.5752V90.053ZM564.208 102.423C563.581 102.423 563.022 102.314 562.532 102.097C562.041 101.875 561.653 101.548 561.367 101.117C561.085 100.682 560.944 100.14 560.944 99.492C560.944 98.9459 561.045 98.4873 561.245 98.1161C561.446 97.745 561.719 97.4463 562.064 97.2202C562.41 96.9941 562.802 96.8235 563.242 96.7083C563.686 96.5931 564.151 96.512 564.637 96.4651C565.209 96.4054 565.669 96.3499 566.019 96.2987C566.369 96.2433 566.623 96.1622 566.781 96.0555C566.939 95.9489 567.017 95.791 567.017 95.582V95.5436C567.017 95.1383 566.889 94.8247 566.634 94.6029C566.382 94.381 566.023 94.2701 565.558 94.2701C565.068 94.2701 564.677 94.3789 564.387 94.5965C564.097 94.8098 563.905 95.0786 563.811 95.4028L561.29 95.198C561.418 94.6008 561.67 94.0845 562.045 93.6494C562.421 93.21 562.905 92.8729 563.498 92.6383C564.095 92.3994 564.786 92.2799 565.571 92.2799C566.117 92.2799 566.64 92.3439 567.139 92.4719C567.642 92.5999 568.088 92.7983 568.477 93.067C568.869 93.3358 569.178 93.6814 569.404 94.1037C569.631 94.5218 569.744 95.0231 569.744 95.6076V102.237H567.158V100.874H567.081C566.924 101.181 566.712 101.452 566.448 101.687C566.183 101.917 565.866 102.099 565.494 102.231C565.123 102.359 564.695 102.423 564.208 102.423ZM564.989 100.541C565.39 100.541 565.744 100.463 566.051 100.305C566.358 100.143 566.599 99.925 566.774 99.652C566.949 99.3789 567.037 99.0696 567.037 98.7241V97.681C566.951 97.7364 566.834 97.7876 566.685 97.8346C566.54 97.8772 566.375 97.9177 566.192 97.9561C566.009 97.9903 565.825 98.0223 565.642 98.0521C565.458 98.0777 565.292 98.1012 565.142 98.1225C564.822 98.1695 564.543 98.2441 564.304 98.3465C564.065 98.4489 563.88 98.5875 563.747 98.7625C563.615 98.9331 563.549 99.1464 563.549 99.4024C563.549 99.7736 563.683 100.057 563.952 100.254C564.225 100.445 564.571 100.541 564.989 100.541ZM577.087 92.4079V94.4557H571.167V92.4079H577.087ZM572.511 90.053H575.237V99.2168C575.237 99.4685 575.276 99.6648 575.353 99.8056C575.429 99.9421 575.536 100.038 575.673 100.094C575.813 100.149 575.975 100.177 576.159 100.177C576.287 100.177 576.415 100.166 576.543 100.145C576.671 100.119 576.769 100.1 576.837 100.087L577.266 102.116C577.129 102.158 576.938 102.207 576.69 102.263C576.443 102.323 576.142 102.359 575.788 102.372C575.131 102.397 574.555 102.31 574.06 102.109C573.569 101.909 573.187 101.597 572.914 101.175C572.641 100.753 572.507 100.219 572.511 99.5752V90.053ZM583.237 102.429C582.225 102.429 581.355 102.225 580.626 101.815C579.9 101.401 579.342 100.817 578.949 100.062C578.557 99.3021 578.36 98.4041 578.36 97.3674C578.36 96.3563 578.557 95.4689 578.949 94.7053C579.342 93.9416 579.894 93.3465 580.606 92.9199C581.323 92.4932 582.164 92.2799 583.128 92.2799C583.776 92.2799 584.38 92.3845 584.939 92.5935C585.502 92.7983 585.993 93.1076 586.411 93.5214C586.833 93.9352 587.162 94.4557 587.396 95.0828C587.631 95.7057 587.748 96.4352 587.748 97.2714V98.0201H579.448V96.3307H585.182C585.182 95.9382 585.097 95.5905 584.926 95.2876C584.755 94.9847 584.519 94.7479 584.216 94.5773C583.917 94.4024 583.569 94.3149 583.173 94.3149C582.759 94.3149 582.392 94.4109 582.072 94.6029C581.756 94.7906 581.509 95.0444 581.33 95.3644C581.15 95.6801 581.059 96.0321 581.054 96.4203V98.0265C581.054 98.5129 581.144 98.9331 581.323 99.2872C581.507 99.6413 581.765 99.9143 582.098 100.106C582.43 100.298 582.825 100.394 583.281 100.394C583.584 100.394 583.862 100.352 584.113 100.266C584.365 100.181 584.58 100.053 584.76 99.8823C584.939 99.7117 585.075 99.5027 585.169 99.2552L587.691 99.4216C587.563 100.027 587.3 100.556 586.903 101.009C586.511 101.457 586.003 101.806 585.38 102.058C584.762 102.306 584.047 102.429 583.237 102.429Z" fill="#A6A6A6"/>
</svg>
